%TF.GenerationSoftware,KiCad,Pcbnew,10.0.0*%
%TF.CreationDate,2026-04-14T05:13:25+02:00*%
%TF.ProjectId,blinky,626c696e-6b79-42e6-9b69-6361645f7063,rev?*%
%TF.SameCoordinates,Original*%
%TF.FileFunction,Soldermask,Top*%
%TF.FilePolarity,Negative*%
%FSLAX46Y46*%
G04 Gerber Fmt 4.6, Leading zero omitted, Abs format (unit mm)*
G04 Created by KiCad (PCBNEW 10.0.0) date 2026-04-14 05:13:25*
%MOMM*%
%LPD*%
G01*
G04 APERTURE LIST*
G04 Aperture macros list*
%AMRoundRect*
0 Rectangle with rounded corners*
0 $1 Rounding radius*
0 $2 $3 $4 $5 $6 $7 $8 $9 X,Y pos of 4 corners*
0 Add a 4 corners polygon primitive as box body*
4,1,4,$2,$3,$4,$5,$6,$7,$8,$9,$2,$3,0*
0 Add four circle primitives for the rounded corners*
1,1,$1+$1,$2,$3*
1,1,$1+$1,$4,$5*
1,1,$1+$1,$6,$7*
1,1,$1+$1,$8,$9*
0 Add four rect primitives between the rounded corners*
20,1,$1+$1,$2,$3,$4,$5,0*
20,1,$1+$1,$4,$5,$6,$7,0*
20,1,$1+$1,$6,$7,$8,$9,0*
20,1,$1+$1,$8,$9,$2,$3,0*%
G04 Aperture macros list end*
%ADD10RoundRect,0.250000X0.550000X-0.550000X0.550000X0.550000X-0.550000X0.550000X-0.550000X-0.550000X0*%
%ADD11C,1.600000*%
%ADD12RoundRect,0.412500X-0.412500X-0.412500X0.412500X-0.412500X0.412500X0.412500X-0.412500X0.412500X0*%
%ADD13C,1.650000*%
%ADD14R,1.700000X1.700000*%
%ADD15R,1.800000X1.800000*%
%ADD16C,1.800000*%
%ADD17R,1.295400X1.295400*%
%ADD18C,1.295400*%
%ADD19RoundRect,0.250000X0.550000X0.550000X-0.550000X0.550000X-0.550000X-0.550000X0.550000X-0.550000X0*%
%ADD20C,1.700000*%
G04 APERTURE END LIST*
D10*
%TO.C,U1*%
X134380000Y-73305000D03*
D11*
X136920000Y-73305000D03*
X139460000Y-73305000D03*
X142000000Y-73305000D03*
X142000000Y-65685000D03*
X139460000Y-65685000D03*
X136920000Y-65685000D03*
X134380000Y-65685000D03*
%TD*%
D12*
%TO.C,RV1*%
X138310000Y-58107500D03*
D13*
X140850000Y-58107500D03*
X143390000Y-58107500D03*
%TD*%
D14*
%TO.C,J2*%
X139500000Y-77000000D03*
%TD*%
D11*
%TO.C,C1*%
X129500000Y-69000000D03*
X129500000Y-74000000D03*
%TD*%
D15*
%TO.C,D10*%
X160000000Y-69500000D03*
D16*
X160000000Y-66960000D03*
%TD*%
D11*
%TO.C,R3*%
X120000000Y-124310000D03*
X120000000Y-116690000D03*
%TD*%
D17*
%TO.C,U2*%
X116880000Y-72460000D03*
D18*
X116880000Y-75000000D03*
X116880000Y-77540000D03*
X116880000Y-80080000D03*
X116880000Y-82620000D03*
X116880000Y-85160000D03*
X116880000Y-87700000D03*
X116880000Y-90240000D03*
X124500000Y-90240000D03*
X124500000Y-87700000D03*
X124500000Y-85160000D03*
X124500000Y-82620000D03*
X124500000Y-80080000D03*
X124500000Y-77540000D03*
X124500000Y-75000000D03*
X124500000Y-72460000D03*
%TD*%
D15*
%TO.C,D6*%
X106000000Y-97000000D03*
D16*
X108540000Y-97000000D03*
%TD*%
D19*
%TO.C,C2*%
X130455113Y-79500000D03*
D11*
X128455113Y-79500000D03*
%TD*%
D15*
%TO.C,D5*%
X89500000Y-95000000D03*
D16*
X92040000Y-95000000D03*
%TD*%
D15*
%TO.C,D2*%
X109460000Y-47500000D03*
D16*
X112000000Y-47500000D03*
%TD*%
D15*
%TO.C,D3*%
X92000000Y-69000000D03*
D16*
X89460000Y-69000000D03*
%TD*%
D11*
%TO.C,R2*%
X134500000Y-61500000D03*
X126880000Y-61500000D03*
%TD*%
D15*
%TO.C,D7*%
X109000000Y-118500000D03*
D16*
X111540000Y-118500000D03*
%TD*%
D15*
%TO.C,D4*%
X138500000Y-120040000D03*
D16*
X138500000Y-117500000D03*
%TD*%
D14*
%TO.C,J1*%
X123000000Y-102500000D03*
D20*
X120460000Y-102500000D03*
%TD*%
D15*
%TO.C,D1*%
X134460000Y-47500000D03*
D16*
X137000000Y-47500000D03*
%TD*%
D15*
%TO.C,D9*%
X158960000Y-95500000D03*
D16*
X161500000Y-95500000D03*
%TD*%
D15*
%TO.C,D8*%
X138730000Y-97000000D03*
D16*
X141270000Y-97000000D03*
%TD*%
M02*
