M48
; DRILL file KiCad 10.0.0 date 2026-04-14T02:36:24
; FORMAT={-:-/ absolute / metric / decimal}
; #@! TF.CreationDate,2026-04-14T02:36:24+02:00
; #@! TF.GenerationSoftware,Kicad,Pcbnew,10.0.0
; #@! TF.FileFunction,Plated,1,2,PTH
FMAT,2
METRIC
; #@! TA.AperFunction,Plated,PTH,ComponentDrill
T1C0.787
; #@! TA.AperFunction,Plated,PTH,ComponentDrill
T2C0.800
; #@! TA.AperFunction,Plated,PTH,ComponentDrill
T3C0.850
; #@! TA.AperFunction,Plated,PTH,ComponentDrill
T4C0.900
; #@! TA.AperFunction,Plated,PTH,ComponentDrill
T5C1.000
%
G90
G05
T1
X116.88Y-72.46
X116.88Y-75.0
X116.88Y-77.54
X116.88Y-80.08
X116.88Y-82.62
X116.88Y-85.16
X116.88Y-87.7
X116.88Y-90.24
X124.5Y-72.46
X124.5Y-75.0
X124.5Y-77.54
X124.5Y-80.08
X124.5Y-82.62
X124.5Y-85.16
X124.5Y-87.7
X124.5Y-90.24
T2
X120.0Y-116.69
X120.0Y-124.31
X126.88Y-61.5
X128.455Y-79.5
X130.455Y-79.5
X134.38Y-65.685
X134.38Y-73.305
X134.5Y-61.5
X136.92Y-65.685
X136.92Y-73.305
X139.46Y-65.685
X139.46Y-73.305
X142.0Y-65.685
X142.0Y-73.305
T3
X138.31Y-58.107
X140.85Y-58.107
X143.39Y-58.107
T4
X89.46Y-69.0
X89.5Y-95.0
X92.0Y-69.0
X92.04Y-95.0
X106.0Y-97.0
X108.54Y-97.0
X109.0Y-118.5
X109.46Y-47.5
X111.54Y-118.5
X112.0Y-47.5
X134.46Y-47.5
X137.0Y-47.5
X138.5Y-117.5
X138.5Y-120.04
X138.73Y-97.0
X141.27Y-97.0
X158.96Y-95.5
X160.0Y-66.96
X160.0Y-69.5
X161.5Y-95.5
T5
X120.46Y-102.5
X123.0Y-102.5
X129.5Y-69.0
X129.5Y-74.0
X136.5Y-80.5
M30
