%TF.GenerationSoftware,KiCad,Pcbnew,10.0.0*%
%TF.CreationDate,2026-04-14T05:13:25+02:00*%
%TF.ProjectId,blinky,626c696e-6b79-42e6-9b69-6361645f7063,rev?*%
%TF.SameCoordinates,Original*%
%TF.FileFunction,Legend,Top*%
%TF.FilePolarity,Positive*%
%FSLAX46Y46*%
G04 Gerber Fmt 4.6, Leading zero omitted, Abs format (unit mm)*
G04 Created by KiCad (PCBNEW 10.0.0) date 2026-04-14 05:13:25*
%MOMM*%
%LPD*%
G01*
G04 APERTURE LIST*
%ADD10C,0.150000*%
%ADD11C,0.120000*%
%ADD12C,0.152400*%
%ADD13C,0.000000*%
G04 APERTURE END LIST*
D10*
X131504819Y-70256904D02*
X132314342Y-70256904D01*
X132314342Y-70256904D02*
X132409580Y-70209285D01*
X132409580Y-70209285D02*
X132457200Y-70161666D01*
X132457200Y-70161666D02*
X132504819Y-70066428D01*
X132504819Y-70066428D02*
X132504819Y-69875952D01*
X132504819Y-69875952D02*
X132457200Y-69780714D01*
X132457200Y-69780714D02*
X132409580Y-69733095D01*
X132409580Y-69733095D02*
X132314342Y-69685476D01*
X132314342Y-69685476D02*
X131504819Y-69685476D01*
X132504819Y-68685476D02*
X132504819Y-69256904D01*
X132504819Y-68971190D02*
X131504819Y-68971190D01*
X131504819Y-68971190D02*
X131647676Y-69066428D01*
X131647676Y-69066428D02*
X131742914Y-69161666D01*
X131742914Y-69161666D02*
X131790533Y-69256904D01*
X140254761Y-55062319D02*
X139921428Y-54586128D01*
X139683333Y-55062319D02*
X139683333Y-54062319D01*
X139683333Y-54062319D02*
X140064285Y-54062319D01*
X140064285Y-54062319D02*
X140159523Y-54109938D01*
X140159523Y-54109938D02*
X140207142Y-54157557D01*
X140207142Y-54157557D02*
X140254761Y-54252795D01*
X140254761Y-54252795D02*
X140254761Y-54395652D01*
X140254761Y-54395652D02*
X140207142Y-54490890D01*
X140207142Y-54490890D02*
X140159523Y-54538509D01*
X140159523Y-54538509D02*
X140064285Y-54586128D01*
X140064285Y-54586128D02*
X139683333Y-54586128D01*
X140540476Y-54062319D02*
X140873809Y-55062319D01*
X140873809Y-55062319D02*
X141207142Y-54062319D01*
X142064285Y-55062319D02*
X141492857Y-55062319D01*
X141778571Y-55062319D02*
X141778571Y-54062319D01*
X141778571Y-54062319D02*
X141683333Y-54205176D01*
X141683333Y-54205176D02*
X141588095Y-54300414D01*
X141588095Y-54300414D02*
X141492857Y-54348033D01*
X139166666Y-74074819D02*
X139166666Y-74789104D01*
X139166666Y-74789104D02*
X139119047Y-74931961D01*
X139119047Y-74931961D02*
X139023809Y-75027200D01*
X139023809Y-75027200D02*
X138880952Y-75074819D01*
X138880952Y-75074819D02*
X138785714Y-75074819D01*
X139595238Y-74170057D02*
X139642857Y-74122438D01*
X139642857Y-74122438D02*
X139738095Y-74074819D01*
X139738095Y-74074819D02*
X139976190Y-74074819D01*
X139976190Y-74074819D02*
X140071428Y-74122438D01*
X140071428Y-74122438D02*
X140119047Y-74170057D01*
X140119047Y-74170057D02*
X140166666Y-74265295D01*
X140166666Y-74265295D02*
X140166666Y-74360533D01*
X140166666Y-74360533D02*
X140119047Y-74503390D01*
X140119047Y-74503390D02*
X139547619Y-75074819D01*
X139547619Y-75074819D02*
X140166666Y-75074819D01*
X132359580Y-71666666D02*
X132407200Y-71714285D01*
X132407200Y-71714285D02*
X132454819Y-71857142D01*
X132454819Y-71857142D02*
X132454819Y-71952380D01*
X132454819Y-71952380D02*
X132407200Y-72095237D01*
X132407200Y-72095237D02*
X132311961Y-72190475D01*
X132311961Y-72190475D02*
X132216723Y-72238094D01*
X132216723Y-72238094D02*
X132026247Y-72285713D01*
X132026247Y-72285713D02*
X131883390Y-72285713D01*
X131883390Y-72285713D02*
X131692914Y-72238094D01*
X131692914Y-72238094D02*
X131597676Y-72190475D01*
X131597676Y-72190475D02*
X131502438Y-72095237D01*
X131502438Y-72095237D02*
X131454819Y-71952380D01*
X131454819Y-71952380D02*
X131454819Y-71857142D01*
X131454819Y-71857142D02*
X131502438Y-71714285D01*
X131502438Y-71714285D02*
X131550057Y-71666666D01*
X132454819Y-70714285D02*
X132454819Y-71285713D01*
X132454819Y-70999999D02*
X131454819Y-70999999D01*
X131454819Y-70999999D02*
X131597676Y-71095237D01*
X131597676Y-71095237D02*
X131692914Y-71190475D01*
X131692914Y-71190475D02*
X131740533Y-71285713D01*
X157494819Y-69444285D02*
X156494819Y-69444285D01*
X156494819Y-69444285D02*
X156494819Y-69206190D01*
X156494819Y-69206190D02*
X156542438Y-69063333D01*
X156542438Y-69063333D02*
X156637676Y-68968095D01*
X156637676Y-68968095D02*
X156732914Y-68920476D01*
X156732914Y-68920476D02*
X156923390Y-68872857D01*
X156923390Y-68872857D02*
X157066247Y-68872857D01*
X157066247Y-68872857D02*
X157256723Y-68920476D01*
X157256723Y-68920476D02*
X157351961Y-68968095D01*
X157351961Y-68968095D02*
X157447200Y-69063333D01*
X157447200Y-69063333D02*
X157494819Y-69206190D01*
X157494819Y-69206190D02*
X157494819Y-69444285D01*
X157494819Y-67920476D02*
X157494819Y-68491904D01*
X157494819Y-68206190D02*
X156494819Y-68206190D01*
X156494819Y-68206190D02*
X156637676Y-68301428D01*
X156637676Y-68301428D02*
X156732914Y-68396666D01*
X156732914Y-68396666D02*
X156780533Y-68491904D01*
X156494819Y-67301428D02*
X156494819Y-67206190D01*
X156494819Y-67206190D02*
X156542438Y-67110952D01*
X156542438Y-67110952D02*
X156590057Y-67063333D01*
X156590057Y-67063333D02*
X156685295Y-67015714D01*
X156685295Y-67015714D02*
X156875771Y-66968095D01*
X156875771Y-66968095D02*
X157113866Y-66968095D01*
X157113866Y-66968095D02*
X157304342Y-67015714D01*
X157304342Y-67015714D02*
X157399580Y-67063333D01*
X157399580Y-67063333D02*
X157447200Y-67110952D01*
X157447200Y-67110952D02*
X157494819Y-67206190D01*
X157494819Y-67206190D02*
X157494819Y-67301428D01*
X157494819Y-67301428D02*
X157447200Y-67396666D01*
X157447200Y-67396666D02*
X157399580Y-67444285D01*
X157399580Y-67444285D02*
X157304342Y-67491904D01*
X157304342Y-67491904D02*
X157113866Y-67539523D01*
X157113866Y-67539523D02*
X156875771Y-67539523D01*
X156875771Y-67539523D02*
X156685295Y-67491904D01*
X156685295Y-67491904D02*
X156590057Y-67444285D01*
X156590057Y-67444285D02*
X156542438Y-67396666D01*
X156542438Y-67396666D02*
X156494819Y-67301428D01*
X118084819Y-120666666D02*
X117608628Y-120999999D01*
X118084819Y-121238094D02*
X117084819Y-121238094D01*
X117084819Y-121238094D02*
X117084819Y-120857142D01*
X117084819Y-120857142D02*
X117132438Y-120761904D01*
X117132438Y-120761904D02*
X117180057Y-120714285D01*
X117180057Y-120714285D02*
X117275295Y-120666666D01*
X117275295Y-120666666D02*
X117418152Y-120666666D01*
X117418152Y-120666666D02*
X117513390Y-120714285D01*
X117513390Y-120714285D02*
X117561009Y-120761904D01*
X117561009Y-120761904D02*
X117608628Y-120857142D01*
X117608628Y-120857142D02*
X117608628Y-121238094D01*
X117084819Y-120333332D02*
X117084819Y-119714285D01*
X117084819Y-119714285D02*
X117465771Y-120047618D01*
X117465771Y-120047618D02*
X117465771Y-119904761D01*
X117465771Y-119904761D02*
X117513390Y-119809523D01*
X117513390Y-119809523D02*
X117561009Y-119761904D01*
X117561009Y-119761904D02*
X117656247Y-119714285D01*
X117656247Y-119714285D02*
X117894342Y-119714285D01*
X117894342Y-119714285D02*
X117989580Y-119761904D01*
X117989580Y-119761904D02*
X118037200Y-119809523D01*
X118037200Y-119809523D02*
X118084819Y-119904761D01*
X118084819Y-119904761D02*
X118084819Y-120190475D01*
X118084819Y-120190475D02*
X118037200Y-120285713D01*
X118037200Y-120285713D02*
X117989580Y-120333332D01*
X119928095Y-80804819D02*
X119928095Y-81614342D01*
X119928095Y-81614342D02*
X119975714Y-81709580D01*
X119975714Y-81709580D02*
X120023333Y-81757200D01*
X120023333Y-81757200D02*
X120118571Y-81804819D01*
X120118571Y-81804819D02*
X120309047Y-81804819D01*
X120309047Y-81804819D02*
X120404285Y-81757200D01*
X120404285Y-81757200D02*
X120451904Y-81709580D01*
X120451904Y-81709580D02*
X120499523Y-81614342D01*
X120499523Y-81614342D02*
X120499523Y-80804819D01*
X120928095Y-80900057D02*
X120975714Y-80852438D01*
X120975714Y-80852438D02*
X121070952Y-80804819D01*
X121070952Y-80804819D02*
X121309047Y-80804819D01*
X121309047Y-80804819D02*
X121404285Y-80852438D01*
X121404285Y-80852438D02*
X121451904Y-80900057D01*
X121451904Y-80900057D02*
X121499523Y-80995295D01*
X121499523Y-80995295D02*
X121499523Y-81090533D01*
X121499523Y-81090533D02*
X121451904Y-81233390D01*
X121451904Y-81233390D02*
X120880476Y-81804819D01*
X120880476Y-81804819D02*
X121499523Y-81804819D01*
X116880000Y-70505119D02*
X116880000Y-70743214D01*
X116641905Y-70647976D02*
X116880000Y-70743214D01*
X116880000Y-70743214D02*
X117118095Y-70647976D01*
X116737143Y-70933690D02*
X116880000Y-70743214D01*
X116880000Y-70743214D02*
X117022857Y-70933690D01*
X116880000Y-70505119D02*
X116880000Y-70743214D01*
X116641905Y-70647976D02*
X116880000Y-70743214D01*
X116880000Y-70743214D02*
X117118095Y-70647976D01*
X116737143Y-70933690D02*
X116880000Y-70743214D01*
X116880000Y-70743214D02*
X117022857Y-70933690D01*
X106531905Y-94494819D02*
X106531905Y-93494819D01*
X106531905Y-93494819D02*
X106770000Y-93494819D01*
X106770000Y-93494819D02*
X106912857Y-93542438D01*
X106912857Y-93542438D02*
X107008095Y-93637676D01*
X107008095Y-93637676D02*
X107055714Y-93732914D01*
X107055714Y-93732914D02*
X107103333Y-93923390D01*
X107103333Y-93923390D02*
X107103333Y-94066247D01*
X107103333Y-94066247D02*
X107055714Y-94256723D01*
X107055714Y-94256723D02*
X107008095Y-94351961D01*
X107008095Y-94351961D02*
X106912857Y-94447200D01*
X106912857Y-94447200D02*
X106770000Y-94494819D01*
X106770000Y-94494819D02*
X106531905Y-94494819D01*
X107960476Y-93494819D02*
X107770000Y-93494819D01*
X107770000Y-93494819D02*
X107674762Y-93542438D01*
X107674762Y-93542438D02*
X107627143Y-93590057D01*
X107627143Y-93590057D02*
X107531905Y-93732914D01*
X107531905Y-93732914D02*
X107484286Y-93923390D01*
X107484286Y-93923390D02*
X107484286Y-94304342D01*
X107484286Y-94304342D02*
X107531905Y-94399580D01*
X107531905Y-94399580D02*
X107579524Y-94447200D01*
X107579524Y-94447200D02*
X107674762Y-94494819D01*
X107674762Y-94494819D02*
X107865238Y-94494819D01*
X107865238Y-94494819D02*
X107960476Y-94447200D01*
X107960476Y-94447200D02*
X108008095Y-94399580D01*
X108008095Y-94399580D02*
X108055714Y-94304342D01*
X108055714Y-94304342D02*
X108055714Y-94066247D01*
X108055714Y-94066247D02*
X108008095Y-93971009D01*
X108008095Y-93971009D02*
X107960476Y-93923390D01*
X107960476Y-93923390D02*
X107865238Y-93875771D01*
X107865238Y-93875771D02*
X107674762Y-93875771D01*
X107674762Y-93875771D02*
X107579524Y-93923390D01*
X107579524Y-93923390D02*
X107531905Y-93971009D01*
X107531905Y-93971009D02*
X107484286Y-94066247D01*
X129288446Y-83609580D02*
X129240827Y-83657200D01*
X129240827Y-83657200D02*
X129097970Y-83704819D01*
X129097970Y-83704819D02*
X129002732Y-83704819D01*
X129002732Y-83704819D02*
X128859875Y-83657200D01*
X128859875Y-83657200D02*
X128764637Y-83561961D01*
X128764637Y-83561961D02*
X128717018Y-83466723D01*
X128717018Y-83466723D02*
X128669399Y-83276247D01*
X128669399Y-83276247D02*
X128669399Y-83133390D01*
X128669399Y-83133390D02*
X128717018Y-82942914D01*
X128717018Y-82942914D02*
X128764637Y-82847676D01*
X128764637Y-82847676D02*
X128859875Y-82752438D01*
X128859875Y-82752438D02*
X129002732Y-82704819D01*
X129002732Y-82704819D02*
X129097970Y-82704819D01*
X129097970Y-82704819D02*
X129240827Y-82752438D01*
X129240827Y-82752438D02*
X129288446Y-82800057D01*
X129669399Y-82800057D02*
X129717018Y-82752438D01*
X129717018Y-82752438D02*
X129812256Y-82704819D01*
X129812256Y-82704819D02*
X130050351Y-82704819D01*
X130050351Y-82704819D02*
X130145589Y-82752438D01*
X130145589Y-82752438D02*
X130193208Y-82800057D01*
X130193208Y-82800057D02*
X130240827Y-82895295D01*
X130240827Y-82895295D02*
X130240827Y-82990533D01*
X130240827Y-82990533D02*
X130193208Y-83133390D01*
X130193208Y-83133390D02*
X129621780Y-83704819D01*
X129621780Y-83704819D02*
X130240827Y-83704819D01*
X90031905Y-92494819D02*
X90031905Y-91494819D01*
X90031905Y-91494819D02*
X90270000Y-91494819D01*
X90270000Y-91494819D02*
X90412857Y-91542438D01*
X90412857Y-91542438D02*
X90508095Y-91637676D01*
X90508095Y-91637676D02*
X90555714Y-91732914D01*
X90555714Y-91732914D02*
X90603333Y-91923390D01*
X90603333Y-91923390D02*
X90603333Y-92066247D01*
X90603333Y-92066247D02*
X90555714Y-92256723D01*
X90555714Y-92256723D02*
X90508095Y-92351961D01*
X90508095Y-92351961D02*
X90412857Y-92447200D01*
X90412857Y-92447200D02*
X90270000Y-92494819D01*
X90270000Y-92494819D02*
X90031905Y-92494819D01*
X91508095Y-91494819D02*
X91031905Y-91494819D01*
X91031905Y-91494819D02*
X90984286Y-91971009D01*
X90984286Y-91971009D02*
X91031905Y-91923390D01*
X91031905Y-91923390D02*
X91127143Y-91875771D01*
X91127143Y-91875771D02*
X91365238Y-91875771D01*
X91365238Y-91875771D02*
X91460476Y-91923390D01*
X91460476Y-91923390D02*
X91508095Y-91971009D01*
X91508095Y-91971009D02*
X91555714Y-92066247D01*
X91555714Y-92066247D02*
X91555714Y-92304342D01*
X91555714Y-92304342D02*
X91508095Y-92399580D01*
X91508095Y-92399580D02*
X91460476Y-92447200D01*
X91460476Y-92447200D02*
X91365238Y-92494819D01*
X91365238Y-92494819D02*
X91127143Y-92494819D01*
X91127143Y-92494819D02*
X91031905Y-92447200D01*
X91031905Y-92447200D02*
X90984286Y-92399580D01*
X109991905Y-44994819D02*
X109991905Y-43994819D01*
X109991905Y-43994819D02*
X110230000Y-43994819D01*
X110230000Y-43994819D02*
X110372857Y-44042438D01*
X110372857Y-44042438D02*
X110468095Y-44137676D01*
X110468095Y-44137676D02*
X110515714Y-44232914D01*
X110515714Y-44232914D02*
X110563333Y-44423390D01*
X110563333Y-44423390D02*
X110563333Y-44566247D01*
X110563333Y-44566247D02*
X110515714Y-44756723D01*
X110515714Y-44756723D02*
X110468095Y-44851961D01*
X110468095Y-44851961D02*
X110372857Y-44947200D01*
X110372857Y-44947200D02*
X110230000Y-44994819D01*
X110230000Y-44994819D02*
X109991905Y-44994819D01*
X110944286Y-44090057D02*
X110991905Y-44042438D01*
X110991905Y-44042438D02*
X111087143Y-43994819D01*
X111087143Y-43994819D02*
X111325238Y-43994819D01*
X111325238Y-43994819D02*
X111420476Y-44042438D01*
X111420476Y-44042438D02*
X111468095Y-44090057D01*
X111468095Y-44090057D02*
X111515714Y-44185295D01*
X111515714Y-44185295D02*
X111515714Y-44280533D01*
X111515714Y-44280533D02*
X111468095Y-44423390D01*
X111468095Y-44423390D02*
X110896667Y-44994819D01*
X110896667Y-44994819D02*
X111515714Y-44994819D01*
X89991905Y-72414819D02*
X89991905Y-71414819D01*
X89991905Y-71414819D02*
X90230000Y-71414819D01*
X90230000Y-71414819D02*
X90372857Y-71462438D01*
X90372857Y-71462438D02*
X90468095Y-71557676D01*
X90468095Y-71557676D02*
X90515714Y-71652914D01*
X90515714Y-71652914D02*
X90563333Y-71843390D01*
X90563333Y-71843390D02*
X90563333Y-71986247D01*
X90563333Y-71986247D02*
X90515714Y-72176723D01*
X90515714Y-72176723D02*
X90468095Y-72271961D01*
X90468095Y-72271961D02*
X90372857Y-72367200D01*
X90372857Y-72367200D02*
X90230000Y-72414819D01*
X90230000Y-72414819D02*
X89991905Y-72414819D01*
X90896667Y-71414819D02*
X91515714Y-71414819D01*
X91515714Y-71414819D02*
X91182381Y-71795771D01*
X91182381Y-71795771D02*
X91325238Y-71795771D01*
X91325238Y-71795771D02*
X91420476Y-71843390D01*
X91420476Y-71843390D02*
X91468095Y-71891009D01*
X91468095Y-71891009D02*
X91515714Y-71986247D01*
X91515714Y-71986247D02*
X91515714Y-72224342D01*
X91515714Y-72224342D02*
X91468095Y-72319580D01*
X91468095Y-72319580D02*
X91420476Y-72367200D01*
X91420476Y-72367200D02*
X91325238Y-72414819D01*
X91325238Y-72414819D02*
X91039524Y-72414819D01*
X91039524Y-72414819D02*
X90944286Y-72367200D01*
X90944286Y-72367200D02*
X90896667Y-72319580D01*
X130523333Y-64324819D02*
X130190000Y-63848628D01*
X129951905Y-64324819D02*
X129951905Y-63324819D01*
X129951905Y-63324819D02*
X130332857Y-63324819D01*
X130332857Y-63324819D02*
X130428095Y-63372438D01*
X130428095Y-63372438D02*
X130475714Y-63420057D01*
X130475714Y-63420057D02*
X130523333Y-63515295D01*
X130523333Y-63515295D02*
X130523333Y-63658152D01*
X130523333Y-63658152D02*
X130475714Y-63753390D01*
X130475714Y-63753390D02*
X130428095Y-63801009D01*
X130428095Y-63801009D02*
X130332857Y-63848628D01*
X130332857Y-63848628D02*
X129951905Y-63848628D01*
X130904286Y-63420057D02*
X130951905Y-63372438D01*
X130951905Y-63372438D02*
X131047143Y-63324819D01*
X131047143Y-63324819D02*
X131285238Y-63324819D01*
X131285238Y-63324819D02*
X131380476Y-63372438D01*
X131380476Y-63372438D02*
X131428095Y-63420057D01*
X131428095Y-63420057D02*
X131475714Y-63515295D01*
X131475714Y-63515295D02*
X131475714Y-63610533D01*
X131475714Y-63610533D02*
X131428095Y-63753390D01*
X131428095Y-63753390D02*
X130856667Y-64324819D01*
X130856667Y-64324819D02*
X131475714Y-64324819D01*
X109531905Y-115994819D02*
X109531905Y-114994819D01*
X109531905Y-114994819D02*
X109770000Y-114994819D01*
X109770000Y-114994819D02*
X109912857Y-115042438D01*
X109912857Y-115042438D02*
X110008095Y-115137676D01*
X110008095Y-115137676D02*
X110055714Y-115232914D01*
X110055714Y-115232914D02*
X110103333Y-115423390D01*
X110103333Y-115423390D02*
X110103333Y-115566247D01*
X110103333Y-115566247D02*
X110055714Y-115756723D01*
X110055714Y-115756723D02*
X110008095Y-115851961D01*
X110008095Y-115851961D02*
X109912857Y-115947200D01*
X109912857Y-115947200D02*
X109770000Y-115994819D01*
X109770000Y-115994819D02*
X109531905Y-115994819D01*
X110436667Y-114994819D02*
X111103333Y-114994819D01*
X111103333Y-114994819D02*
X110674762Y-115994819D01*
X135994819Y-119508094D02*
X134994819Y-119508094D01*
X134994819Y-119508094D02*
X134994819Y-119269999D01*
X134994819Y-119269999D02*
X135042438Y-119127142D01*
X135042438Y-119127142D02*
X135137676Y-119031904D01*
X135137676Y-119031904D02*
X135232914Y-118984285D01*
X135232914Y-118984285D02*
X135423390Y-118936666D01*
X135423390Y-118936666D02*
X135566247Y-118936666D01*
X135566247Y-118936666D02*
X135756723Y-118984285D01*
X135756723Y-118984285D02*
X135851961Y-119031904D01*
X135851961Y-119031904D02*
X135947200Y-119127142D01*
X135947200Y-119127142D02*
X135994819Y-119269999D01*
X135994819Y-119269999D02*
X135994819Y-119508094D01*
X135328152Y-118079523D02*
X135994819Y-118079523D01*
X134947200Y-118317618D02*
X135661485Y-118555713D01*
X135661485Y-118555713D02*
X135661485Y-117936666D01*
X124834819Y-102833333D02*
X125549104Y-102833333D01*
X125549104Y-102833333D02*
X125691961Y-102880952D01*
X125691961Y-102880952D02*
X125787200Y-102976190D01*
X125787200Y-102976190D02*
X125834819Y-103119047D01*
X125834819Y-103119047D02*
X125834819Y-103214285D01*
X125834819Y-101833333D02*
X125834819Y-102404761D01*
X125834819Y-102119047D02*
X124834819Y-102119047D01*
X124834819Y-102119047D02*
X124977676Y-102214285D01*
X124977676Y-102214285D02*
X125072914Y-102309523D01*
X125072914Y-102309523D02*
X125120533Y-102404761D01*
X134991905Y-44994819D02*
X134991905Y-43994819D01*
X134991905Y-43994819D02*
X135230000Y-43994819D01*
X135230000Y-43994819D02*
X135372857Y-44042438D01*
X135372857Y-44042438D02*
X135468095Y-44137676D01*
X135468095Y-44137676D02*
X135515714Y-44232914D01*
X135515714Y-44232914D02*
X135563333Y-44423390D01*
X135563333Y-44423390D02*
X135563333Y-44566247D01*
X135563333Y-44566247D02*
X135515714Y-44756723D01*
X135515714Y-44756723D02*
X135468095Y-44851961D01*
X135468095Y-44851961D02*
X135372857Y-44947200D01*
X135372857Y-44947200D02*
X135230000Y-44994819D01*
X135230000Y-44994819D02*
X134991905Y-44994819D01*
X136515714Y-44994819D02*
X135944286Y-44994819D01*
X136230000Y-44994819D02*
X136230000Y-43994819D01*
X136230000Y-43994819D02*
X136134762Y-44137676D01*
X136134762Y-44137676D02*
X136039524Y-44232914D01*
X136039524Y-44232914D02*
X135944286Y-44280533D01*
X159491905Y-92994819D02*
X159491905Y-91994819D01*
X159491905Y-91994819D02*
X159730000Y-91994819D01*
X159730000Y-91994819D02*
X159872857Y-92042438D01*
X159872857Y-92042438D02*
X159968095Y-92137676D01*
X159968095Y-92137676D02*
X160015714Y-92232914D01*
X160015714Y-92232914D02*
X160063333Y-92423390D01*
X160063333Y-92423390D02*
X160063333Y-92566247D01*
X160063333Y-92566247D02*
X160015714Y-92756723D01*
X160015714Y-92756723D02*
X159968095Y-92851961D01*
X159968095Y-92851961D02*
X159872857Y-92947200D01*
X159872857Y-92947200D02*
X159730000Y-92994819D01*
X159730000Y-92994819D02*
X159491905Y-92994819D01*
X160539524Y-92994819D02*
X160730000Y-92994819D01*
X160730000Y-92994819D02*
X160825238Y-92947200D01*
X160825238Y-92947200D02*
X160872857Y-92899580D01*
X160872857Y-92899580D02*
X160968095Y-92756723D01*
X160968095Y-92756723D02*
X161015714Y-92566247D01*
X161015714Y-92566247D02*
X161015714Y-92185295D01*
X161015714Y-92185295D02*
X160968095Y-92090057D01*
X160968095Y-92090057D02*
X160920476Y-92042438D01*
X160920476Y-92042438D02*
X160825238Y-91994819D01*
X160825238Y-91994819D02*
X160634762Y-91994819D01*
X160634762Y-91994819D02*
X160539524Y-92042438D01*
X160539524Y-92042438D02*
X160491905Y-92090057D01*
X160491905Y-92090057D02*
X160444286Y-92185295D01*
X160444286Y-92185295D02*
X160444286Y-92423390D01*
X160444286Y-92423390D02*
X160491905Y-92518628D01*
X160491905Y-92518628D02*
X160539524Y-92566247D01*
X160539524Y-92566247D02*
X160634762Y-92613866D01*
X160634762Y-92613866D02*
X160825238Y-92613866D01*
X160825238Y-92613866D02*
X160920476Y-92566247D01*
X160920476Y-92566247D02*
X160968095Y-92518628D01*
X160968095Y-92518628D02*
X161015714Y-92423390D01*
X139261905Y-94494819D02*
X139261905Y-93494819D01*
X139261905Y-93494819D02*
X139500000Y-93494819D01*
X139500000Y-93494819D02*
X139642857Y-93542438D01*
X139642857Y-93542438D02*
X139738095Y-93637676D01*
X139738095Y-93637676D02*
X139785714Y-93732914D01*
X139785714Y-93732914D02*
X139833333Y-93923390D01*
X139833333Y-93923390D02*
X139833333Y-94066247D01*
X139833333Y-94066247D02*
X139785714Y-94256723D01*
X139785714Y-94256723D02*
X139738095Y-94351961D01*
X139738095Y-94351961D02*
X139642857Y-94447200D01*
X139642857Y-94447200D02*
X139500000Y-94494819D01*
X139500000Y-94494819D02*
X139261905Y-94494819D01*
X140404762Y-93923390D02*
X140309524Y-93875771D01*
X140309524Y-93875771D02*
X140261905Y-93828152D01*
X140261905Y-93828152D02*
X140214286Y-93732914D01*
X140214286Y-93732914D02*
X140214286Y-93685295D01*
X140214286Y-93685295D02*
X140261905Y-93590057D01*
X140261905Y-93590057D02*
X140309524Y-93542438D01*
X140309524Y-93542438D02*
X140404762Y-93494819D01*
X140404762Y-93494819D02*
X140595238Y-93494819D01*
X140595238Y-93494819D02*
X140690476Y-93542438D01*
X140690476Y-93542438D02*
X140738095Y-93590057D01*
X140738095Y-93590057D02*
X140785714Y-93685295D01*
X140785714Y-93685295D02*
X140785714Y-93732914D01*
X140785714Y-93732914D02*
X140738095Y-93828152D01*
X140738095Y-93828152D02*
X140690476Y-93875771D01*
X140690476Y-93875771D02*
X140595238Y-93923390D01*
X140595238Y-93923390D02*
X140404762Y-93923390D01*
X140404762Y-93923390D02*
X140309524Y-93971009D01*
X140309524Y-93971009D02*
X140261905Y-94018628D01*
X140261905Y-94018628D02*
X140214286Y-94113866D01*
X140214286Y-94113866D02*
X140214286Y-94304342D01*
X140214286Y-94304342D02*
X140261905Y-94399580D01*
X140261905Y-94399580D02*
X140309524Y-94447200D01*
X140309524Y-94447200D02*
X140404762Y-94494819D01*
X140404762Y-94494819D02*
X140595238Y-94494819D01*
X140595238Y-94494819D02*
X140690476Y-94447200D01*
X140690476Y-94447200D02*
X140738095Y-94399580D01*
X140738095Y-94399580D02*
X140785714Y-94304342D01*
X140785714Y-94304342D02*
X140785714Y-94113866D01*
X140785714Y-94113866D02*
X140738095Y-94018628D01*
X140738095Y-94018628D02*
X140690476Y-93971009D01*
X140690476Y-93971009D02*
X140595238Y-93923390D01*
%TO.C,U1*%
D11*
X133050000Y-66845000D02*
X133050000Y-68495000D01*
X133050000Y-70495000D02*
X133050000Y-72145000D01*
X133050000Y-72145000D02*
X143330000Y-72145000D01*
X143330000Y-66845000D02*
X133050000Y-66845000D01*
X143330000Y-72145000D02*
X143330000Y-66845000D01*
X133050000Y-68495000D02*
G75*
G02*
X133050000Y-70495000I0J-1000000D01*
G01*
%TO.C,RV1*%
X135890000Y-55497500D02*
X135890000Y-60717500D01*
X135890000Y-55497500D02*
X138010000Y-55497500D01*
X135890000Y-60717500D02*
X145810000Y-60717500D01*
X138710000Y-55497500D02*
X145810000Y-55497500D01*
X145810000Y-55497500D02*
X145810000Y-60717500D01*
X138310000Y-55497500D02*
X138070000Y-55167500D01*
X138550000Y-55167500D01*
X138310000Y-55497500D01*
G36*
X138310000Y-55497500D02*
G01*
X138070000Y-55167500D01*
X138550000Y-55167500D01*
X138310000Y-55497500D01*
G37*
%TO.C,J2*%
X140880000Y-78270000D02*
X140880000Y-78380000D01*
X138120000Y-78380000D02*
X140880000Y-78380000D01*
X138120000Y-78270000D02*
X140880000Y-78270000D01*
X138120000Y-78270000D02*
X138120000Y-78380000D01*
X138120000Y-77000000D02*
X138120000Y-75620000D01*
X138120000Y-75620000D02*
X139500000Y-75620000D01*
%TO.C,C1*%
X130870000Y-66880000D02*
X130870000Y-76120000D01*
X128130000Y-66880000D02*
X130870000Y-66880000D01*
X130870000Y-76120000D02*
X128130000Y-76120000D01*
X128130000Y-76120000D02*
X128130000Y-66880000D01*
%TO.C,D10*%
X158764000Y-69790000D02*
X158920000Y-69790000D01*
X161080000Y-69790000D02*
X161236000Y-69790000D01*
X158764484Y-69790000D02*
G75*
G02*
X158920000Y-66558563I1235516J1560000D01*
G01*
X158920000Y-69270961D02*
G75*
G02*
X158920000Y-67189039I1080000J1040961D01*
G01*
X161080000Y-66558563D02*
G75*
G02*
X161235516Y-69790000I-1080000J-1671437D01*
G01*
X161080000Y-67189039D02*
G75*
G02*
X161080000Y-69270961I-1080000J-1040961D01*
G01*
%TO.C,R3*%
X118630000Y-117230000D02*
X118960000Y-117230000D01*
X118630000Y-123770000D02*
X118630000Y-117230000D01*
X118960000Y-123770000D02*
X118630000Y-123770000D01*
X121040000Y-123770000D02*
X121370000Y-123770000D01*
X121370000Y-117230000D02*
X121040000Y-117230000D01*
X121370000Y-123770000D02*
X121370000Y-117230000D01*
%TO.C,U2*%
D12*
X117388000Y-73440440D02*
X117388000Y-74161431D01*
X117388000Y-75838569D02*
X117388000Y-76701431D01*
X117388000Y-78378569D02*
X117388000Y-79241431D01*
X117388000Y-80918569D02*
X117388000Y-81781431D01*
X117388000Y-83458569D02*
X117388000Y-84321431D01*
X117388000Y-85998569D02*
X117388000Y-86861431D01*
X117388000Y-88538569D02*
X117388000Y-89401431D01*
X117388000Y-91192500D02*
X123992000Y-91192500D01*
X123992000Y-71507500D02*
X117661165Y-71507500D01*
X123992000Y-74161431D02*
X123992000Y-73298569D01*
X123992000Y-76701431D02*
X123992000Y-75838569D01*
X123992000Y-79241431D02*
X123992000Y-78378569D01*
X123992000Y-81781431D02*
X123992000Y-80918569D01*
X123992000Y-84321431D02*
X123992000Y-83458569D01*
X123992000Y-86861431D02*
X123992000Y-85998569D01*
X123992000Y-89401431D02*
X123992000Y-88538569D01*
X120994800Y-71507500D02*
G75*
G02*
X120385200Y-71507500I-304800J0D01*
G01*
%TO.C,D6*%
D11*
X105710000Y-95764000D02*
X105710000Y-95920000D01*
X105710000Y-98080000D02*
X105710000Y-98236000D01*
X105710000Y-95764484D02*
G75*
G02*
X108941437Y-95920000I1560000J-1235516D01*
G01*
X106229039Y-95920000D02*
G75*
G02*
X108310961Y-95920000I1040961J-1080000D01*
G01*
X108310961Y-98080000D02*
G75*
G02*
X106229039Y-98080000I-1040961J1080000D01*
G01*
X108941437Y-98080000D02*
G75*
G02*
X105710000Y-98235516I-1671437J1080000D01*
G01*
%TO.C,C2*%
X126855113Y-79783000D02*
X126855113Y-79217000D01*
X126895113Y-80017000D02*
X126895113Y-78983000D01*
X126935113Y-80177000D02*
X126935113Y-78823000D01*
X126975113Y-80305000D02*
X126975113Y-78695000D01*
X127015113Y-80414000D02*
X127015113Y-78586000D01*
X127055113Y-80511000D02*
X127055113Y-78489000D01*
X127095113Y-80598000D02*
X127095113Y-78402000D01*
X127135113Y-80677000D02*
X127135113Y-78323000D01*
X127175113Y-80751000D02*
X127175113Y-78249000D01*
X127215113Y-80819000D02*
X127215113Y-78181000D01*
X127255113Y-80883000D02*
X127255113Y-78117000D01*
X127295113Y-80943000D02*
X127295113Y-78057000D01*
X127335113Y-80999000D02*
X127335113Y-78001000D01*
X127375113Y-81053000D02*
X127375113Y-77947000D01*
X127415113Y-81104000D02*
X127415113Y-77896000D01*
X127455113Y-78460000D02*
X127455113Y-77848000D01*
X127455113Y-81152000D02*
X127455113Y-80540000D01*
X127495113Y-78460000D02*
X127495113Y-77801000D01*
X127495113Y-81199000D02*
X127495113Y-80540000D01*
X127535113Y-78460000D02*
X127535113Y-77757000D01*
X127535113Y-81243000D02*
X127535113Y-80540000D01*
X127575113Y-78460000D02*
X127575113Y-77715000D01*
X127575113Y-81285000D02*
X127575113Y-80540000D01*
X127615113Y-78460000D02*
X127615113Y-77675000D01*
X127615113Y-81325000D02*
X127615113Y-80540000D01*
X127655113Y-78460000D02*
X127655113Y-77636000D01*
X127655113Y-81364000D02*
X127655113Y-80540000D01*
X127695113Y-78460000D02*
X127695113Y-77599000D01*
X127695113Y-81401000D02*
X127695113Y-80540000D01*
X127735113Y-78460000D02*
X127735113Y-77564000D01*
X127735113Y-81436000D02*
X127735113Y-80540000D01*
X127775113Y-78460000D02*
X127775113Y-77530000D01*
X127775113Y-81470000D02*
X127775113Y-80540000D01*
X127815113Y-78460000D02*
X127815113Y-77497000D01*
X127815113Y-81503000D02*
X127815113Y-80540000D01*
X127855113Y-78460000D02*
X127855113Y-77465000D01*
X127855113Y-81535000D02*
X127855113Y-80540000D01*
X127895113Y-78460000D02*
X127895113Y-77435000D01*
X127895113Y-81565000D02*
X127895113Y-80540000D01*
X127935113Y-78460000D02*
X127935113Y-77406000D01*
X127935113Y-81594000D02*
X127935113Y-80540000D01*
X127975113Y-78460000D02*
X127975113Y-77378000D01*
X127975113Y-81622000D02*
X127975113Y-80540000D01*
X128015113Y-78460000D02*
X128015113Y-77351000D01*
X128015113Y-81649000D02*
X128015113Y-80540000D01*
X128055113Y-78460000D02*
X128055113Y-77325000D01*
X128055113Y-81675000D02*
X128055113Y-80540000D01*
X128095113Y-78460000D02*
X128095113Y-77301000D01*
X128095113Y-81699000D02*
X128095113Y-80540000D01*
X128135113Y-78460000D02*
X128135113Y-77277000D01*
X128135113Y-81723000D02*
X128135113Y-80540000D01*
X128175113Y-78460000D02*
X128175113Y-77254000D01*
X128175113Y-81746000D02*
X128175113Y-80540000D01*
X128215113Y-78460000D02*
X128215113Y-77232000D01*
X128215113Y-81768000D02*
X128215113Y-80540000D01*
X128255113Y-78460000D02*
X128255113Y-77211000D01*
X128255113Y-81789000D02*
X128255113Y-80540000D01*
X128295113Y-78460000D02*
X128295113Y-77191000D01*
X128295113Y-81809000D02*
X128295113Y-80540000D01*
X128335113Y-78460000D02*
X128335113Y-77171000D01*
X128335113Y-81829000D02*
X128335113Y-80540000D01*
X128375113Y-78460000D02*
X128375113Y-77153000D01*
X128375113Y-81847000D02*
X128375113Y-80540000D01*
X128415113Y-78460000D02*
X128415113Y-77135000D01*
X128415113Y-81865000D02*
X128415113Y-80540000D01*
X128455113Y-78460000D02*
X128455113Y-77118000D01*
X128455113Y-81882000D02*
X128455113Y-80540000D01*
X128495113Y-78460000D02*
X128495113Y-77102000D01*
X128495113Y-81898000D02*
X128495113Y-80540000D01*
X128535113Y-78460000D02*
X128535113Y-77087000D01*
X128535113Y-81913000D02*
X128535113Y-80540000D01*
X128575113Y-78460000D02*
X128575113Y-77072000D01*
X128575113Y-81928000D02*
X128575113Y-80540000D01*
X128615113Y-78460000D02*
X128615113Y-77058000D01*
X128615113Y-81942000D02*
X128615113Y-80540000D01*
X128655113Y-78460000D02*
X128655113Y-77045000D01*
X128655113Y-81955000D02*
X128655113Y-80540000D01*
X128695113Y-78460000D02*
X128695113Y-77033000D01*
X128695113Y-81967000D02*
X128695113Y-80540000D01*
X128735113Y-78460000D02*
X128735113Y-77021000D01*
X128735113Y-81979000D02*
X128735113Y-80540000D01*
X128775113Y-78460000D02*
X128775113Y-77010000D01*
X128775113Y-81990000D02*
X128775113Y-80540000D01*
X128815113Y-78460000D02*
X128815113Y-76999000D01*
X128815113Y-82001000D02*
X128815113Y-80540000D01*
X128855113Y-78460000D02*
X128855113Y-76990000D01*
X128855113Y-82010000D02*
X128855113Y-80540000D01*
X128895113Y-78460000D02*
X128895113Y-76981000D01*
X128895113Y-82019000D02*
X128895113Y-80540000D01*
X128935113Y-78460000D02*
X128935113Y-76972000D01*
X128935113Y-82028000D02*
X128935113Y-80540000D01*
X128975113Y-78460000D02*
X128975113Y-76964000D01*
X128975113Y-82036000D02*
X128975113Y-80540000D01*
X129015113Y-78460000D02*
X129015113Y-76957000D01*
X129015113Y-82043000D02*
X129015113Y-80540000D01*
X129055113Y-78460000D02*
X129055113Y-76951000D01*
X129055113Y-82049000D02*
X129055113Y-80540000D01*
X129095113Y-78460000D02*
X129095113Y-76945000D01*
X129095113Y-82055000D02*
X129095113Y-80540000D01*
X129135113Y-78460000D02*
X129135113Y-76940000D01*
X129135113Y-82060000D02*
X129135113Y-80540000D01*
X129175113Y-78460000D02*
X129175113Y-76935000D01*
X129175113Y-82065000D02*
X129175113Y-80540000D01*
X129215113Y-78460000D02*
X129215113Y-76931000D01*
X129215113Y-82069000D02*
X129215113Y-80540000D01*
X129255113Y-78460000D02*
X129255113Y-76928000D01*
X129255113Y-82072000D02*
X129255113Y-80540000D01*
X129295113Y-78460000D02*
X129295113Y-76925000D01*
X129295113Y-82075000D02*
X129295113Y-80540000D01*
X129335113Y-78460000D02*
X129335113Y-76923000D01*
X129335113Y-82077000D02*
X129335113Y-80540000D01*
X129375113Y-78460000D02*
X129375113Y-76921000D01*
X129375113Y-82079000D02*
X129375113Y-80540000D01*
X129415113Y-78460000D02*
X129415113Y-76920000D01*
X129415113Y-82080000D02*
X129415113Y-80540000D01*
X129455113Y-78460000D02*
X129455113Y-76920000D01*
X129455113Y-82080000D02*
X129455113Y-80540000D01*
X132009888Y-81225000D02*
X132009888Y-80725000D01*
X132259888Y-80975000D02*
X131759888Y-80975000D01*
X132075113Y-79500000D02*
G75*
G02*
X126835113Y-79500000I-2620000J0D01*
G01*
X126835113Y-79500000D02*
G75*
G02*
X132075113Y-79500000I2620000J0D01*
G01*
%TO.C,D5*%
X89210000Y-93764000D02*
X89210000Y-93920000D01*
X89210000Y-96080000D02*
X89210000Y-96236000D01*
X89210000Y-93764484D02*
G75*
G02*
X92441437Y-93920000I1560000J-1235516D01*
G01*
X89729039Y-93920000D02*
G75*
G02*
X91810961Y-93920000I1040961J-1080000D01*
G01*
X91810961Y-96080000D02*
G75*
G02*
X89729039Y-96080000I-1040961J1080000D01*
G01*
X92441437Y-96080000D02*
G75*
G02*
X89210000Y-96235516I-1671437J1080000D01*
G01*
%TO.C,D2*%
X109170000Y-46264000D02*
X109170000Y-46420000D01*
X109170000Y-48580000D02*
X109170000Y-48736000D01*
X109170000Y-46264484D02*
G75*
G02*
X112401437Y-46420000I1560000J-1235516D01*
G01*
X109689039Y-46420000D02*
G75*
G02*
X111770961Y-46420000I1040961J-1080000D01*
G01*
X111770961Y-48580000D02*
G75*
G02*
X109689039Y-48580000I-1040961J1080000D01*
G01*
X112401437Y-48580000D02*
G75*
G02*
X109170000Y-48735516I-1671437J1080000D01*
G01*
D13*
%TO.C,G\u002A\u002A\u002A*%
G36*
X139706279Y-44464157D02*
G01*
X140230755Y-44659941D01*
X140682977Y-44982587D01*
X141037668Y-45419793D01*
X141221220Y-45806292D01*
X141282808Y-46065931D01*
X141324770Y-46408697D01*
X141336516Y-46674297D01*
X141279515Y-47281345D01*
X141098716Y-47900384D01*
X140785825Y-48551610D01*
X140332547Y-49255220D01*
X140204295Y-49430974D01*
X140195043Y-49570109D01*
X140289452Y-49829593D01*
X140411983Y-50074451D01*
X140573964Y-50404356D01*
X140661951Y-50679103D01*
X140697688Y-50983199D01*
X140703039Y-51205565D01*
X140692185Y-51565223D01*
X140640859Y-51853032D01*
X140529417Y-52152212D01*
X140429810Y-52363102D01*
X140039457Y-52969013D01*
X139505477Y-53504243D01*
X138844278Y-53953458D01*
X138583297Y-54088749D01*
X137955352Y-54390779D01*
X137955352Y-54920689D01*
X137940751Y-55256345D01*
X137881745Y-55505563D01*
X137755530Y-55749857D01*
X137698679Y-55838105D01*
X137329719Y-56289369D01*
X136876899Y-56643290D01*
X136322381Y-56908162D01*
X135648329Y-57092277D01*
X134836906Y-57203928D01*
X134744463Y-57211670D01*
X134415306Y-57243017D01*
X134202226Y-57287244D01*
X134052192Y-57366019D01*
X133912176Y-57501009D01*
X133843508Y-57579787D01*
X133404800Y-57964855D01*
X132823982Y-58263049D01*
X132105679Y-58472012D01*
X132083129Y-58476659D01*
X131699869Y-58550741D01*
X131417731Y-58588693D01*
X131172842Y-58592466D01*
X130901328Y-58564012D01*
X130631685Y-58520988D01*
X130013309Y-58374905D01*
X129416788Y-58157526D01*
X128880843Y-57887772D01*
X128444193Y-57584567D01*
X128190171Y-57327814D01*
X128051306Y-57185618D01*
X127868257Y-57083593D01*
X127593115Y-56999742D01*
X127366220Y-56949480D01*
X126668070Y-56746523D01*
X126101935Y-56449139D01*
X125654652Y-56050063D01*
X125585566Y-55966640D01*
X125199326Y-55349038D01*
X124957375Y-54675566D01*
X124854417Y-53969715D01*
X124864234Y-53741417D01*
X125739509Y-53741417D01*
X125788673Y-54423533D01*
X125942448Y-54979662D01*
X126206544Y-55421267D01*
X126586670Y-55759808D01*
X126808326Y-55887224D01*
X127256463Y-56070306D01*
X127660256Y-56132260D01*
X128086174Y-56079998D01*
X128249181Y-56037048D01*
X128737070Y-55825668D01*
X129105398Y-55520271D01*
X129341509Y-55140013D01*
X129432750Y-54704051D01*
X129388916Y-54311732D01*
X129204563Y-53884025D01*
X128905860Y-53559668D01*
X128518172Y-53362307D01*
X128327301Y-53321969D01*
X127987972Y-53263630D01*
X127783085Y-53182296D01*
X127677755Y-53056763D01*
X127641067Y-52904804D01*
X127654231Y-52664783D01*
X127775943Y-52516129D01*
X128025858Y-52444196D01*
X128276030Y-52431631D01*
X128842194Y-52509564D01*
X129341874Y-52731109D01*
X129757895Y-53077882D01*
X130073082Y-53531497D01*
X130270257Y-54073572D01*
X130332665Y-54632964D01*
X130264311Y-55246939D01*
X130053087Y-55776236D01*
X129693460Y-56230212D01*
X129179894Y-56618226D01*
X129147309Y-56637699D01*
X128979464Y-56748845D01*
X128899061Y-56825719D01*
X128897826Y-56831385D01*
X128968800Y-56916836D01*
X129148898Y-57049968D01*
X129395199Y-57203931D01*
X129664780Y-57351872D01*
X129912018Y-57465864D01*
X130505729Y-57644513D01*
X131133159Y-57710897D01*
X131837687Y-57668431D01*
X132067080Y-57635533D01*
X132363965Y-57558688D01*
X132678835Y-57435370D01*
X132744413Y-57402976D01*
X133087018Y-57223791D01*
X132663685Y-57121839D01*
X132369943Y-57059857D01*
X132109192Y-57019264D01*
X132020640Y-57011758D01*
X131760533Y-56927605D01*
X131584632Y-56728351D01*
X131534077Y-56461790D01*
X131535505Y-56448158D01*
X131580565Y-56262965D01*
X131680372Y-56148996D01*
X131861263Y-56099845D01*
X132149571Y-56109106D01*
X132571632Y-56170373D01*
X132633435Y-56181076D01*
X133294623Y-56287954D01*
X133836527Y-56352633D01*
X134303162Y-56377722D01*
X134738540Y-56365826D01*
X135119018Y-56328320D01*
X135796930Y-56190787D01*
X136346069Y-55967072D01*
X136759095Y-55661768D01*
X137028667Y-55279470D01*
X137099727Y-55088803D01*
X137143727Y-54835956D01*
X137083402Y-54702624D01*
X136902165Y-54673982D01*
X136678152Y-54711996D01*
X136394541Y-54757104D01*
X136026796Y-54789053D01*
X135696566Y-54800227D01*
X135279755Y-54778126D01*
X135007669Y-54702461D01*
X134861674Y-54564248D01*
X134822685Y-54378964D01*
X134860618Y-54205092D01*
X134989625Y-54080031D01*
X135232514Y-53993086D01*
X135612097Y-53933561D01*
X135813191Y-53914544D01*
X136741686Y-53788573D01*
X137571160Y-53576692D01*
X138291060Y-53285354D01*
X138890834Y-52921012D01*
X139359930Y-52490120D01*
X139687794Y-51999130D01*
X139863875Y-51454495D01*
X139867000Y-51435539D01*
X139874839Y-51159499D01*
X139828650Y-50861667D01*
X139743406Y-50589799D01*
X139634081Y-50391646D01*
X139515649Y-50314964D01*
X139515628Y-50314964D01*
X139393542Y-50363555D01*
X139182744Y-50491613D01*
X138926543Y-50672562D01*
X138899161Y-50693251D01*
X138505691Y-50967149D01*
X138045962Y-51246793D01*
X137552821Y-51516251D01*
X137059115Y-51759592D01*
X136597690Y-51960885D01*
X136201393Y-52104199D01*
X135903071Y-52173602D01*
X135838704Y-52177631D01*
X135676462Y-52111548D01*
X135532051Y-51962125D01*
X135450149Y-51716806D01*
X135528850Y-51495426D01*
X135759605Y-51314138D01*
X135908638Y-51250693D01*
X136804917Y-50880459D01*
X137644501Y-50427697D01*
X138408966Y-49908220D01*
X139079885Y-49337843D01*
X139638834Y-48732380D01*
X140067388Y-48107644D01*
X140347122Y-47479450D01*
X140363141Y-47427432D01*
X140480562Y-46835165D01*
X140461300Y-46321647D01*
X140308081Y-45896043D01*
X140023628Y-45567517D01*
X139762541Y-45407009D01*
X139515103Y-45303858D01*
X139313716Y-45242443D01*
X139257264Y-45234964D01*
X138901300Y-45297076D01*
X138451770Y-45476631D01*
X137926411Y-45763460D01*
X137342959Y-46147391D01*
X136719153Y-46618254D01*
X136428746Y-46856850D01*
X135349307Y-47711465D01*
X134285512Y-48435473D01*
X133201725Y-49046842D01*
X132062308Y-49563541D01*
X130831624Y-50003538D01*
X129474036Y-50384803D01*
X129390657Y-50405491D01*
X128951321Y-50516490D01*
X128534411Y-50626609D01*
X128187870Y-50722899D01*
X127964685Y-50790709D01*
X127280719Y-51098672D01*
X126694545Y-51524431D01*
X126226928Y-52050338D01*
X125975179Y-52481378D01*
X125856591Y-52756909D01*
X125785558Y-53006646D01*
X125750473Y-53292646D01*
X125739730Y-53676963D01*
X125739509Y-53741417D01*
X124864234Y-53741417D01*
X124885152Y-53254972D01*
X125044284Y-52554827D01*
X125326516Y-51892767D01*
X125726549Y-51292282D01*
X126239087Y-50776861D01*
X126846345Y-50376433D01*
X127187641Y-50210255D01*
X127547937Y-50059576D01*
X127958389Y-49913936D01*
X128450149Y-49762874D01*
X129054371Y-49595932D01*
X129573352Y-49460843D01*
X130601614Y-49169691D01*
X131542688Y-48838739D01*
X132429894Y-48450829D01*
X133296552Y-47988801D01*
X134175982Y-47435496D01*
X135101506Y-46773755D01*
X135721997Y-46294450D01*
X136382129Y-45781343D01*
X136937922Y-45371234D01*
X137408933Y-45051695D01*
X137814717Y-44810295D01*
X138174831Y-44634606D01*
X138508832Y-44512198D01*
X138541670Y-44502373D01*
X139134825Y-44407534D01*
X139706279Y-44464157D01*
G37*
G36*
X108316349Y-44498717D02*
G01*
X108830183Y-44659573D01*
X108923496Y-44701324D01*
X109384297Y-44951628D01*
X109926062Y-45299927D01*
X110513247Y-45721340D01*
X111110305Y-46190984D01*
X111399595Y-46434537D01*
X112343901Y-47168305D01*
X113405182Y-47851156D01*
X114532282Y-48452347D01*
X115382245Y-48828032D01*
X115715005Y-48950206D01*
X116168078Y-49100231D01*
X116697611Y-49264434D01*
X117259754Y-49429142D01*
X117710579Y-49553993D01*
X118573067Y-49800026D01*
X119288284Y-50037535D01*
X119877325Y-50276050D01*
X120361287Y-50525100D01*
X120761266Y-50794216D01*
X121082890Y-51077359D01*
X121545199Y-51635595D01*
X121866649Y-52252763D01*
X122053564Y-52947096D01*
X122112263Y-53736823D01*
X122104482Y-54023359D01*
X122076284Y-54445048D01*
X122031731Y-54756455D01*
X121957554Y-55016603D01*
X121840484Y-55284515D01*
X121804934Y-55355731D01*
X121552191Y-55759350D01*
X121222932Y-56153063D01*
X120866060Y-56483904D01*
X120593640Y-56667664D01*
X120346738Y-56770452D01*
X120014857Y-56873259D01*
X119671916Y-56956384D01*
X119391833Y-57000125D01*
X119336866Y-57002626D01*
X119146622Y-57068688D01*
X118881659Y-57254233D01*
X118682016Y-57430512D01*
X118074840Y-57899748D01*
X117384851Y-58251704D01*
X116656178Y-58466259D01*
X116304448Y-58514631D01*
X115950171Y-58538987D01*
X115629719Y-58551668D01*
X115407020Y-58550253D01*
X115391685Y-58549170D01*
X115020953Y-58500492D01*
X114615988Y-58419048D01*
X114242775Y-58320277D01*
X113967298Y-58219620D01*
X113952352Y-58212392D01*
X113758626Y-58087456D01*
X113505424Y-57886803D01*
X113275018Y-57679517D01*
X112851685Y-57272776D01*
X111989691Y-57181533D01*
X111558283Y-57122357D01*
X111128608Y-57040704D01*
X110768328Y-56950279D01*
X110641898Y-56908530D01*
X110114683Y-56636878D01*
X109663877Y-56259164D01*
X109312509Y-55805217D01*
X109083607Y-55304866D01*
X109000202Y-54787939D01*
X109000179Y-54782075D01*
X108999352Y-54380854D01*
X108340408Y-54049544D01*
X107646191Y-53634860D01*
X107081900Y-53158385D01*
X106663987Y-52634627D01*
X106587272Y-52503457D01*
X106454597Y-52229984D01*
X106373284Y-51966482D01*
X106327850Y-51647977D01*
X106307872Y-51330964D01*
X106296211Y-50966633D01*
X106308646Y-50711338D01*
X106356534Y-50505261D01*
X106451229Y-50288584D01*
X106536606Y-50126064D01*
X106671534Y-49862852D01*
X106765943Y-49654312D01*
X106798018Y-49552523D01*
X106752873Y-49441133D01*
X106635272Y-49238966D01*
X106492333Y-49021756D01*
X106093315Y-48343298D01*
X105819632Y-47655760D01*
X105675087Y-46981626D01*
X105668010Y-46592299D01*
X106471688Y-46592299D01*
X106498787Y-46847273D01*
X106535449Y-47037419D01*
X106774149Y-47779012D01*
X107175088Y-48491675D01*
X107732664Y-49168910D01*
X108441273Y-49804220D01*
X109295314Y-50391108D01*
X109561566Y-50546905D01*
X109929188Y-50741803D01*
X110320200Y-50929044D01*
X110652103Y-51069194D01*
X110662232Y-51072984D01*
X111069500Y-51237299D01*
X111335436Y-51380372D01*
X111483646Y-51519288D01*
X111537738Y-51671136D01*
X111539352Y-51707868D01*
X111469943Y-51967740D01*
X111283291Y-52122356D01*
X111011756Y-52145784D01*
X110996326Y-52143007D01*
X110617996Y-52035026D01*
X110145059Y-51847082D01*
X109618859Y-51600159D01*
X109080742Y-51315245D01*
X108572051Y-51013326D01*
X108134130Y-50715388D01*
X108035792Y-50640242D01*
X107798954Y-50468228D01*
X107601593Y-50350325D01*
X107502305Y-50314964D01*
X107382663Y-50391841D01*
X107270793Y-50591884D01*
X107184269Y-50869207D01*
X107140664Y-51177927D01*
X107138544Y-51264744D01*
X107223318Y-51770132D01*
X107462526Y-52253763D01*
X107841361Y-52699388D01*
X108345012Y-53090760D01*
X108958670Y-53411632D01*
X109171459Y-53495169D01*
X109821739Y-53685969D01*
X110589337Y-53832952D01*
X111243018Y-53911337D01*
X111644885Y-53957000D01*
X111906023Y-54016950D01*
X112055032Y-54106233D01*
X112120514Y-54239893D01*
X112132018Y-54378964D01*
X112109677Y-54570686D01*
X112025864Y-54697475D01*
X111855399Y-54768527D01*
X111573101Y-54793033D01*
X111153787Y-54780188D01*
X111050321Y-54773885D01*
X110676633Y-54748703D01*
X110353236Y-54724691D01*
X110126797Y-54705419D01*
X110060929Y-54698194D01*
X109916242Y-54734126D01*
X109861527Y-54872344D01*
X109886557Y-55078626D01*
X109981107Y-55318750D01*
X110134951Y-55558494D01*
X110337862Y-55763637D01*
X110390973Y-55802722D01*
X110769941Y-56031550D01*
X111154482Y-56190095D01*
X111586573Y-56288506D01*
X112108192Y-56336931D01*
X112640018Y-56346428D01*
X113185083Y-56331305D01*
X113724787Y-56293627D01*
X114193288Y-56238670D01*
X114375685Y-56207279D01*
X114761488Y-56131844D01*
X115016426Y-56091703D01*
X115175761Y-56089361D01*
X115274756Y-56127323D01*
X115348675Y-56208094D01*
X115396754Y-56279818D01*
X115497601Y-56499065D01*
X115475185Y-56678813D01*
X115318370Y-56829004D01*
X115016021Y-56959575D01*
X114557002Y-57080468D01*
X114481518Y-57096781D01*
X114221775Y-57161431D01*
X114045154Y-57223811D01*
X113994685Y-57261910D01*
X114072019Y-57349242D01*
X114277088Y-57446301D01*
X114569491Y-57542702D01*
X114908830Y-57628060D01*
X115254703Y-57691990D01*
X115566712Y-57724107D01*
X115772685Y-57718953D01*
X115983659Y-57691632D01*
X116272944Y-57653807D01*
X116407685Y-57636093D01*
X116726628Y-57566181D01*
X117077507Y-57445499D01*
X117423043Y-57292802D01*
X117725960Y-57126846D01*
X117948980Y-56966390D01*
X118054826Y-56830188D01*
X118058685Y-56805374D01*
X117991844Y-56734796D01*
X117830579Y-56635819D01*
X117825852Y-56633360D01*
X117455838Y-56373309D01*
X117107685Y-56007843D01*
X116856244Y-55629569D01*
X116696977Y-55169153D01*
X116649752Y-54640165D01*
X116712921Y-54099527D01*
X116884838Y-53604162D01*
X116916604Y-53543283D01*
X117273837Y-53046439D01*
X117722494Y-52691883D01*
X118258976Y-52481839D01*
X118732366Y-52419887D01*
X119051956Y-52429226D01*
X119242029Y-52499314D01*
X119337684Y-52651206D01*
X119365404Y-52799632D01*
X119327054Y-53034257D01*
X119146862Y-53196523D01*
X118816992Y-53292774D01*
X118743348Y-53303297D01*
X118293729Y-53438005D01*
X117931264Y-53703174D01*
X117680945Y-54074362D01*
X117576355Y-54444680D01*
X117562825Y-54850562D01*
X117661212Y-55183317D01*
X117892604Y-55512673D01*
X117902852Y-55524405D01*
X118294187Y-55849923D01*
X118759503Y-56045992D01*
X119263853Y-56112811D01*
X119772289Y-56050577D01*
X120249866Y-55859491D01*
X120661637Y-55539751D01*
X120690751Y-55508551D01*
X121001019Y-55048619D01*
X121198642Y-54496639D01*
X121281482Y-53888866D01*
X121247403Y-53261556D01*
X121094266Y-52650964D01*
X120885768Y-52200910D01*
X120604059Y-51803949D01*
X120241032Y-51459886D01*
X119778761Y-51158768D01*
X119199318Y-50890642D01*
X118484779Y-50645557D01*
X117704728Y-50434825D01*
X116303941Y-50038776D01*
X114957439Y-49554826D01*
X113707010Y-48999003D01*
X113021018Y-48638111D01*
X112557845Y-48353607D01*
X111996921Y-47968086D01*
X111361872Y-47498606D01*
X110676324Y-46962223D01*
X110481018Y-46804388D01*
X109809543Y-46275467D01*
X109237382Y-45865225D01*
X108750428Y-45566608D01*
X108334573Y-45372559D01*
X107975709Y-45276022D01*
X107659731Y-45269943D01*
X107485948Y-45306453D01*
X107059929Y-45497437D01*
X106757680Y-45789344D01*
X106577975Y-46134114D01*
X106496878Y-46380201D01*
X106471688Y-46592299D01*
X105668010Y-46592299D01*
X105663485Y-46343380D01*
X105788631Y-45763507D01*
X105898530Y-45512238D01*
X106111591Y-45214761D01*
X106422214Y-44910780D01*
X106770549Y-44656196D01*
X106882685Y-44593011D01*
X107292488Y-44462776D01*
X107787079Y-44432231D01*
X108316349Y-44498717D01*
G37*
%TO.C,D3*%
D11*
X92290000Y-67920000D02*
X92290000Y-67764000D01*
X92290000Y-70236000D02*
X92290000Y-70080000D01*
X89058563Y-67920000D02*
G75*
G02*
X92290000Y-67764484I1671437J-1080000D01*
G01*
X89689039Y-67920000D02*
G75*
G02*
X91770961Y-67920000I1040961J-1080000D01*
G01*
X91770961Y-70080000D02*
G75*
G02*
X89689039Y-70080000I-1040961J1080000D01*
G01*
X92290000Y-70235516D02*
G75*
G02*
X89058563Y-70080000I-1560000J1235516D01*
G01*
%TO.C,R2*%
X127420000Y-60130000D02*
X127420000Y-60460000D01*
X127420000Y-62870000D02*
X127420000Y-62540000D01*
X133960000Y-60130000D02*
X127420000Y-60130000D01*
X133960000Y-60460000D02*
X133960000Y-60130000D01*
X133960000Y-62540000D02*
X133960000Y-62870000D01*
X133960000Y-62870000D02*
X127420000Y-62870000D01*
D13*
%TO.C,G\u002A\u002A\u002A*%
G36*
X122114849Y-108245028D02*
G01*
X121955717Y-108945173D01*
X121673485Y-109607233D01*
X121273452Y-110207718D01*
X120760914Y-110723139D01*
X120153656Y-111123567D01*
X119812360Y-111289745D01*
X119452064Y-111440424D01*
X119041612Y-111586064D01*
X118549852Y-111737126D01*
X117945630Y-111904068D01*
X117426649Y-112039157D01*
X116398387Y-112330309D01*
X115457313Y-112661261D01*
X114570107Y-113049171D01*
X113703449Y-113511199D01*
X112824019Y-114064504D01*
X111898495Y-114726245D01*
X111278004Y-115205550D01*
X110617872Y-115718657D01*
X110062079Y-116128766D01*
X109591068Y-116448305D01*
X109185284Y-116689705D01*
X108825170Y-116865394D01*
X108491169Y-116987802D01*
X108458331Y-116997627D01*
X107865176Y-117092466D01*
X107293722Y-117035843D01*
X106769246Y-116840059D01*
X106317024Y-116517413D01*
X105962333Y-116080207D01*
X105778781Y-115693708D01*
X105717193Y-115434069D01*
X105675231Y-115091303D01*
X105663485Y-114825703D01*
X105678590Y-114664835D01*
X106519439Y-114664835D01*
X106538701Y-115178353D01*
X106691920Y-115603957D01*
X106976373Y-115932483D01*
X107237460Y-116092991D01*
X107484898Y-116196142D01*
X107686285Y-116257557D01*
X107742737Y-116265036D01*
X108098701Y-116202924D01*
X108548231Y-116023369D01*
X109073590Y-115736540D01*
X109657042Y-115352609D01*
X110280848Y-114881746D01*
X110571255Y-114643150D01*
X111650694Y-113788535D01*
X112714489Y-113064527D01*
X113798276Y-112453158D01*
X114937693Y-111936459D01*
X116168377Y-111496462D01*
X117525965Y-111115197D01*
X117609344Y-111094509D01*
X118048680Y-110983510D01*
X118465590Y-110873391D01*
X118812131Y-110777101D01*
X119035316Y-110709291D01*
X119719282Y-110401328D01*
X120305456Y-109975569D01*
X120773073Y-109449662D01*
X121024822Y-109018622D01*
X121143410Y-108743091D01*
X121214443Y-108493354D01*
X121249528Y-108207354D01*
X121260271Y-107823037D01*
X121260492Y-107758583D01*
X121211328Y-107076467D01*
X121057553Y-106520338D01*
X120793457Y-106078733D01*
X120413331Y-105740192D01*
X120191675Y-105612776D01*
X119743538Y-105429694D01*
X119339745Y-105367740D01*
X118913827Y-105420002D01*
X118750820Y-105462952D01*
X118262931Y-105674332D01*
X117894603Y-105979729D01*
X117658492Y-106359987D01*
X117567251Y-106795949D01*
X117611085Y-107188268D01*
X117795438Y-107615975D01*
X118094141Y-107940332D01*
X118481829Y-108137693D01*
X118672700Y-108178031D01*
X119012029Y-108236370D01*
X119216916Y-108317704D01*
X119322246Y-108443237D01*
X119358934Y-108595196D01*
X119345770Y-108835217D01*
X119224058Y-108983871D01*
X118974143Y-109055804D01*
X118723971Y-109068369D01*
X118157807Y-108990436D01*
X117658127Y-108768891D01*
X117242106Y-108422118D01*
X116926919Y-107968503D01*
X116729744Y-107426428D01*
X116667336Y-106867036D01*
X116735690Y-106253061D01*
X116946914Y-105723764D01*
X117306541Y-105269788D01*
X117820107Y-104881774D01*
X117852692Y-104862301D01*
X118020537Y-104751155D01*
X118100940Y-104674281D01*
X118102175Y-104668615D01*
X118031201Y-104583164D01*
X117851103Y-104450032D01*
X117604802Y-104296069D01*
X117335221Y-104148128D01*
X117087983Y-104034136D01*
X116494272Y-103855487D01*
X115866842Y-103789103D01*
X115162314Y-103831569D01*
X114932921Y-103864467D01*
X114636036Y-103941312D01*
X114321166Y-104064630D01*
X114255588Y-104097024D01*
X113912983Y-104276209D01*
X114336316Y-104378161D01*
X114630058Y-104440143D01*
X114890809Y-104480736D01*
X114979361Y-104488242D01*
X115239468Y-104572395D01*
X115415369Y-104771649D01*
X115465924Y-105038210D01*
X115464496Y-105051842D01*
X115419436Y-105237035D01*
X115319629Y-105351004D01*
X115138738Y-105400155D01*
X114850430Y-105390894D01*
X114428369Y-105329627D01*
X114366566Y-105318924D01*
X113705378Y-105212046D01*
X113163474Y-105147367D01*
X112696839Y-105122278D01*
X112261461Y-105134174D01*
X111880983Y-105171680D01*
X111203071Y-105309213D01*
X110653932Y-105532928D01*
X110240906Y-105838232D01*
X109971334Y-106220530D01*
X109900274Y-106411197D01*
X109856274Y-106664044D01*
X109916599Y-106797376D01*
X110097836Y-106826018D01*
X110321849Y-106788004D01*
X110605460Y-106742896D01*
X110973205Y-106710947D01*
X111303435Y-106699773D01*
X111720246Y-106721874D01*
X111992332Y-106797539D01*
X112138327Y-106935752D01*
X112177316Y-107121036D01*
X112139383Y-107294908D01*
X112010376Y-107419969D01*
X111767487Y-107506914D01*
X111387904Y-107566439D01*
X111186810Y-107585456D01*
X110258315Y-107711427D01*
X109428841Y-107923308D01*
X108708941Y-108214646D01*
X108109167Y-108578988D01*
X107640071Y-109009880D01*
X107312207Y-109500870D01*
X107136126Y-110045505D01*
X107133001Y-110064461D01*
X107125162Y-110340501D01*
X107171351Y-110638333D01*
X107256595Y-110910201D01*
X107365920Y-111108354D01*
X107484352Y-111185036D01*
X107484373Y-111185036D01*
X107606459Y-111136445D01*
X107817257Y-111008387D01*
X108073458Y-110827438D01*
X108100840Y-110806749D01*
X108494310Y-110532851D01*
X108954039Y-110253207D01*
X109447180Y-109983749D01*
X109940886Y-109740408D01*
X110402311Y-109539115D01*
X110798608Y-109395801D01*
X111096930Y-109326398D01*
X111161297Y-109322369D01*
X111323539Y-109388452D01*
X111467950Y-109537875D01*
X111549852Y-109783194D01*
X111471151Y-110004574D01*
X111240396Y-110185862D01*
X111091363Y-110249307D01*
X110195084Y-110619541D01*
X109355500Y-111072303D01*
X108591035Y-111591780D01*
X107920116Y-112162157D01*
X107361167Y-112767620D01*
X106932613Y-113392356D01*
X106652879Y-114020550D01*
X106636860Y-114072568D01*
X106519439Y-114664835D01*
X105678590Y-114664835D01*
X105720486Y-114218655D01*
X105901285Y-113599616D01*
X106214176Y-112948390D01*
X106667454Y-112244780D01*
X106795706Y-112069026D01*
X106804958Y-111929891D01*
X106710549Y-111670407D01*
X106588018Y-111425549D01*
X106426037Y-111095644D01*
X106338050Y-110820897D01*
X106302313Y-110516801D01*
X106296962Y-110294435D01*
X106307816Y-109934777D01*
X106359142Y-109646968D01*
X106470584Y-109347788D01*
X106570191Y-109136898D01*
X106960544Y-108530987D01*
X107494524Y-107995757D01*
X108155723Y-107546542D01*
X108416704Y-107411251D01*
X109044649Y-107109221D01*
X109044649Y-106579311D01*
X109059250Y-106243655D01*
X109118256Y-105994437D01*
X109244471Y-105750143D01*
X109301322Y-105661895D01*
X109670282Y-105210631D01*
X110123102Y-104856710D01*
X110677620Y-104591838D01*
X111351672Y-104407723D01*
X112163095Y-104296072D01*
X112255538Y-104288330D01*
X112584695Y-104256983D01*
X112797775Y-104212756D01*
X112947809Y-104133981D01*
X113087825Y-103998991D01*
X113156493Y-103920213D01*
X113595201Y-103535145D01*
X114176019Y-103236951D01*
X114894322Y-103027988D01*
X114916872Y-103023341D01*
X115300132Y-102949259D01*
X115582270Y-102911307D01*
X115827159Y-102907534D01*
X116098673Y-102935988D01*
X116368316Y-102979012D01*
X116986692Y-103125095D01*
X117583213Y-103342474D01*
X118119158Y-103612228D01*
X118555808Y-103915433D01*
X118809830Y-104172186D01*
X118948695Y-104314382D01*
X119131744Y-104416407D01*
X119406886Y-104500258D01*
X119633781Y-104550520D01*
X120331931Y-104753477D01*
X120898066Y-105050861D01*
X121345349Y-105449937D01*
X121414435Y-105533360D01*
X121800675Y-106150962D01*
X122042626Y-106824434D01*
X122145584Y-107530285D01*
X122135767Y-107758583D01*
X122114849Y-108245028D01*
G37*
G36*
X141336516Y-115156620D02*
G01*
X141211370Y-115736493D01*
X141101471Y-115987762D01*
X140888410Y-116285239D01*
X140577787Y-116589220D01*
X140229452Y-116843804D01*
X140117316Y-116906989D01*
X139707513Y-117037224D01*
X139212922Y-117067769D01*
X138683652Y-117001283D01*
X138169818Y-116840427D01*
X138076505Y-116798676D01*
X137615704Y-116548372D01*
X137073939Y-116200073D01*
X136486754Y-115778660D01*
X135889696Y-115309016D01*
X135600406Y-115065463D01*
X134656100Y-114331695D01*
X133594819Y-113648844D01*
X132467719Y-113047653D01*
X131617756Y-112671968D01*
X131284996Y-112549794D01*
X130831923Y-112399769D01*
X130302390Y-112235566D01*
X129740247Y-112070858D01*
X129289422Y-111946007D01*
X128426934Y-111699974D01*
X127711717Y-111462465D01*
X127122676Y-111223950D01*
X126638714Y-110974900D01*
X126238735Y-110705784D01*
X125917111Y-110422641D01*
X125454802Y-109864405D01*
X125133352Y-109247237D01*
X124946437Y-108552904D01*
X124887738Y-107763177D01*
X124891867Y-107611134D01*
X125718519Y-107611134D01*
X125752598Y-108238444D01*
X125905735Y-108849036D01*
X126114233Y-109299090D01*
X126395942Y-109696051D01*
X126758969Y-110040114D01*
X127221240Y-110341232D01*
X127800683Y-110609358D01*
X128515222Y-110854443D01*
X129295273Y-111065175D01*
X130696060Y-111461224D01*
X132042562Y-111945174D01*
X133292991Y-112500997D01*
X133978983Y-112861889D01*
X134442156Y-113146393D01*
X135003080Y-113531914D01*
X135638129Y-114001394D01*
X136323677Y-114537777D01*
X136518983Y-114695612D01*
X137190458Y-115224533D01*
X137762619Y-115634775D01*
X138249573Y-115933392D01*
X138665428Y-116127441D01*
X139024292Y-116223978D01*
X139340270Y-116230057D01*
X139514053Y-116193547D01*
X139940072Y-116002563D01*
X140242321Y-115710656D01*
X140422026Y-115365886D01*
X140503123Y-115119799D01*
X140528313Y-114907701D01*
X140501214Y-114652727D01*
X140464552Y-114462581D01*
X140225852Y-113720988D01*
X139824913Y-113008325D01*
X139267337Y-112331090D01*
X138558728Y-111695780D01*
X137704687Y-111108892D01*
X137438435Y-110953095D01*
X137070813Y-110758197D01*
X136679801Y-110570956D01*
X136347898Y-110430806D01*
X136337769Y-110427016D01*
X135930501Y-110262701D01*
X135664565Y-110119628D01*
X135516355Y-109980712D01*
X135462263Y-109828864D01*
X135460649Y-109792132D01*
X135530058Y-109532260D01*
X135716710Y-109377644D01*
X135988245Y-109354216D01*
X136003675Y-109356993D01*
X136382005Y-109464974D01*
X136854942Y-109652918D01*
X137381142Y-109899841D01*
X137919259Y-110184755D01*
X138427950Y-110486674D01*
X138865871Y-110784612D01*
X138964209Y-110859758D01*
X139201047Y-111031772D01*
X139398408Y-111149675D01*
X139497696Y-111185036D01*
X139617338Y-111108159D01*
X139729208Y-110908116D01*
X139815732Y-110630793D01*
X139859337Y-110322073D01*
X139861457Y-110235256D01*
X139776683Y-109729868D01*
X139537475Y-109246237D01*
X139158640Y-108800612D01*
X138654989Y-108409240D01*
X138041331Y-108088368D01*
X137828542Y-108004831D01*
X137178262Y-107814031D01*
X136410664Y-107667048D01*
X135756983Y-107588663D01*
X135355116Y-107543000D01*
X135093978Y-107483050D01*
X134944969Y-107393767D01*
X134879487Y-107260107D01*
X134867983Y-107121036D01*
X134890324Y-106929314D01*
X134974137Y-106802525D01*
X135144602Y-106731473D01*
X135426900Y-106706967D01*
X135846214Y-106719812D01*
X135949680Y-106726115D01*
X136323368Y-106751297D01*
X136646765Y-106775309D01*
X136873204Y-106794581D01*
X136939072Y-106801806D01*
X137083759Y-106765874D01*
X137138474Y-106627656D01*
X137113444Y-106421374D01*
X137018894Y-106181250D01*
X136865050Y-105941506D01*
X136662139Y-105736363D01*
X136609028Y-105697278D01*
X136230060Y-105468450D01*
X135845519Y-105309905D01*
X135413428Y-105211494D01*
X134891809Y-105163069D01*
X134359983Y-105153572D01*
X133814918Y-105168695D01*
X133275214Y-105206373D01*
X132806713Y-105261330D01*
X132624316Y-105292721D01*
X132238513Y-105368156D01*
X131983575Y-105408297D01*
X131824240Y-105410639D01*
X131725245Y-105372677D01*
X131651326Y-105291906D01*
X131603247Y-105220182D01*
X131502400Y-105000935D01*
X131524816Y-104821187D01*
X131681631Y-104670996D01*
X131983980Y-104540425D01*
X132442999Y-104419532D01*
X132518483Y-104403219D01*
X132778226Y-104338569D01*
X132954847Y-104276189D01*
X133005316Y-104238090D01*
X132927982Y-104150758D01*
X132722913Y-104053699D01*
X132430510Y-103957298D01*
X132091171Y-103871940D01*
X131745298Y-103808010D01*
X131433289Y-103775893D01*
X131227316Y-103781047D01*
X131016342Y-103808368D01*
X130727057Y-103846193D01*
X130592316Y-103863907D01*
X130273373Y-103933819D01*
X129922494Y-104054501D01*
X129576958Y-104207198D01*
X129274041Y-104373154D01*
X129051021Y-104533610D01*
X128945175Y-104669812D01*
X128941316Y-104694626D01*
X129008157Y-104765204D01*
X129169422Y-104864181D01*
X129174149Y-104866640D01*
X129544163Y-105126691D01*
X129892316Y-105492157D01*
X130143757Y-105870431D01*
X130303024Y-106330847D01*
X130350249Y-106859835D01*
X130287080Y-107400473D01*
X130115163Y-107895838D01*
X130083397Y-107956717D01*
X129726164Y-108453561D01*
X129277507Y-108808117D01*
X128741025Y-109018161D01*
X128267635Y-109080113D01*
X127948045Y-109070774D01*
X127757972Y-109000686D01*
X127662317Y-108848794D01*
X127634597Y-108700368D01*
X127672947Y-108465743D01*
X127853139Y-108303477D01*
X128183009Y-108207226D01*
X128256653Y-108196703D01*
X128706272Y-108061995D01*
X129068737Y-107796826D01*
X129319056Y-107425638D01*
X129423646Y-107055320D01*
X129437176Y-106649438D01*
X129338789Y-106316683D01*
X129107397Y-105987327D01*
X129097149Y-105975595D01*
X128705814Y-105650077D01*
X128240498Y-105454008D01*
X127736148Y-105387189D01*
X127227712Y-105449423D01*
X126750135Y-105640509D01*
X126338364Y-105960249D01*
X126309250Y-105991449D01*
X125998982Y-106451381D01*
X125801359Y-107003361D01*
X125718519Y-107611134D01*
X124891867Y-107611134D01*
X124895519Y-107476641D01*
X124923717Y-107054952D01*
X124968270Y-106743545D01*
X125042447Y-106483397D01*
X125159517Y-106215485D01*
X125195067Y-106144269D01*
X125447810Y-105740650D01*
X125777069Y-105346937D01*
X126133941Y-105016096D01*
X126406361Y-104832336D01*
X126653263Y-104729548D01*
X126985144Y-104626741D01*
X127328085Y-104543616D01*
X127608168Y-104499875D01*
X127663135Y-104497374D01*
X127853379Y-104431312D01*
X128118342Y-104245767D01*
X128317985Y-104069488D01*
X128925161Y-103600252D01*
X129615150Y-103248296D01*
X130343823Y-103033741D01*
X130695553Y-102985369D01*
X131049830Y-102961013D01*
X131370282Y-102948332D01*
X131592981Y-102949747D01*
X131608316Y-102950830D01*
X131979048Y-102999508D01*
X132384013Y-103080952D01*
X132757226Y-103179723D01*
X133032703Y-103280380D01*
X133047649Y-103287608D01*
X133241375Y-103412544D01*
X133494577Y-103613197D01*
X133724983Y-103820483D01*
X134148316Y-104227224D01*
X135010310Y-104318467D01*
X135441718Y-104377643D01*
X135871393Y-104459296D01*
X136231673Y-104549721D01*
X136358103Y-104591470D01*
X136885318Y-104863122D01*
X137336124Y-105240836D01*
X137687492Y-105694783D01*
X137916394Y-106195134D01*
X137999799Y-106712061D01*
X137999822Y-106717925D01*
X138000649Y-107119146D01*
X138659593Y-107450456D01*
X139353810Y-107865140D01*
X139918101Y-108341615D01*
X140336014Y-108865373D01*
X140412729Y-108996543D01*
X140545404Y-109270016D01*
X140626717Y-109533518D01*
X140672151Y-109852023D01*
X140692129Y-110169036D01*
X140703790Y-110533367D01*
X140691355Y-110788662D01*
X140643467Y-110994739D01*
X140548772Y-111211416D01*
X140463395Y-111373936D01*
X140328467Y-111637148D01*
X140234058Y-111845688D01*
X140201983Y-111947477D01*
X140247128Y-112058867D01*
X140364729Y-112261034D01*
X140507668Y-112478244D01*
X140906686Y-113156702D01*
X141180369Y-113844240D01*
X141324914Y-114518374D01*
X141331991Y-114907701D01*
X141336516Y-115156620D01*
G37*
%TO.C,D7*%
D11*
X108710000Y-117264000D02*
X108710000Y-117420000D01*
X108710000Y-119580000D02*
X108710000Y-119736000D01*
X108710000Y-117264484D02*
G75*
G02*
X111941437Y-117420000I1560000J-1235516D01*
G01*
X109229039Y-117420000D02*
G75*
G02*
X111310961Y-117420000I1040961J-1080000D01*
G01*
X111310961Y-119580000D02*
G75*
G02*
X109229039Y-119580000I-1040961J1080000D01*
G01*
X111941437Y-119580000D02*
G75*
G02*
X108710000Y-119735516I-1671437J1080000D01*
G01*
D13*
%TO.C,G\u002A\u002A\u002A*%
G36*
X128199661Y-66840604D02*
G01*
X128338420Y-66850328D01*
X128708407Y-66887147D01*
X129076511Y-66937444D01*
X129407806Y-66994619D01*
X129667367Y-67052073D01*
X129820266Y-67103209D01*
X129842915Y-67134565D01*
X129745587Y-67152043D01*
X129519334Y-67164790D01*
X129205109Y-67170923D01*
X129050014Y-67171043D01*
X128618913Y-67185143D01*
X128211284Y-67226523D01*
X127897700Y-67287842D01*
X127881399Y-67292600D01*
X127619027Y-67369247D01*
X127463972Y-67401980D01*
X127361176Y-67396891D01*
X127259030Y-67361465D01*
X127157356Y-67260218D01*
X127197901Y-67120325D01*
X127368173Y-66973359D01*
X127425210Y-66941443D01*
X127622254Y-66865449D01*
X127862692Y-66833603D01*
X128199661Y-66840604D01*
G37*
G36*
X133963646Y-66813336D02*
G01*
X134033779Y-66842240D01*
X134231247Y-67003707D01*
X134280516Y-67181111D01*
X134199581Y-67355113D01*
X134006440Y-67506377D01*
X133719090Y-67615564D01*
X133355530Y-67663338D01*
X133269230Y-67663724D01*
X132939573Y-67646173D01*
X132627703Y-67610805D01*
X132504682Y-67588412D01*
X132228876Y-67533732D01*
X131901630Y-67478766D01*
X131803846Y-67464316D01*
X131569006Y-67417469D01*
X131423516Y-67362117D01*
X131400334Y-67334610D01*
X131475718Y-67277271D01*
X131668779Y-67209514D01*
X131826280Y-67170555D01*
X132152251Y-67087260D01*
X132468505Y-66985770D01*
X132566346Y-66947958D01*
X132916851Y-66839778D01*
X133305882Y-66778449D01*
X133674469Y-66768219D01*
X133963646Y-66813336D01*
G37*
G36*
X131363456Y-63296992D02*
G01*
X131825083Y-63378263D01*
X132685826Y-63678002D01*
X133459849Y-64119857D01*
X134076254Y-64626765D01*
X134566341Y-65138114D01*
X134945181Y-65647146D01*
X135235392Y-66196648D01*
X135459594Y-66829406D01*
X135639553Y-67583924D01*
X135782987Y-68302297D01*
X136118918Y-68331493D01*
X137008177Y-68492618D01*
X137855585Y-68812132D01*
X138637574Y-69279509D01*
X139109856Y-69667063D01*
X139607999Y-70173356D01*
X139986894Y-70674541D01*
X140284945Y-71228851D01*
X140499656Y-71774476D01*
X140692708Y-72562441D01*
X140758229Y-73415986D01*
X140699442Y-74292207D01*
X140519572Y-75148199D01*
X140221844Y-75941058D01*
X140180107Y-76026426D01*
X139685578Y-76846855D01*
X139075496Y-77585403D01*
X138376355Y-78214857D01*
X137614647Y-78708001D01*
X137524088Y-78754819D01*
X137128559Y-78940033D01*
X136733004Y-79091528D01*
X136295619Y-79221671D01*
X135774597Y-79342829D01*
X135128133Y-79467368D01*
X135095652Y-79473209D01*
X134701594Y-79544534D01*
X134188533Y-79638334D01*
X133604457Y-79745784D01*
X132997355Y-79858059D01*
X132504682Y-79949648D01*
X131950200Y-80052065D01*
X131411380Y-80149874D01*
X130926301Y-80236289D01*
X130533039Y-80304525D01*
X130274749Y-80347015D01*
X129988567Y-80399561D01*
X129783049Y-80453219D01*
X129701421Y-80496630D01*
X129701337Y-80497704D01*
X129777900Y-80543157D01*
X129977754Y-80600603D01*
X130232274Y-80652845D01*
X131156243Y-80816329D01*
X132063250Y-80979878D01*
X132935370Y-81140049D01*
X133754676Y-81293402D01*
X134503243Y-81436492D01*
X135163147Y-81565879D01*
X135716459Y-81678120D01*
X136145257Y-81769772D01*
X136431612Y-81837395D01*
X136501440Y-81856699D01*
X137403282Y-82213767D01*
X138232758Y-82713785D01*
X138973270Y-83339217D01*
X139608221Y-84072527D01*
X140121016Y-84896179D01*
X140495058Y-85792637D01*
X140609330Y-86197066D01*
X140739021Y-87037023D01*
X140740036Y-87914533D01*
X140617524Y-88782862D01*
X140376632Y-89595273D01*
X140188860Y-90014381D01*
X139729864Y-90724602D01*
X139137230Y-91348543D01*
X138430591Y-91873227D01*
X137629580Y-92285681D01*
X136753829Y-92572928D01*
X136143696Y-92687720D01*
X135747592Y-92740964D01*
X135687907Y-93174927D01*
X135481196Y-94108042D01*
X135134573Y-94965784D01*
X134659593Y-95734715D01*
X134067813Y-96401396D01*
X133370787Y-96952387D01*
X132580071Y-97374249D01*
X131870948Y-97614116D01*
X131395108Y-97696861D01*
X130819674Y-97736336D01*
X130209320Y-97732639D01*
X129628723Y-97685873D01*
X129197066Y-97609969D01*
X128372768Y-97334981D01*
X127563460Y-96923812D01*
X126811942Y-96404035D01*
X126161017Y-95803223D01*
X125880931Y-95473668D01*
X125645720Y-95157011D01*
X125442818Y-94849190D01*
X125265832Y-94530532D01*
X125108370Y-94181363D01*
X124964040Y-93782010D01*
X124826450Y-93312800D01*
X124689207Y-92754060D01*
X124545919Y-92086116D01*
X124390194Y-91289295D01*
X124217499Y-90354180D01*
X124056417Y-89467402D01*
X123922512Y-88734206D01*
X123812947Y-88140947D01*
X123724885Y-87673980D01*
X123655488Y-87319659D01*
X123601920Y-87064340D01*
X123561343Y-86894378D01*
X123530920Y-86796126D01*
X123507813Y-86755941D01*
X123489187Y-86760176D01*
X123475640Y-86786287D01*
X123441103Y-86911717D01*
X123383587Y-87174956D01*
X123302201Y-87580675D01*
X123196054Y-88133544D01*
X123064253Y-88838234D01*
X122905907Y-89699416D01*
X122720124Y-90721760D01*
X122648415Y-91118729D01*
X122488927Y-91974667D01*
X122342712Y-92686223D01*
X122201492Y-93277538D01*
X122056986Y-93772758D01*
X121900914Y-94196025D01*
X121724996Y-94571484D01*
X121520953Y-94923278D01*
X121280505Y-95275551D01*
X121172957Y-95421098D01*
X120602338Y-96056158D01*
X119908449Y-96626391D01*
X119133810Y-97104101D01*
X118320943Y-97461590D01*
X117808361Y-97612612D01*
X117355381Y-97686621D01*
X116812052Y-97726349D01*
X116237290Y-97731860D01*
X115690009Y-97703217D01*
X115229125Y-97640486D01*
X115096050Y-97609663D01*
X114273871Y-97305074D01*
X113513313Y-96859568D01*
X112836578Y-96293564D01*
X112265863Y-95627481D01*
X111823370Y-94881737D01*
X111636690Y-94427864D01*
X111518645Y-94036842D01*
X111420258Y-93619375D01*
X111367247Y-93298218D01*
X111309699Y-92777876D01*
X110587625Y-92629705D01*
X109786067Y-92430051D01*
X109112061Y-92177737D01*
X108526274Y-91851963D01*
X107989372Y-91431927D01*
X107603654Y-91051648D01*
X107052367Y-90348073D01*
X106647721Y-89583303D01*
X106385221Y-88773754D01*
X106260369Y-87935842D01*
X106268670Y-87085982D01*
X106405627Y-86240589D01*
X106666744Y-85416079D01*
X107047525Y-84628868D01*
X107543473Y-83895372D01*
X108150093Y-83232005D01*
X108862888Y-82655183D01*
X109677362Y-82181322D01*
X110081921Y-82003633D01*
X110351139Y-81917065D01*
X110776355Y-81807904D01*
X111345554Y-81678795D01*
X112046721Y-81532386D01*
X112867841Y-81371326D01*
X113437440Y-81264247D01*
X114355445Y-81094463D01*
X115119430Y-80953689D01*
X115742362Y-80839607D01*
X116237208Y-80749901D01*
X116616934Y-80682251D01*
X116894507Y-80634340D01*
X117082893Y-80603851D01*
X117195060Y-80588465D01*
X117234950Y-80585442D01*
X117298179Y-80521469D01*
X117298662Y-80512558D01*
X117222012Y-80462098D01*
X117021948Y-80401746D01*
X116767725Y-80349379D01*
X115491041Y-80128952D01*
X114370089Y-79930322D01*
X113392520Y-79750501D01*
X112545985Y-79586501D01*
X111818133Y-79435334D01*
X111196616Y-79294011D01*
X110669084Y-79159545D01*
X110223187Y-79028946D01*
X109846575Y-78899227D01*
X109526901Y-78767400D01*
X109251813Y-78630476D01*
X109008962Y-78485467D01*
X108976498Y-78464128D01*
X108397131Y-78011503D01*
X107833292Y-77448047D01*
X107326770Y-76822472D01*
X106919356Y-76183489D01*
X106778219Y-75901753D01*
X106480041Y-75107379D01*
X106313799Y-74309794D01*
X106268542Y-73451313D01*
X106273873Y-73244908D01*
X106377039Y-72311047D01*
X106615128Y-71473753D01*
X106994731Y-70718250D01*
X107522438Y-70029763D01*
X107858566Y-69692403D01*
X108591544Y-69126273D01*
X109404206Y-68709659D01*
X110291271Y-68444949D01*
X110790490Y-68366979D01*
X111309699Y-68309699D01*
X111366979Y-67790490D01*
X111549947Y-66867184D01*
X111883618Y-66017742D01*
X112361833Y-65252270D01*
X112978433Y-64580874D01*
X113631110Y-64075568D01*
X114238526Y-63722200D01*
X114834758Y-63482593D01*
X115476822Y-63338993D01*
X116203880Y-63274362D01*
X116699267Y-63263733D01*
X117097688Y-63282856D01*
X117470449Y-63338034D01*
X117815535Y-63416761D01*
X118773289Y-63742551D01*
X119651707Y-64209938D01*
X120435654Y-64806801D01*
X121109998Y-65521020D01*
X121659606Y-66340473D01*
X121799062Y-66607380D01*
X121897276Y-66811101D01*
X121982650Y-67001522D01*
X122059301Y-67196106D01*
X122131349Y-67412317D01*
X122202912Y-67667619D01*
X122278108Y-67979477D01*
X122361056Y-68365353D01*
X122455875Y-68842712D01*
X122566684Y-69429017D01*
X122697600Y-70141733D01*
X122852742Y-70998323D01*
X122911737Y-71325418D01*
X123035540Y-72008586D01*
X123150723Y-72637293D01*
X123253667Y-73192320D01*
X123340756Y-73654448D01*
X123408372Y-74004459D01*
X123452898Y-74223134D01*
X123470031Y-74291583D01*
X123522465Y-74300441D01*
X123573632Y-74184001D01*
X123630278Y-73923742D01*
X123654204Y-73785915D01*
X123779433Y-73050421D01*
X123915843Y-72277928D01*
X124059158Y-71490328D01*
X124205099Y-70709516D01*
X124223144Y-70615454D01*
X125229871Y-70615454D01*
X125236954Y-70627143D01*
X125329829Y-70614613D01*
X125495401Y-70520587D01*
X125530238Y-70495679D01*
X125730221Y-70376690D01*
X125840257Y-70393701D01*
X125878059Y-70551276D01*
X125878595Y-70585429D01*
X125897508Y-70698343D01*
X125981465Y-70665403D01*
X126012229Y-70640666D01*
X126134980Y-70495979D01*
X126275266Y-70273021D01*
X126311231Y-70205610D01*
X126577992Y-69857030D01*
X126974721Y-69572829D01*
X127466127Y-69377938D01*
X127492642Y-69370962D01*
X127822560Y-69260840D01*
X128153854Y-69113032D01*
X128214715Y-69080138D01*
X128506670Y-68933533D01*
X128849729Y-68786757D01*
X128989707Y-68734381D01*
X129316760Y-68589036D01*
X129665721Y-68389145D01*
X129830414Y-68275561D01*
X130068798Y-68096174D01*
X130263000Y-67950563D01*
X130348446Y-67886937D01*
X130454915Y-67875280D01*
X130616970Y-67976791D01*
X130816850Y-68163418D01*
X131188020Y-68463085D01*
X131520148Y-68606851D01*
X131802541Y-68698381D01*
X132131422Y-68837075D01*
X132292307Y-68916970D01*
X132590219Y-69074559D01*
X132957871Y-69267638D01*
X133304284Y-69448473D01*
X133647474Y-69643769D01*
X133888343Y-69833233D01*
X134084792Y-70067554D01*
X134186788Y-70221070D01*
X134363343Y-70491611D01*
X134523637Y-70722314D01*
X134616884Y-70843583D01*
X134722985Y-70948133D01*
X134785947Y-70914040D01*
X134831099Y-70820940D01*
X134948813Y-70689601D01*
X135066786Y-70692613D01*
X135179564Y-70715148D01*
X135210617Y-70669611D01*
X135156468Y-70531481D01*
X135013640Y-70276235D01*
X135005859Y-70262944D01*
X134615168Y-69753335D01*
X134102443Y-69326691D01*
X133646514Y-69075644D01*
X133311404Y-68909369D01*
X132974221Y-68714154D01*
X132821056Y-68612456D01*
X132539205Y-68444662D01*
X132183202Y-68277570D01*
X131919233Y-68178017D01*
X131641198Y-68069121D01*
X131357633Y-67929396D01*
X131104934Y-67781064D01*
X130919499Y-67646345D01*
X130837726Y-67547463D01*
X130843655Y-67521339D01*
X130929243Y-67539560D01*
X131117784Y-67618336D01*
X131285700Y-67699311D01*
X131697803Y-67863898D01*
X132215642Y-68007198D01*
X132775225Y-68115483D01*
X133312557Y-68175028D01*
X133537385Y-68182274D01*
X134048531Y-68129097D01*
X134429265Y-67970689D01*
X134677422Y-67708731D01*
X134790838Y-67344904D01*
X134798327Y-67202685D01*
X134772343Y-66924384D01*
X134672338Y-66714063D01*
X134465233Y-66517236D01*
X134317990Y-66411500D01*
X133962108Y-66263929D01*
X133498967Y-66236653D01*
X132923111Y-66329608D01*
X132687769Y-66392315D01*
X132345838Y-66485612D01*
X132021112Y-66564585D01*
X131812390Y-66606936D01*
X131543281Y-66689456D01*
X131252158Y-66833050D01*
X131175266Y-66882068D01*
X130822825Y-67053350D01*
X130465878Y-67073653D01*
X130077725Y-66941677D01*
X129863526Y-66818128D01*
X129563558Y-66645999D01*
X129197608Y-66463761D01*
X128937342Y-66349440D01*
X128629000Y-66238290D01*
X128357011Y-66183747D01*
X128072751Y-66186383D01*
X127727593Y-66246771D01*
X127272912Y-66365483D01*
X127259777Y-66369187D01*
X126891023Y-66517032D01*
X126667510Y-66723607D01*
X126568086Y-67013309D01*
X126558194Y-67178340D01*
X126631955Y-67509764D01*
X126833590Y-67761930D01*
X127133631Y-67919677D01*
X127502605Y-67967844D01*
X127911044Y-67891270D01*
X127930609Y-67884386D01*
X128206636Y-67806934D01*
X128571773Y-67732691D01*
X128936789Y-67679052D01*
X129271071Y-67634975D01*
X129556093Y-67586781D01*
X129734609Y-67544267D01*
X129743812Y-67540933D01*
X129843618Y-67511042D01*
X129834769Y-67554902D01*
X129712379Y-67696528D01*
X129712099Y-67696835D01*
X129506108Y-67853131D01*
X129207269Y-67999515D01*
X129032501Y-68060710D01*
X128711134Y-68168715D01*
X128318292Y-68317889D01*
X127936174Y-68476940D01*
X127917391Y-68485224D01*
X127536427Y-68643031D01*
X127138161Y-68790881D01*
X126805806Y-68897970D01*
X126792184Y-68901764D01*
X126425786Y-69039922D01*
X126097188Y-69227410D01*
X126000616Y-69302762D01*
X125838766Y-69478840D01*
X125659803Y-69724843D01*
X125486578Y-70001139D01*
X125341946Y-70268094D01*
X125248760Y-70486077D01*
X125229871Y-70615454D01*
X124223144Y-70615454D01*
X124349391Y-69957385D01*
X124487756Y-69255830D01*
X124615916Y-68626745D01*
X124729594Y-68092024D01*
X124824513Y-67673561D01*
X124896396Y-67393250D01*
X124914734Y-67333591D01*
X125288820Y-66470408D01*
X125806608Y-65667538D01*
X126446383Y-64946527D01*
X127186431Y-64328921D01*
X128005036Y-63836265D01*
X128746403Y-63531840D01*
X129349416Y-63382046D01*
X130026341Y-63290991D01*
X130717560Y-63261648D01*
X131363456Y-63296992D01*
G37*
%TO.C,D4*%
D11*
X137264000Y-120330000D02*
X137420000Y-120330000D01*
X139580000Y-120330000D02*
X139736000Y-120330000D01*
X137264484Y-120330000D02*
G75*
G02*
X137420000Y-117098563I1235516J1560000D01*
G01*
X137420000Y-119810961D02*
G75*
G02*
X137420000Y-117729039I1080000J1040961D01*
G01*
X139580000Y-117098563D02*
G75*
G02*
X139735516Y-120330000I-1080000J-1671437D01*
G01*
X139580000Y-117729039D02*
G75*
G02*
X139580000Y-119810961I-1080000J-1040961D01*
G01*
%TO.C,J1*%
X119080000Y-101120000D02*
X119080000Y-103880000D01*
X121730000Y-101120000D02*
X119080000Y-101120000D01*
X121730000Y-101120000D02*
X121730000Y-103880000D01*
X121730000Y-103880000D02*
X119080000Y-103880000D01*
X123000000Y-101120000D02*
X124380000Y-101120000D01*
X124380000Y-101120000D02*
X124380000Y-102500000D01*
%TO.C,D1*%
X134170000Y-46264000D02*
X134170000Y-46420000D01*
X134170000Y-48580000D02*
X134170000Y-48736000D01*
X134170000Y-46264484D02*
G75*
G02*
X137401437Y-46420000I1560000J-1235516D01*
G01*
X134689039Y-46420000D02*
G75*
G02*
X136770961Y-46420000I1040961J-1080000D01*
G01*
X136770961Y-48580000D02*
G75*
G02*
X134689039Y-48580000I-1040961J1080000D01*
G01*
X137401437Y-48580000D02*
G75*
G02*
X134170000Y-48735516I-1671437J1080000D01*
G01*
%TO.C,D9*%
X158670000Y-94264000D02*
X158670000Y-94420000D01*
X158670000Y-96580000D02*
X158670000Y-96736000D01*
X158670000Y-94264484D02*
G75*
G02*
X161901437Y-94420000I1560000J-1235516D01*
G01*
X159189039Y-94420000D02*
G75*
G02*
X161270961Y-94420000I1040961J-1080000D01*
G01*
X161270961Y-96580000D02*
G75*
G02*
X159189039Y-96580000I-1040961J1080000D01*
G01*
X161901437Y-96580000D02*
G75*
G02*
X158670000Y-96735516I-1671437J1080000D01*
G01*
%TO.C,D8*%
X138440000Y-95764000D02*
X138440000Y-95920000D01*
X138440000Y-98080000D02*
X138440000Y-98236000D01*
X138440000Y-95764484D02*
G75*
G02*
X141671437Y-95920000I1560000J-1235516D01*
G01*
X138959039Y-95920000D02*
G75*
G02*
X141040961Y-95920000I1040961J-1080000D01*
G01*
X141040961Y-98080000D02*
G75*
G02*
X138959039Y-98080000I-1040961J1080000D01*
G01*
X141671437Y-98080000D02*
G75*
G02*
X138440000Y-98235516I-1671437J1080000D01*
G01*
%TD*%
M02*
