%TF.GenerationSoftware,KiCad,Pcbnew,10.0.0*%
%TF.CreationDate,2026-04-14T02:36:16+02:00*%
%TF.ProjectId,blinky,626c696e-6b79-42e6-9b69-6361645f7063,rev?*%
%TF.SameCoordinates,Original*%
%TF.FileFunction,Legend,Bot*%
%TF.FilePolarity,Positive*%
%FSLAX46Y46*%
G04 Gerber Fmt 4.6, Leading zero omitted, Abs format (unit mm)*
G04 Created by KiCad (PCBNEW 10.0.0) date 2026-04-14 02:36:16*
%MOMM*%
%LPD*%
G01*
G04 APERTURE LIST*
%ADD10C,0.000000*%
G04 APERTURE END LIST*
D10*
%TO.C,G\u002A\u002A\u002A*%
G36*
X89779192Y-77248999D02*
G01*
X90125596Y-77437507D01*
X90413383Y-77713674D01*
X90609958Y-78057161D01*
X90682726Y-78447629D01*
X90626864Y-78839813D01*
X90441832Y-79241896D01*
X90151701Y-79546200D01*
X89949310Y-79656030D01*
X89567177Y-79756289D01*
X89170484Y-79762521D01*
X88832289Y-79667985D01*
X88786566Y-79642396D01*
X88502505Y-79409942D01*
X88251043Y-79098003D01*
X88093547Y-78780318D01*
X88075970Y-78710805D01*
X88080273Y-78343069D01*
X88223322Y-77962682D01*
X88486873Y-77605080D01*
X88852684Y-77305701D01*
X89040909Y-77216312D01*
X89406764Y-77168488D01*
X89779192Y-77248999D01*
G37*
G36*
X93548946Y-76682410D02*
G01*
X93923608Y-76711126D01*
X94269364Y-76755497D01*
X94541827Y-76812562D01*
X94696606Y-76879360D01*
X94777229Y-76965480D01*
X94840174Y-77163242D01*
X94748597Y-77355867D01*
X94512627Y-77528941D01*
X94142393Y-77668048D01*
X93916156Y-77707110D01*
X93648400Y-77691280D01*
X93292895Y-77610184D01*
X93034594Y-77533469D01*
X92791790Y-77447920D01*
X92657810Y-77383584D01*
X92616581Y-77336972D01*
X92558593Y-77144549D01*
X92571291Y-76917688D01*
X92655049Y-76743174D01*
X92695415Y-76719803D01*
X92890460Y-76683787D01*
X93189767Y-76672310D01*
X93548946Y-76682410D01*
G37*
G36*
X98577877Y-77098146D02*
G01*
X98792337Y-77233946D01*
X98835141Y-77285420D01*
X98920936Y-77490709D01*
X98854475Y-77688934D01*
X98630233Y-77888791D01*
X98242683Y-78098974D01*
X97948274Y-78248842D01*
X97726634Y-78397944D01*
X97648613Y-78509532D01*
X97650581Y-78523905D01*
X97727021Y-78661767D01*
X97892287Y-78868890D01*
X98115837Y-79106265D01*
X98184366Y-79174943D01*
X98436095Y-79461334D01*
X98556967Y-79685927D01*
X98556065Y-79875107D01*
X98442470Y-80055262D01*
X98321891Y-80160110D01*
X98140842Y-80211373D01*
X97925397Y-80145799D01*
X97654890Y-79955698D01*
X97308653Y-79633380D01*
X97099101Y-79413778D01*
X96764456Y-78985594D01*
X96587598Y-78607647D01*
X96569304Y-78269327D01*
X96710354Y-77960025D01*
X97011526Y-77669130D01*
X97473600Y-77386031D01*
X97892647Y-77192654D01*
X98281829Y-77083939D01*
X98577877Y-77098146D01*
G37*
G36*
X94135873Y-71740371D02*
G01*
X94522270Y-71753816D01*
X94973766Y-71774507D01*
X95524867Y-71802400D01*
X96181847Y-71838006D01*
X97070748Y-71894886D01*
X97828650Y-71957395D01*
X98479158Y-72029264D01*
X99045877Y-72114226D01*
X99552413Y-72216014D01*
X100022370Y-72338358D01*
X100479355Y-72484991D01*
X100946973Y-72659646D01*
X101938171Y-73125267D01*
X102831143Y-73695672D01*
X103611336Y-74357500D01*
X104265684Y-75097974D01*
X104781118Y-75904319D01*
X105144574Y-76763758D01*
X105218368Y-77068285D01*
X105288875Y-77549242D01*
X105338857Y-78116930D01*
X105366433Y-78726639D01*
X105369721Y-79333656D01*
X105346841Y-79893269D01*
X105295912Y-80360767D01*
X105201380Y-80828873D01*
X105044280Y-81409207D01*
X104848346Y-82003254D01*
X104627659Y-82574882D01*
X104396302Y-83087963D01*
X104168354Y-83506364D01*
X103957898Y-83793956D01*
X103828551Y-83972377D01*
X103700694Y-84303697D01*
X103625151Y-84755593D01*
X103596814Y-85350078D01*
X103583408Y-85605181D01*
X103539032Y-86024153D01*
X103471388Y-86497684D01*
X103388435Y-86964125D01*
X103248640Y-87605053D01*
X103028678Y-88389158D01*
X102768808Y-89058632D01*
X102453649Y-89645531D01*
X102067819Y-90181912D01*
X101595936Y-90699833D01*
X101474507Y-90817891D01*
X100863888Y-91316958D01*
X100200615Y-91699825D01*
X99460062Y-91976147D01*
X98617603Y-92155582D01*
X97648613Y-92247786D01*
X97399311Y-92258879D01*
X96980278Y-92265784D01*
X96639634Y-92247165D01*
X96316405Y-92198228D01*
X95949616Y-92114177D01*
X95298986Y-91921691D01*
X94728937Y-91678002D01*
X94245609Y-91372869D01*
X93806561Y-90983908D01*
X93320027Y-90489155D01*
X92971797Y-90866941D01*
X92601108Y-91217942D01*
X91953908Y-91653960D01*
X91172566Y-92001425D01*
X91156188Y-92007296D01*
X90905462Y-92091785D01*
X90678939Y-92150950D01*
X90437804Y-92189248D01*
X90143243Y-92211136D01*
X89756440Y-92221072D01*
X89238579Y-92223513D01*
X88992523Y-92223346D01*
X88545260Y-92219313D01*
X88207872Y-92205837D01*
X87938865Y-92177545D01*
X87696743Y-92129060D01*
X87440014Y-92055009D01*
X87127183Y-91950016D01*
X86497837Y-91702214D01*
X85915746Y-91386193D01*
X85388664Y-90986551D01*
X84859056Y-90465635D01*
X84811488Y-90413516D01*
X84255372Y-89674676D01*
X83803067Y-88815286D01*
X83465652Y-87856098D01*
X83427777Y-87710603D01*
X83309842Y-87157162D01*
X83203324Y-86517591D01*
X83116721Y-85854351D01*
X83058527Y-85229906D01*
X83037241Y-84706718D01*
X83037134Y-84663289D01*
X83023990Y-84349577D01*
X82976694Y-84088323D01*
X82877886Y-83813245D01*
X82710207Y-83458059D01*
X82183941Y-82261725D01*
X81759888Y-80932687D01*
X81713371Y-80722279D01*
X81636792Y-80178447D01*
X81590331Y-79542912D01*
X81580418Y-79118025D01*
X82614254Y-79118025D01*
X82688978Y-80014159D01*
X82882636Y-80899496D01*
X83202141Y-81809880D01*
X83654403Y-82781158D01*
X84080479Y-83610231D01*
X84154568Y-84819883D01*
X84167260Y-85014954D01*
X84273868Y-86126018D01*
X84433518Y-87091333D01*
X84652024Y-87926149D01*
X84935202Y-88645718D01*
X85288867Y-89265289D01*
X85718832Y-89800113D01*
X86230915Y-90265440D01*
X86657334Y-90547610D01*
X87331494Y-90847667D01*
X88079873Y-91047413D01*
X88868344Y-91145441D01*
X89662780Y-91140347D01*
X90429055Y-91030727D01*
X91133042Y-90815174D01*
X91740615Y-90492285D01*
X91943726Y-90340829D01*
X92260040Y-90027447D01*
X92515467Y-89639857D01*
X92745202Y-89130346D01*
X92772624Y-89058342D01*
X92900881Y-88659880D01*
X93002479Y-88214459D01*
X93082288Y-87691382D01*
X93145180Y-87059951D01*
X93196027Y-86289470D01*
X93210931Y-86027850D01*
X93238119Y-85645800D01*
X93269412Y-85383882D01*
X93311235Y-85209601D01*
X93370012Y-85090467D01*
X93452167Y-84993985D01*
X93496470Y-84951508D01*
X93707844Y-84819096D01*
X93909652Y-84840995D01*
X94139175Y-85018537D01*
X94221661Y-85104780D01*
X94287005Y-85201336D01*
X94323720Y-85326865D01*
X94336843Y-85516544D01*
X94331409Y-85805553D01*
X94312453Y-86229072D01*
X94295447Y-86511494D01*
X94248822Y-87055094D01*
X94187947Y-87595922D01*
X94121579Y-88050428D01*
X94108075Y-88129732D01*
X94040562Y-88606531D01*
X94025799Y-88971763D01*
X94069749Y-89270972D01*
X94178374Y-89549701D01*
X94357636Y-89853493D01*
X94399889Y-89915593D01*
X94799790Y-90351870D01*
X95313209Y-90712030D01*
X95894318Y-90962983D01*
X96251273Y-91052085D01*
X96956925Y-91138643D01*
X97718216Y-91139593D01*
X98482505Y-91058893D01*
X99197157Y-90900506D01*
X99809531Y-90668391D01*
X99952513Y-90591315D01*
X100393082Y-90288222D01*
X100837415Y-89902095D01*
X101232035Y-89482523D01*
X101523464Y-89079095D01*
X101531364Y-89065551D01*
X101845010Y-88415150D01*
X102109519Y-87647362D01*
X102313347Y-86809435D01*
X102444949Y-85948616D01*
X102492780Y-85112154D01*
X102493051Y-85047116D01*
X102506872Y-84544270D01*
X102549029Y-84162336D01*
X102630705Y-83857886D01*
X102763079Y-83587491D01*
X102957332Y-83307723D01*
X103286638Y-82802193D01*
X103641792Y-82062704D01*
X103967250Y-81161027D01*
X104187353Y-80282415D01*
X104302081Y-79344036D01*
X104294774Y-78429748D01*
X104167474Y-77565053D01*
X103922222Y-76775449D01*
X103561058Y-76086439D01*
X103063860Y-75427059D01*
X102476923Y-74842089D01*
X101799220Y-74349735D01*
X101005868Y-73932060D01*
X100071989Y-73571128D01*
X99930269Y-73524378D01*
X99590623Y-73420325D01*
X99267095Y-73337514D01*
X98922573Y-73269194D01*
X98519947Y-73208615D01*
X98022106Y-73149029D01*
X97391936Y-73083685D01*
X96960835Y-73042609D01*
X95060426Y-72908345D01*
X93273465Y-72862992D01*
X91574699Y-72905778D01*
X91296276Y-72921301D01*
X90505724Y-72975837D01*
X89731264Y-73043533D01*
X89003648Y-73120916D01*
X88353625Y-73204511D01*
X87811949Y-73290843D01*
X87409368Y-73376437D01*
X87018876Y-73496595D01*
X86455955Y-73711285D01*
X85864489Y-73972657D01*
X85306138Y-74253117D01*
X84842567Y-74525071D01*
X84536158Y-74748906D01*
X84003273Y-75253795D01*
X83527341Y-75849587D01*
X83133591Y-76497857D01*
X82847253Y-77160179D01*
X82693555Y-77798130D01*
X82651553Y-78175249D01*
X82614254Y-79118025D01*
X81580418Y-79118025D01*
X81574562Y-78867045D01*
X81590060Y-78202219D01*
X81637399Y-77599806D01*
X81717155Y-77111179D01*
X81792622Y-76822558D01*
X82109845Y-76005897D01*
X82574927Y-75234575D01*
X83198827Y-74489201D01*
X83543685Y-74148230D01*
X84274723Y-73552664D01*
X85059507Y-73083172D01*
X85618742Y-72814254D01*
X86170779Y-72582029D01*
X86723388Y-72389926D01*
X87300743Y-72233089D01*
X87927019Y-72106656D01*
X88626388Y-72005771D01*
X89423026Y-71925573D01*
X90341105Y-71861205D01*
X91404800Y-71807807D01*
X91972789Y-71783421D01*
X92551229Y-71759957D01*
X93022255Y-71743965D01*
X93420369Y-71735400D01*
X93780074Y-71734217D01*
X94135873Y-71740371D01*
G37*
G36*
X119377746Y-66865449D02*
G01*
X119574790Y-66941443D01*
X119631827Y-66973359D01*
X119802099Y-67120325D01*
X119842644Y-67260218D01*
X119740970Y-67361465D01*
X119638824Y-67396891D01*
X119536028Y-67401980D01*
X119380973Y-67369247D01*
X119118601Y-67292600D01*
X119102300Y-67287842D01*
X118788716Y-67226523D01*
X118381087Y-67185143D01*
X117949986Y-67171043D01*
X117794891Y-67170923D01*
X117480666Y-67164790D01*
X117254413Y-67152043D01*
X117157085Y-67134565D01*
X117179734Y-67103209D01*
X117332633Y-67052073D01*
X117592194Y-66994619D01*
X117923489Y-66937444D01*
X118291593Y-66887147D01*
X118661580Y-66850328D01*
X118800339Y-66840604D01*
X119137308Y-66833603D01*
X119377746Y-66865449D01*
G37*
G36*
X113694118Y-66778449D02*
G01*
X114083149Y-66839778D01*
X114433654Y-66947958D01*
X114531495Y-66985770D01*
X114847749Y-67087260D01*
X115173720Y-67170555D01*
X115331221Y-67209514D01*
X115524282Y-67277271D01*
X115599666Y-67334610D01*
X115576484Y-67362117D01*
X115430994Y-67417469D01*
X115196154Y-67464316D01*
X115098370Y-67478766D01*
X114771124Y-67533732D01*
X114495318Y-67588412D01*
X114372297Y-67610805D01*
X114060427Y-67646173D01*
X113730770Y-67663724D01*
X113644470Y-67663338D01*
X113280910Y-67615564D01*
X112993560Y-67506377D01*
X112800419Y-67355113D01*
X112719484Y-67181111D01*
X112768753Y-67003707D01*
X112966221Y-66842240D01*
X113036354Y-66813336D01*
X113325531Y-66768219D01*
X113694118Y-66778449D01*
G37*
G36*
X122794901Y-70709516D02*
G01*
X122940842Y-71490328D01*
X123084157Y-72277928D01*
X123220567Y-73050421D01*
X123345796Y-73785915D01*
X123369722Y-73923742D01*
X123426368Y-74184001D01*
X123477535Y-74300441D01*
X123529969Y-74291583D01*
X123547102Y-74223134D01*
X123591628Y-74004459D01*
X123659244Y-73654448D01*
X123746333Y-73192320D01*
X123849277Y-72637293D01*
X123964460Y-72008586D01*
X124088263Y-71325418D01*
X124147258Y-70998323D01*
X124302400Y-70141733D01*
X124433316Y-69429017D01*
X124544125Y-68842712D01*
X124638944Y-68365353D01*
X124721892Y-67979477D01*
X124797088Y-67667619D01*
X124868651Y-67412317D01*
X124940699Y-67196106D01*
X125017350Y-67001522D01*
X125102724Y-66811101D01*
X125200938Y-66607380D01*
X125340394Y-66340473D01*
X125890002Y-65521020D01*
X126564346Y-64806801D01*
X127348293Y-64209938D01*
X128226711Y-63742551D01*
X129184465Y-63416761D01*
X129529551Y-63338034D01*
X129902312Y-63282856D01*
X130300733Y-63263733D01*
X130796120Y-63274362D01*
X131523178Y-63338993D01*
X132165242Y-63482593D01*
X132761474Y-63722200D01*
X133368890Y-64075568D01*
X134021567Y-64580874D01*
X134638167Y-65252270D01*
X135116382Y-66017742D01*
X135450053Y-66867184D01*
X135633021Y-67790490D01*
X135690301Y-68309699D01*
X136209510Y-68366979D01*
X136708729Y-68444949D01*
X137595794Y-68709659D01*
X138408456Y-69126273D01*
X139141434Y-69692403D01*
X139477562Y-70029763D01*
X140005269Y-70718250D01*
X140384872Y-71473753D01*
X140622961Y-72311047D01*
X140726127Y-73244908D01*
X140731458Y-73451313D01*
X140686201Y-74309794D01*
X140519959Y-75107379D01*
X140221781Y-75901753D01*
X140080644Y-76183489D01*
X139673230Y-76822472D01*
X139166708Y-77448047D01*
X138602869Y-78011503D01*
X138023502Y-78464128D01*
X137991038Y-78485467D01*
X137748187Y-78630476D01*
X137473099Y-78767400D01*
X137153425Y-78899227D01*
X136776813Y-79028946D01*
X136330916Y-79159545D01*
X135803384Y-79294011D01*
X135181867Y-79435334D01*
X134454015Y-79586501D01*
X133607480Y-79750501D01*
X132629911Y-79930322D01*
X131508959Y-80128952D01*
X130232275Y-80349379D01*
X129978052Y-80401746D01*
X129777988Y-80462098D01*
X129701338Y-80512558D01*
X129701821Y-80521469D01*
X129765050Y-80585442D01*
X129804940Y-80588465D01*
X129917107Y-80603851D01*
X130105493Y-80634340D01*
X130383066Y-80682251D01*
X130762792Y-80749901D01*
X131257638Y-80839607D01*
X131880570Y-80953689D01*
X132644555Y-81094463D01*
X133562560Y-81264247D01*
X134132159Y-81371326D01*
X134953279Y-81532386D01*
X135654446Y-81678795D01*
X136223645Y-81807904D01*
X136648861Y-81917065D01*
X136918079Y-82003633D01*
X137322638Y-82181322D01*
X138137112Y-82655183D01*
X138849907Y-83232005D01*
X139456527Y-83895372D01*
X139952475Y-84628868D01*
X140333256Y-85416079D01*
X140594373Y-86240589D01*
X140731330Y-87085982D01*
X140739631Y-87935842D01*
X140614779Y-88773754D01*
X140352279Y-89583303D01*
X139947633Y-90348073D01*
X139396346Y-91051648D01*
X139010628Y-91431927D01*
X138473726Y-91851963D01*
X137887939Y-92177737D01*
X137213933Y-92430051D01*
X136412375Y-92629705D01*
X135690301Y-92777876D01*
X135632753Y-93298218D01*
X135579742Y-93619375D01*
X135481355Y-94036842D01*
X135363310Y-94427864D01*
X135176630Y-94881737D01*
X134734137Y-95627481D01*
X134163422Y-96293564D01*
X133486687Y-96859568D01*
X132726129Y-97305074D01*
X131903950Y-97609663D01*
X131770875Y-97640486D01*
X131309991Y-97703217D01*
X130762710Y-97731860D01*
X130187948Y-97726349D01*
X129644619Y-97686621D01*
X129191639Y-97612612D01*
X128679057Y-97461590D01*
X127866190Y-97104101D01*
X127091551Y-96626391D01*
X126397662Y-96056158D01*
X125827043Y-95421098D01*
X125719495Y-95275551D01*
X125479047Y-94923278D01*
X125275004Y-94571484D01*
X125099086Y-94196025D01*
X124943014Y-93772758D01*
X124798508Y-93277538D01*
X124657288Y-92686223D01*
X124511073Y-91974667D01*
X124351585Y-91118729D01*
X124279876Y-90721760D01*
X124094093Y-89699416D01*
X123935747Y-88838234D01*
X123803946Y-88133544D01*
X123697799Y-87580675D01*
X123616413Y-87174956D01*
X123558897Y-86911717D01*
X123524360Y-86786287D01*
X123510813Y-86760176D01*
X123492187Y-86755941D01*
X123469080Y-86796126D01*
X123438657Y-86894378D01*
X123398080Y-87064340D01*
X123344512Y-87319659D01*
X123275115Y-87673980D01*
X123187053Y-88140947D01*
X123077488Y-88734206D01*
X122943583Y-89467402D01*
X122782501Y-90354180D01*
X122609806Y-91289295D01*
X122454081Y-92086116D01*
X122310793Y-92754060D01*
X122173550Y-93312800D01*
X122035960Y-93782010D01*
X121891630Y-94181363D01*
X121734168Y-94530532D01*
X121557182Y-94849190D01*
X121354280Y-95157011D01*
X121119069Y-95473668D01*
X120838983Y-95803223D01*
X120188058Y-96404035D01*
X119436540Y-96923812D01*
X118627232Y-97334981D01*
X117802934Y-97609969D01*
X117371277Y-97685873D01*
X116790680Y-97732639D01*
X116180326Y-97736336D01*
X115604892Y-97696861D01*
X115129052Y-97614116D01*
X114419929Y-97374249D01*
X113629213Y-96952387D01*
X112932187Y-96401396D01*
X112340407Y-95734715D01*
X111865427Y-94965784D01*
X111518804Y-94108042D01*
X111312093Y-93174927D01*
X111252408Y-92740964D01*
X110856304Y-92687720D01*
X110246171Y-92572928D01*
X109370420Y-92285681D01*
X108569409Y-91873227D01*
X107862770Y-91348543D01*
X107270136Y-90724602D01*
X106811140Y-90014381D01*
X106623368Y-89595273D01*
X106382476Y-88782862D01*
X106259964Y-87914533D01*
X106260979Y-87037023D01*
X106390670Y-86197066D01*
X106504942Y-85792637D01*
X106878984Y-84896179D01*
X107391779Y-84072527D01*
X108026730Y-83339217D01*
X108767242Y-82713785D01*
X109596718Y-82213767D01*
X110498560Y-81856699D01*
X110568388Y-81837395D01*
X110854743Y-81769772D01*
X111283541Y-81678120D01*
X111836853Y-81565879D01*
X112496757Y-81436492D01*
X113245324Y-81293402D01*
X114064630Y-81140049D01*
X114936750Y-80979878D01*
X115843757Y-80816329D01*
X116767726Y-80652845D01*
X117022246Y-80600603D01*
X117222100Y-80543157D01*
X117298663Y-80497704D01*
X117298579Y-80496630D01*
X117216951Y-80453219D01*
X117011433Y-80399561D01*
X116725251Y-80347015D01*
X116466961Y-80304525D01*
X116073699Y-80236289D01*
X115588620Y-80149874D01*
X115049800Y-80052065D01*
X114495318Y-79949648D01*
X114002645Y-79858059D01*
X113395543Y-79745784D01*
X112811467Y-79638334D01*
X112298406Y-79544534D01*
X111904348Y-79473209D01*
X111871867Y-79467368D01*
X111225403Y-79342829D01*
X110704381Y-79221671D01*
X110266996Y-79091528D01*
X109871441Y-78940033D01*
X109475912Y-78754819D01*
X109385353Y-78708001D01*
X108623645Y-78214857D01*
X107924504Y-77585403D01*
X107314422Y-76846855D01*
X106819893Y-76026426D01*
X106778156Y-75941058D01*
X106480428Y-75148199D01*
X106300558Y-74292207D01*
X106241771Y-73415986D01*
X106307292Y-72562441D01*
X106500344Y-71774476D01*
X106715055Y-71228851D01*
X107013106Y-70674541D01*
X107016833Y-70669611D01*
X111789383Y-70669611D01*
X111820436Y-70715148D01*
X111933214Y-70692613D01*
X112051187Y-70689601D01*
X112168901Y-70820940D01*
X112214053Y-70914040D01*
X112277015Y-70948133D01*
X112383116Y-70843583D01*
X112476363Y-70722314D01*
X112636657Y-70491611D01*
X112813212Y-70221070D01*
X112915208Y-70067554D01*
X113111657Y-69833233D01*
X113352526Y-69643769D01*
X113695716Y-69448473D01*
X114042129Y-69267638D01*
X114409781Y-69074559D01*
X114707693Y-68916970D01*
X114868578Y-68837075D01*
X115197459Y-68698381D01*
X115479852Y-68606851D01*
X115811980Y-68463085D01*
X116183150Y-68163418D01*
X116383030Y-67976791D01*
X116545085Y-67875280D01*
X116651554Y-67886937D01*
X116737000Y-67950563D01*
X116931202Y-68096174D01*
X117169586Y-68275561D01*
X117334279Y-68389145D01*
X117683240Y-68589036D01*
X118010293Y-68734381D01*
X118150271Y-68786757D01*
X118493330Y-68933533D01*
X118785285Y-69080138D01*
X118846146Y-69113032D01*
X119177440Y-69260840D01*
X119507358Y-69370962D01*
X119533873Y-69377938D01*
X120025279Y-69572829D01*
X120422008Y-69857030D01*
X120688769Y-70205610D01*
X120724734Y-70273021D01*
X120865020Y-70495979D01*
X120987771Y-70640666D01*
X121018535Y-70665403D01*
X121102492Y-70698343D01*
X121121405Y-70585429D01*
X121121941Y-70551276D01*
X121159743Y-70393701D01*
X121269779Y-70376690D01*
X121469762Y-70495679D01*
X121504599Y-70520587D01*
X121670171Y-70614613D01*
X121763046Y-70627143D01*
X121770129Y-70615454D01*
X121751240Y-70486077D01*
X121658054Y-70268094D01*
X121513422Y-70001139D01*
X121340197Y-69724843D01*
X121161234Y-69478840D01*
X120999384Y-69302762D01*
X120902812Y-69227410D01*
X120574214Y-69039922D01*
X120207816Y-68901764D01*
X120194194Y-68897970D01*
X119861839Y-68790881D01*
X119463573Y-68643031D01*
X119082609Y-68485224D01*
X119063826Y-68476940D01*
X118681708Y-68317889D01*
X118288866Y-68168715D01*
X117967499Y-68060710D01*
X117792731Y-67999515D01*
X117493892Y-67853131D01*
X117287901Y-67696835D01*
X117287621Y-67696528D01*
X117165231Y-67554902D01*
X117156382Y-67511042D01*
X117256188Y-67540933D01*
X117265391Y-67544267D01*
X117443907Y-67586781D01*
X117728929Y-67634975D01*
X118063211Y-67679052D01*
X118428227Y-67732691D01*
X118793364Y-67806934D01*
X119069391Y-67884386D01*
X119088956Y-67891270D01*
X119497395Y-67967844D01*
X119866369Y-67919677D01*
X120166410Y-67761930D01*
X120368045Y-67509764D01*
X120441806Y-67178340D01*
X120431914Y-67013309D01*
X120332490Y-66723607D01*
X120108977Y-66517032D01*
X119740223Y-66369187D01*
X119727088Y-66365483D01*
X119272407Y-66246771D01*
X118927249Y-66186383D01*
X118642989Y-66183747D01*
X118371000Y-66238290D01*
X118062658Y-66349440D01*
X117802392Y-66463761D01*
X117436442Y-66645999D01*
X117136474Y-66818128D01*
X116922275Y-66941677D01*
X116534122Y-67073653D01*
X116177175Y-67053350D01*
X115824734Y-66882068D01*
X115747842Y-66833050D01*
X115456719Y-66689456D01*
X115187610Y-66606936D01*
X114978888Y-66564585D01*
X114654162Y-66485612D01*
X114312231Y-66392315D01*
X114076889Y-66329608D01*
X113501033Y-66236653D01*
X113037892Y-66263929D01*
X112682010Y-66411500D01*
X112534767Y-66517236D01*
X112327662Y-66714063D01*
X112227657Y-66924384D01*
X112201673Y-67202685D01*
X112209162Y-67344904D01*
X112322578Y-67708731D01*
X112570735Y-67970689D01*
X112951469Y-68129097D01*
X113462615Y-68182274D01*
X113687443Y-68175028D01*
X114224775Y-68115483D01*
X114784358Y-68007198D01*
X115302197Y-67863898D01*
X115714300Y-67699311D01*
X115882216Y-67618336D01*
X116070757Y-67539560D01*
X116156345Y-67521339D01*
X116162274Y-67547463D01*
X116080501Y-67646345D01*
X115895066Y-67781064D01*
X115642367Y-67929396D01*
X115358802Y-68069121D01*
X115080767Y-68178017D01*
X114816798Y-68277570D01*
X114460795Y-68444662D01*
X114178944Y-68612456D01*
X114025779Y-68714154D01*
X113688596Y-68909369D01*
X113353486Y-69075644D01*
X112897557Y-69326691D01*
X112384832Y-69753335D01*
X111994141Y-70262944D01*
X111986360Y-70276235D01*
X111843532Y-70531481D01*
X111789383Y-70669611D01*
X107016833Y-70669611D01*
X107392001Y-70173356D01*
X107890144Y-69667063D01*
X108362426Y-69279509D01*
X109144415Y-68812132D01*
X109991823Y-68492618D01*
X110881082Y-68331493D01*
X111217013Y-68302297D01*
X111360447Y-67583924D01*
X111540406Y-66829406D01*
X111764608Y-66196648D01*
X112054819Y-65647146D01*
X112433659Y-65138114D01*
X112923746Y-64626765D01*
X113540151Y-64119857D01*
X114314174Y-63678002D01*
X115174917Y-63378263D01*
X115636544Y-63296992D01*
X116282440Y-63261648D01*
X116973659Y-63290991D01*
X117650584Y-63382046D01*
X118253597Y-63531840D01*
X118994964Y-63836265D01*
X119813569Y-64328921D01*
X120553617Y-64946527D01*
X121193392Y-65667538D01*
X121711180Y-66470408D01*
X122085266Y-67333591D01*
X122103604Y-67393250D01*
X122175487Y-67673561D01*
X122270406Y-68092024D01*
X122384084Y-68626745D01*
X122512244Y-69255830D01*
X122650609Y-69957385D01*
X122776856Y-70615454D01*
X122794901Y-70709516D01*
G37*
G36*
X154323742Y-86308721D02*
G01*
X154679247Y-86389817D01*
X154937548Y-86466532D01*
X155180352Y-86552081D01*
X155314332Y-86616417D01*
X155355561Y-86663029D01*
X155413549Y-86855452D01*
X155400851Y-87082313D01*
X155317093Y-87256827D01*
X155276727Y-87280198D01*
X155081682Y-87316214D01*
X154782375Y-87327691D01*
X154423196Y-87317591D01*
X154048534Y-87288875D01*
X153702778Y-87244504D01*
X153430315Y-87187439D01*
X153275536Y-87120641D01*
X153194913Y-87034521D01*
X153131968Y-86836759D01*
X153223545Y-86644134D01*
X153459515Y-86471060D01*
X153829749Y-86331953D01*
X154055986Y-86292891D01*
X154323742Y-86308721D01*
G37*
G36*
X159139853Y-84332016D02*
G01*
X159185576Y-84357605D01*
X159469637Y-84590059D01*
X159721099Y-84901998D01*
X159878595Y-85219683D01*
X159896172Y-85289196D01*
X159891869Y-85656932D01*
X159748820Y-86037319D01*
X159485269Y-86394921D01*
X159119458Y-86694300D01*
X158931233Y-86783689D01*
X158565378Y-86831513D01*
X158192950Y-86751002D01*
X157846546Y-86562494D01*
X157558759Y-86286327D01*
X157362184Y-85942840D01*
X157289416Y-85552372D01*
X157345278Y-85160188D01*
X157530310Y-84758105D01*
X157820441Y-84453801D01*
X158022832Y-84343971D01*
X158404965Y-84243712D01*
X158801658Y-84237480D01*
X159139853Y-84332016D01*
G37*
G36*
X150046745Y-83854202D02*
G01*
X150317252Y-84044303D01*
X150663489Y-84366621D01*
X150873041Y-84586223D01*
X151207686Y-85014407D01*
X151384544Y-85392354D01*
X151402838Y-85730674D01*
X151261788Y-86039976D01*
X150960616Y-86330871D01*
X150498542Y-86613970D01*
X150079495Y-86807347D01*
X149690313Y-86916062D01*
X149394265Y-86901855D01*
X149179805Y-86766055D01*
X149137001Y-86714581D01*
X149051206Y-86509292D01*
X149117667Y-86311067D01*
X149341909Y-86111210D01*
X149729459Y-85901027D01*
X150023868Y-85751159D01*
X150245508Y-85602057D01*
X150323529Y-85490469D01*
X150321561Y-85476096D01*
X150245121Y-85338234D01*
X150079855Y-85131111D01*
X149856305Y-84893736D01*
X149787776Y-84825058D01*
X149536047Y-84538667D01*
X149415175Y-84314074D01*
X149416077Y-84124894D01*
X149529672Y-83944739D01*
X149650251Y-83839891D01*
X149831300Y-83788628D01*
X150046745Y-83854202D01*
G37*
G36*
X166397580Y-85132956D02*
G01*
X166382082Y-85797782D01*
X166334743Y-86400195D01*
X166254987Y-86888822D01*
X166179520Y-87177443D01*
X165862297Y-87994104D01*
X165397215Y-88765426D01*
X164773315Y-89510800D01*
X164428457Y-89851771D01*
X163697419Y-90447337D01*
X162912635Y-90916829D01*
X162353400Y-91185747D01*
X161801363Y-91417972D01*
X161248754Y-91610075D01*
X160671399Y-91766912D01*
X160045123Y-91893345D01*
X159345754Y-91994230D01*
X158549116Y-92074428D01*
X157631037Y-92138796D01*
X156567342Y-92192194D01*
X155999353Y-92216580D01*
X155420913Y-92240044D01*
X154949887Y-92256036D01*
X154551773Y-92264601D01*
X154192068Y-92265784D01*
X153836269Y-92259630D01*
X153449872Y-92246185D01*
X152998376Y-92225494D01*
X152447275Y-92197601D01*
X151790295Y-92161995D01*
X150901394Y-92105115D01*
X150143492Y-92042606D01*
X149492984Y-91970737D01*
X148926265Y-91885775D01*
X148419729Y-91783987D01*
X147949772Y-91661643D01*
X147492787Y-91515010D01*
X147025169Y-91340355D01*
X146033971Y-90874734D01*
X145140999Y-90304329D01*
X144360806Y-89642501D01*
X143706458Y-88902027D01*
X143191024Y-88095682D01*
X142827568Y-87236243D01*
X142753774Y-86931716D01*
X142683267Y-86450759D01*
X142633285Y-85883071D01*
X142605709Y-85273362D01*
X142602421Y-84666345D01*
X142602845Y-84655965D01*
X143670061Y-84655965D01*
X143677368Y-85570253D01*
X143804668Y-86434948D01*
X144049920Y-87224552D01*
X144411084Y-87913562D01*
X144908282Y-88572942D01*
X145495219Y-89157912D01*
X146172922Y-89650266D01*
X146966274Y-90067941D01*
X147900153Y-90428873D01*
X148041873Y-90475623D01*
X148381519Y-90579676D01*
X148705047Y-90662487D01*
X149049569Y-90730807D01*
X149452195Y-90791386D01*
X149950036Y-90850972D01*
X150580206Y-90916316D01*
X151011307Y-90957392D01*
X152911716Y-91091656D01*
X154698677Y-91137009D01*
X156397443Y-91094223D01*
X156675866Y-91078700D01*
X157466418Y-91024164D01*
X158240878Y-90956468D01*
X158968494Y-90879085D01*
X159618517Y-90795490D01*
X160160193Y-90709158D01*
X160562774Y-90623564D01*
X160953266Y-90503406D01*
X161516187Y-90288716D01*
X162107653Y-90027344D01*
X162666004Y-89746884D01*
X163129575Y-89474930D01*
X163435984Y-89251095D01*
X163968869Y-88746206D01*
X164444801Y-88150414D01*
X164838551Y-87502144D01*
X165124889Y-86839822D01*
X165278587Y-86201871D01*
X165320589Y-85824752D01*
X165357888Y-84881976D01*
X165283164Y-83985842D01*
X165089506Y-83100505D01*
X164770001Y-82190121D01*
X164317739Y-81218843D01*
X163891663Y-80389770D01*
X163817574Y-79180118D01*
X163804882Y-78985047D01*
X163698274Y-77873983D01*
X163538624Y-76908668D01*
X163320118Y-76073852D01*
X163036940Y-75354283D01*
X162683275Y-74734712D01*
X162253310Y-74199888D01*
X161741227Y-73734561D01*
X161314808Y-73452391D01*
X160640648Y-73152334D01*
X159892269Y-72952588D01*
X159103798Y-72854560D01*
X158309362Y-72859654D01*
X157543087Y-72969274D01*
X156839100Y-73184827D01*
X156231527Y-73507716D01*
X156028416Y-73659172D01*
X155712102Y-73972554D01*
X155456675Y-74360144D01*
X155226940Y-74869655D01*
X155199518Y-74941659D01*
X155071261Y-75340121D01*
X154969663Y-75785542D01*
X154889854Y-76308619D01*
X154826962Y-76940050D01*
X154776115Y-77710531D01*
X154761211Y-77972151D01*
X154734023Y-78354201D01*
X154702730Y-78616119D01*
X154660907Y-78790400D01*
X154602130Y-78909534D01*
X154519975Y-79006016D01*
X154475672Y-79048493D01*
X154264298Y-79180905D01*
X154062490Y-79159006D01*
X153832967Y-78981464D01*
X153750481Y-78895221D01*
X153685137Y-78798665D01*
X153648422Y-78673136D01*
X153635299Y-78483457D01*
X153640733Y-78194448D01*
X153659689Y-77770929D01*
X153676695Y-77488507D01*
X153723320Y-76944907D01*
X153784195Y-76404079D01*
X153850563Y-75949573D01*
X153864067Y-75870269D01*
X153931580Y-75393470D01*
X153946343Y-75028238D01*
X153902393Y-74729029D01*
X153793768Y-74450300D01*
X153614506Y-74146508D01*
X153572253Y-74084408D01*
X153172352Y-73648131D01*
X152658933Y-73287971D01*
X152077824Y-73037018D01*
X151720869Y-72947916D01*
X151015217Y-72861358D01*
X150253926Y-72860408D01*
X149489637Y-72941108D01*
X148774985Y-73099495D01*
X148162611Y-73331610D01*
X148019629Y-73408686D01*
X147579060Y-73711779D01*
X147134727Y-74097906D01*
X146740107Y-74517478D01*
X146448678Y-74920906D01*
X146440778Y-74934450D01*
X146127132Y-75584851D01*
X145862623Y-76352639D01*
X145658795Y-77190566D01*
X145527193Y-78051385D01*
X145479362Y-78887847D01*
X145479091Y-78952885D01*
X145465270Y-79455731D01*
X145423113Y-79837665D01*
X145341437Y-80142115D01*
X145209063Y-80412510D01*
X145014810Y-80692278D01*
X144685504Y-81197808D01*
X144330350Y-81937297D01*
X144004892Y-82838974D01*
X143784789Y-83717586D01*
X143670061Y-84655965D01*
X142602845Y-84655965D01*
X142625301Y-84106732D01*
X142676230Y-83639234D01*
X142770762Y-83171128D01*
X142927862Y-82590794D01*
X143123796Y-81996747D01*
X143344483Y-81425119D01*
X143575840Y-80912038D01*
X143803788Y-80493637D01*
X144014244Y-80206045D01*
X144143591Y-80027624D01*
X144271448Y-79696304D01*
X144346991Y-79244408D01*
X144375328Y-78649923D01*
X144388734Y-78394820D01*
X144433110Y-77975848D01*
X144500754Y-77502317D01*
X144583707Y-77035876D01*
X144723502Y-76394948D01*
X144943464Y-75610843D01*
X145203334Y-74941369D01*
X145518493Y-74354470D01*
X145904323Y-73818089D01*
X146376206Y-73300168D01*
X146497635Y-73182110D01*
X147108254Y-72683043D01*
X147771527Y-72300176D01*
X148512080Y-72023854D01*
X149354539Y-71844419D01*
X150323529Y-71752215D01*
X150572831Y-71741122D01*
X150991864Y-71734217D01*
X151332508Y-71752836D01*
X151655737Y-71801773D01*
X152022526Y-71885824D01*
X152673156Y-72078310D01*
X153243205Y-72321999D01*
X153726533Y-72627132D01*
X154165581Y-73016093D01*
X154652115Y-73510846D01*
X155000345Y-73133060D01*
X155371034Y-72782059D01*
X156018234Y-72346041D01*
X156799576Y-71998576D01*
X156815954Y-71992705D01*
X157066680Y-71908216D01*
X157293203Y-71849051D01*
X157534338Y-71810753D01*
X157828899Y-71788865D01*
X158215702Y-71778929D01*
X158733563Y-71776488D01*
X158979619Y-71776655D01*
X159426882Y-71780688D01*
X159764270Y-71794164D01*
X160033277Y-71822456D01*
X160275399Y-71870941D01*
X160532128Y-71944992D01*
X160844959Y-72049985D01*
X161474305Y-72297787D01*
X162056396Y-72613808D01*
X162583478Y-73013450D01*
X163113086Y-73534366D01*
X163160654Y-73586485D01*
X163716770Y-74325325D01*
X164169075Y-75184715D01*
X164506490Y-76143903D01*
X164544365Y-76289398D01*
X164662300Y-76842839D01*
X164768818Y-77482410D01*
X164855421Y-78145650D01*
X164913615Y-78770095D01*
X164934901Y-79293283D01*
X164935008Y-79336712D01*
X164948152Y-79650424D01*
X164995448Y-79911678D01*
X165094256Y-80186756D01*
X165261935Y-80541942D01*
X165788201Y-81738276D01*
X166212254Y-83067314D01*
X166258771Y-83277722D01*
X166335350Y-83821554D01*
X166381811Y-84457089D01*
X166391724Y-84881976D01*
X166397580Y-85132956D01*
G37*
%TD*%
M02*
