%TF.GenerationSoftware,KiCad,Pcbnew,10.0.0*%
%TF.CreationDate,2026-04-14T02:36:16+02:00*%
%TF.ProjectId,blinky,626c696e-6b79-42e6-9b69-6361645f7063,rev?*%
%TF.SameCoordinates,Original*%
%TF.FileFunction,Copper,L2,Bot*%
%TF.FilePolarity,Positive*%
%FSLAX46Y46*%
G04 Gerber Fmt 4.6, Leading zero omitted, Abs format (unit mm)*
G04 Created by KiCad (PCBNEW 10.0.0) date 2026-04-14 02:36:16*
%MOMM*%
%LPD*%
G01*
G04 APERTURE LIST*
G04 Aperture macros list*
%AMRoundRect*
0 Rectangle with rounded corners*
0 $1 Rounding radius*
0 $2 $3 $4 $5 $6 $7 $8 $9 X,Y pos of 4 corners*
0 Add a 4 corners polygon primitive as box body*
4,1,4,$2,$3,$4,$5,$6,$7,$8,$9,$2,$3,0*
0 Add four circle primitives for the rounded corners*
1,1,$1+$1,$2,$3*
1,1,$1+$1,$4,$5*
1,1,$1+$1,$6,$7*
1,1,$1+$1,$8,$9*
0 Add four rect primitives between the rounded corners*
20,1,$1+$1,$2,$3,$4,$5,0*
20,1,$1+$1,$4,$5,$6,$7,0*
20,1,$1+$1,$6,$7,$8,$9,0*
20,1,$1+$1,$8,$9,$2,$3,0*%
G04 Aperture macros list end*
%TA.AperFunction,ComponentPad*%
%ADD10R,1.800000X1.800000*%
%TD*%
%TA.AperFunction,ComponentPad*%
%ADD11C,1.800000*%
%TD*%
%TA.AperFunction,ComponentPad*%
%ADD12C,2.000000*%
%TD*%
%TA.AperFunction,ComponentPad*%
%ADD13C,1.600000*%
%TD*%
%TA.AperFunction,ComponentPad*%
%ADD14R,1.295400X1.295400*%
%TD*%
%TA.AperFunction,ComponentPad*%
%ADD15C,1.295400*%
%TD*%
%TA.AperFunction,ComponentPad*%
%ADD16RoundRect,0.250000X0.550000X0.550000X-0.550000X0.550000X-0.550000X-0.550000X0.550000X-0.550000X0*%
%TD*%
%TA.AperFunction,ComponentPad*%
%ADD17RoundRect,0.250000X0.550000X-0.550000X0.550000X0.550000X-0.550000X0.550000X-0.550000X-0.550000X0*%
%TD*%
%TA.AperFunction,ComponentPad*%
%ADD18R,1.700000X1.700000*%
%TD*%
%TA.AperFunction,ComponentPad*%
%ADD19C,1.700000*%
%TD*%
%TA.AperFunction,ComponentPad*%
%ADD20RoundRect,0.412500X-0.412500X-0.412500X0.412500X-0.412500X0.412500X0.412500X-0.412500X0.412500X0*%
%TD*%
%TA.AperFunction,ComponentPad*%
%ADD21C,1.650000*%
%TD*%
%TA.AperFunction,Conductor*%
%ADD22C,0.200000*%
%TD*%
G04 APERTURE END LIST*
D10*
%TO.P,D10,1,K_1*%
%TO.N,Net-(D1-K)*%
X160000000Y-69500000D03*
D11*
%TO.P,D10,2,A_2*%
%TO.N,Net-(D10-A)*%
X160000000Y-66960000D03*
%TD*%
D12*
%TO.P,C1,1*%
%TO.N,Net-(U1-CONT)*%
X129500000Y-69000000D03*
%TO.P,C1,2*%
%TO.N,GND*%
X129500000Y-74000000D03*
%TD*%
D13*
%TO.P,R3,1*%
%TO.N,Net-(D1-K)*%
X120000000Y-124310000D03*
%TO.P,R3,2*%
%TO.N,GND*%
X120000000Y-116690000D03*
%TD*%
D14*
%TO.P,U2,1,5_1*%
%TO.N,Net-(D1-A)*%
X116880000Y-72460000D03*
D15*
%TO.P,U2,2,1_2*%
%TO.N,Net-(D2-A)*%
X116880000Y-75000000D03*
%TO.P,U2,3,0_3*%
%TO.N,Net-(D3-A)*%
X116880000Y-77540000D03*
%TO.P,U2,4,2_4*%
%TO.N,Net-(D4-A)*%
X116880000Y-80080000D03*
%TO.P,U2,5,6_5*%
%TO.N,Net-(D5-A)*%
X116880000Y-82620000D03*
%TO.P,U2,6,7_6*%
%TO.N,Net-(D6-A)*%
X116880000Y-85160000D03*
%TO.P,U2,7,3_7*%
%TO.N,Net-(D7-A)*%
X116880000Y-87700000D03*
%TO.P,U2,8,VSS_8*%
%TO.N,GND*%
X116880000Y-90240000D03*
%TO.P,U2,9,8_9*%
%TO.N,Net-(D8-A)*%
X124500000Y-90240000D03*
%TO.P,U2,10,4_10*%
%TO.N,Net-(D9-A)*%
X124500000Y-87700000D03*
%TO.P,U2,11,9_11*%
%TO.N,Net-(D10-A)*%
X124500000Y-85160000D03*
%TO.P,U2,12,CARRYOUT_12*%
%TO.N,unconnected-(U2-CARRYOUT-Pad12)*%
X124500000Y-82620000D03*
%TO.P,U2,13,CLOCKINHIBIT_13*%
%TO.N,GND*%
X124500000Y-80080000D03*
%TO.P,U2,14,CLOCK_14*%
%TO.N,OUT*%
X124500000Y-77540000D03*
%TO.P,U2,15,RESET_15*%
%TO.N,GND*%
X124500000Y-75000000D03*
%TO.P,U2,16,VDD_16*%
%TO.N,+5V*%
X124500000Y-72460000D03*
%TD*%
D10*
%TO.P,D6,1,K_1*%
%TO.N,Net-(D1-K)*%
X106000000Y-97000000D03*
D11*
%TO.P,D6,2,A_2*%
%TO.N,Net-(D6-A)*%
X108540000Y-97000000D03*
%TD*%
D16*
%TO.P,C2,1*%
%TO.N,TR*%
X130455113Y-79500000D03*
D13*
%TO.P,C2,2*%
%TO.N,GND*%
X128455113Y-79500000D03*
%TD*%
D10*
%TO.P,D5,1,K_1*%
%TO.N,Net-(D1-K)*%
X89500000Y-95000000D03*
D11*
%TO.P,D5,2,A_2*%
%TO.N,Net-(D5-A)*%
X92040000Y-95000000D03*
%TD*%
D10*
%TO.P,D2,1,K_1*%
%TO.N,Net-(D1-K)*%
X109460000Y-47500000D03*
D11*
%TO.P,D2,2,A_2*%
%TO.N,Net-(D2-A)*%
X112000000Y-47500000D03*
%TD*%
D10*
%TO.P,D3,1,K_1*%
%TO.N,Net-(D1-K)*%
X92000000Y-69000000D03*
D11*
%TO.P,D3,2,A_2*%
%TO.N,Net-(D3-A)*%
X89460000Y-69000000D03*
%TD*%
D13*
%TO.P,R2,1*%
%TO.N,Net-(U1-DISCH)*%
X134500000Y-61500000D03*
%TO.P,R2,2*%
%TO.N,+5V*%
X126880000Y-61500000D03*
%TD*%
D10*
%TO.P,D7,1,K_1*%
%TO.N,Net-(D1-K)*%
X109000000Y-118500000D03*
D11*
%TO.P,D7,2,A_2*%
%TO.N,Net-(D7-A)*%
X111540000Y-118500000D03*
%TD*%
D17*
%TO.P,U1,1,GND_1*%
%TO.N,GND*%
X134380000Y-73305000D03*
D13*
%TO.P,U1,2,TRIG_2*%
%TO.N,TR*%
X136920000Y-73305000D03*
%TO.P,U1,3,OUT_3*%
%TO.N,OUT*%
X139460000Y-73305000D03*
%TO.P,U1,4,~{RST}_4*%
%TO.N,unconnected-(U1-~{RST}-Pad4)*%
X142000000Y-73305000D03*
%TO.P,U1,5,CONT_5*%
%TO.N,Net-(U1-CONT)*%
X142000000Y-65685000D03*
%TO.P,U1,6,THRES_6*%
%TO.N,TR*%
X139460000Y-65685000D03*
%TO.P,U1,7,DISCH_7*%
%TO.N,Net-(U1-DISCH)*%
X136920000Y-65685000D03*
%TO.P,U1,8,VCC_8*%
%TO.N,+5V*%
X134380000Y-65685000D03*
%TD*%
D10*
%TO.P,D4,1,K_1*%
%TO.N,Net-(D1-K)*%
X138500000Y-120040000D03*
D11*
%TO.P,D4,2,A_2*%
%TO.N,Net-(D4-A)*%
X138500000Y-117500000D03*
%TD*%
D18*
%TO.P,J1,1,Pin_1_1*%
%TO.N,+5V*%
X123000000Y-102500000D03*
D19*
%TO.P,J1,2,Pin_2_2*%
%TO.N,GND*%
X120460000Y-102500000D03*
%TD*%
D10*
%TO.P,D1,1,K_1*%
%TO.N,Net-(D1-K)*%
X134460000Y-47500000D03*
D11*
%TO.P,D1,2,A_2*%
%TO.N,Net-(D1-A)*%
X137000000Y-47500000D03*
%TD*%
D10*
%TO.P,D9,1,K_1*%
%TO.N,Net-(D1-K)*%
X158960000Y-95500000D03*
D11*
%TO.P,D9,2,A_2*%
%TO.N,Net-(D9-A)*%
X161500000Y-95500000D03*
%TD*%
D10*
%TO.P,D8,1,K_1*%
%TO.N,Net-(D1-K)*%
X138730000Y-97000000D03*
D11*
%TO.P,D8,2,A_2*%
%TO.N,Net-(D8-A)*%
X141270000Y-97000000D03*
%TD*%
D20*
%TO.P,RV1,1,1_1*%
%TO.N,Net-(U1-DISCH)*%
X138310000Y-58107500D03*
D21*
%TO.P,RV1,2,2_2*%
X140850000Y-58107500D03*
%TO.P,RV1,3,3_3*%
%TO.N,TR*%
X143390000Y-58107500D03*
%TD*%
D18*
%TO.P,J2,1,Pin_1_1*%
%TO.N,OUT*%
X136500000Y-80500000D03*
%TD*%
%TO.N,Net-(U1-CONT)*%
D22*
X129500000Y-69000000D02*
X138685000Y-69000000D01*
X138685000Y-69000000D02*
X142000000Y-65685000D01*
%TO.N,Net-(D4-A)*%
X135700000Y-117500000D02*
X138500000Y-117500000D01*
X121610000Y-84810000D02*
X121610000Y-103410000D01*
X116880000Y-80080000D02*
X121610000Y-84810000D01*
X121610000Y-103410000D02*
X135700000Y-117500000D01*
%TO.N,Net-(D8-A)*%
X134510000Y-90240000D02*
X141270000Y-97000000D01*
X124500000Y-90240000D02*
X134510000Y-90240000D01*
%TO.N,Net-(D9-A)*%
X153700000Y-87700000D02*
X161500000Y-95500000D01*
X124500000Y-87700000D02*
X153700000Y-87700000D01*
%TO.N,OUT*%
X135225000Y-77540000D02*
X124500000Y-77540000D01*
X139460000Y-73305000D02*
X135225000Y-77540000D01*
%TO.N,+5V*%
X123000000Y-102500000D02*
X123000000Y-73960000D01*
X123000000Y-73960000D02*
X124500000Y-72460000D01*
%TD*%
%TA.AperFunction,Conductor*%
%TO.N,GND*%
G36*
X143945825Y-41019685D02*
G01*
X143991580Y-41072489D01*
X144002754Y-41121183D01*
X144362025Y-56929151D01*
X144343869Y-56996620D01*
X144292118Y-57043563D01*
X144223203Y-57055075D01*
X144165171Y-57032286D01*
X144084714Y-56973830D01*
X143898820Y-56879112D01*
X143700389Y-56814637D01*
X143494324Y-56782000D01*
X143494319Y-56782000D01*
X143285681Y-56782000D01*
X143285676Y-56782000D01*
X143079610Y-56814637D01*
X142881179Y-56879112D01*
X142695285Y-56973830D01*
X142526493Y-57096466D01*
X142378966Y-57243993D01*
X142256330Y-57412785D01*
X142230485Y-57463510D01*
X142182510Y-57514306D01*
X142114690Y-57531101D01*
X142048555Y-57508564D01*
X142009515Y-57463510D01*
X141983669Y-57412785D01*
X141949683Y-57366008D01*
X141861035Y-57243995D01*
X141713505Y-57096465D01*
X141544714Y-56973830D01*
X141358820Y-56879112D01*
X141160389Y-56814637D01*
X140954324Y-56782000D01*
X140954319Y-56782000D01*
X140745681Y-56782000D01*
X140745676Y-56782000D01*
X140539610Y-56814637D01*
X140341179Y-56879112D01*
X140155285Y-56973830D01*
X139986493Y-57096466D01*
X139838966Y-57243993D01*
X139768883Y-57340454D01*
X139713552Y-57383119D01*
X139643939Y-57389098D01*
X139582144Y-57356492D01*
X139558080Y-57323863D01*
X139492425Y-57195007D01*
X139371645Y-57045854D01*
X139227526Y-56929151D01*
X139222494Y-56925076D01*
X139051492Y-56837946D01*
X139051491Y-56837945D01*
X139051490Y-56837945D01*
X138866109Y-56788272D01*
X138786409Y-56782000D01*
X138786402Y-56782000D01*
X137833598Y-56782000D01*
X137833590Y-56782000D01*
X137753890Y-56788272D01*
X137568509Y-56837945D01*
X137397507Y-56925075D01*
X137248354Y-57045854D01*
X137127575Y-57195007D01*
X137040445Y-57366009D01*
X136990772Y-57551390D01*
X136984500Y-57631090D01*
X136984500Y-58583909D01*
X136990772Y-58663609D01*
X137038128Y-58840340D01*
X137040446Y-58848992D01*
X137127576Y-59019994D01*
X137158561Y-59058258D01*
X137248354Y-59169145D01*
X137270368Y-59186971D01*
X137397506Y-59289924D01*
X137568508Y-59377054D01*
X137753889Y-59426727D01*
X137833598Y-59433000D01*
X137833606Y-59433000D01*
X138786394Y-59433000D01*
X138786402Y-59433000D01*
X138866111Y-59426727D01*
X139051492Y-59377054D01*
X139222494Y-59289924D01*
X139371645Y-59169145D01*
X139492424Y-59019994D01*
X139558080Y-58891136D01*
X139606054Y-58840340D01*
X139673875Y-58823545D01*
X139740010Y-58846082D01*
X139768879Y-58874541D01*
X139838965Y-58971005D01*
X139986495Y-59118535D01*
X140155286Y-59241170D01*
X140243116Y-59285921D01*
X140341179Y-59335887D01*
X140341181Y-59335887D01*
X140341184Y-59335889D01*
X140447545Y-59370448D01*
X140539610Y-59400362D01*
X140745676Y-59433000D01*
X140745681Y-59433000D01*
X140954324Y-59433000D01*
X141160389Y-59400362D01*
X141232123Y-59377054D01*
X141358816Y-59335889D01*
X141544714Y-59241170D01*
X141713505Y-59118535D01*
X141861035Y-58971005D01*
X141983670Y-58802214D01*
X142009515Y-58751490D01*
X142057489Y-58700694D01*
X142125310Y-58683898D01*
X142191445Y-58706435D01*
X142230485Y-58751490D01*
X142256328Y-58802212D01*
X142294975Y-58855404D01*
X142378965Y-58971005D01*
X142526495Y-59118535D01*
X142695286Y-59241170D01*
X142783116Y-59285921D01*
X142881179Y-59335887D01*
X142881181Y-59335887D01*
X142881184Y-59335889D01*
X142987545Y-59370448D01*
X143079610Y-59400362D01*
X143285676Y-59433000D01*
X143285681Y-59433000D01*
X143494324Y-59433000D01*
X143700389Y-59400362D01*
X143772123Y-59377054D01*
X143898816Y-59335889D01*
X144084714Y-59241170D01*
X144217739Y-59144520D01*
X144283541Y-59121041D01*
X144351595Y-59136866D01*
X144400291Y-59186971D01*
X144414590Y-59242021D01*
X144500000Y-62999999D01*
X144500000Y-63000000D01*
X165371491Y-62503059D01*
X165438978Y-62521142D01*
X165485977Y-62572842D01*
X165498432Y-62628536D01*
X165203672Y-86798879D01*
X165003567Y-103207550D01*
X165001494Y-103377512D01*
X164980993Y-103444307D01*
X164927635Y-103489414D01*
X164877503Y-103500000D01*
X145000000Y-103500000D01*
X145000000Y-126199330D01*
X144980315Y-126266369D01*
X144927511Y-126312124D01*
X144877075Y-126323325D01*
X104316265Y-126674997D01*
X104249057Y-126655895D01*
X104202846Y-126603489D01*
X104191195Y-126552081D01*
X104170868Y-124207648D01*
X118699500Y-124207648D01*
X118699500Y-124412351D01*
X118731522Y-124614534D01*
X118794781Y-124809223D01*
X118887715Y-124991613D01*
X119008028Y-125157213D01*
X119152786Y-125301971D01*
X119307749Y-125414556D01*
X119318390Y-125422287D01*
X119434607Y-125481503D01*
X119500776Y-125515218D01*
X119500778Y-125515218D01*
X119500781Y-125515220D01*
X119605137Y-125549127D01*
X119695465Y-125578477D01*
X119796557Y-125594488D01*
X119897648Y-125610500D01*
X119897649Y-125610500D01*
X120102351Y-125610500D01*
X120102352Y-125610500D01*
X120304534Y-125578477D01*
X120499219Y-125515220D01*
X120681610Y-125422287D01*
X120774590Y-125354732D01*
X120847213Y-125301971D01*
X120847215Y-125301968D01*
X120847219Y-125301966D01*
X120991966Y-125157219D01*
X120991968Y-125157215D01*
X120991971Y-125157213D01*
X121044732Y-125084590D01*
X121112287Y-124991610D01*
X121205220Y-124809219D01*
X121268477Y-124614534D01*
X121300500Y-124412352D01*
X121300500Y-124207648D01*
X121268477Y-124005466D01*
X121205220Y-123810781D01*
X121205218Y-123810778D01*
X121205218Y-123810776D01*
X121140699Y-123684152D01*
X121112287Y-123628390D01*
X121104556Y-123617749D01*
X120991971Y-123462786D01*
X120847213Y-123318028D01*
X120681613Y-123197715D01*
X120681612Y-123197714D01*
X120681610Y-123197713D01*
X120624653Y-123168691D01*
X120499223Y-123104781D01*
X120304534Y-123041522D01*
X120129995Y-123013878D01*
X120102352Y-123009500D01*
X119897648Y-123009500D01*
X119873329Y-123013351D01*
X119695465Y-123041522D01*
X119500776Y-123104781D01*
X119318386Y-123197715D01*
X119152786Y-123318028D01*
X119008028Y-123462786D01*
X118887715Y-123628386D01*
X118794781Y-123810776D01*
X118731522Y-124005465D01*
X118699500Y-124207648D01*
X104170868Y-124207648D01*
X104113164Y-117552135D01*
X107599500Y-117552135D01*
X107599500Y-119447870D01*
X107599501Y-119447876D01*
X107605908Y-119507483D01*
X107656202Y-119642328D01*
X107656206Y-119642335D01*
X107742452Y-119757544D01*
X107742455Y-119757547D01*
X107857664Y-119843793D01*
X107857671Y-119843797D01*
X107992517Y-119894091D01*
X107992516Y-119894091D01*
X107999444Y-119894835D01*
X108052127Y-119900500D01*
X109947872Y-119900499D01*
X110007483Y-119894091D01*
X110142331Y-119843796D01*
X110257546Y-119757546D01*
X110343796Y-119642331D01*
X110371429Y-119568243D01*
X110373601Y-119562420D01*
X110415471Y-119506486D01*
X110480936Y-119482068D01*
X110549209Y-119496919D01*
X110577464Y-119518071D01*
X110627636Y-119568243D01*
X110627641Y-119568247D01*
X110657315Y-119589806D01*
X110805978Y-119697815D01*
X110934375Y-119763237D01*
X111002393Y-119797895D01*
X111002396Y-119797896D01*
X111107221Y-119831955D01*
X111212049Y-119866015D01*
X111429778Y-119900500D01*
X111429779Y-119900500D01*
X111650221Y-119900500D01*
X111650222Y-119900500D01*
X111867951Y-119866015D01*
X112077606Y-119797895D01*
X112274022Y-119697815D01*
X112452365Y-119568242D01*
X112608242Y-119412365D01*
X112737815Y-119234022D01*
X112837895Y-119037606D01*
X112906015Y-118827951D01*
X112940500Y-118610222D01*
X112940500Y-118389778D01*
X112906015Y-118172049D01*
X112869471Y-118059575D01*
X112837896Y-117962396D01*
X112837893Y-117962388D01*
X112744201Y-117778511D01*
X112744200Y-117778509D01*
X112737814Y-117765976D01*
X112608247Y-117587641D01*
X112608243Y-117587636D01*
X112452363Y-117431756D01*
X112452358Y-117431752D01*
X112274025Y-117302187D01*
X112274024Y-117302186D01*
X112274022Y-117302185D01*
X112156791Y-117242452D01*
X112077606Y-117202104D01*
X112077603Y-117202103D01*
X111867952Y-117133985D01*
X111759086Y-117116742D01*
X111650222Y-117099500D01*
X111429778Y-117099500D01*
X111357201Y-117110995D01*
X111212047Y-117133985D01*
X111002396Y-117202103D01*
X111002393Y-117202104D01*
X110805974Y-117302187D01*
X110627641Y-117431752D01*
X110627636Y-117431756D01*
X110577463Y-117481929D01*
X110516140Y-117515413D01*
X110446448Y-117510428D01*
X110390515Y-117468557D01*
X110373601Y-117437580D01*
X110343797Y-117357671D01*
X110343793Y-117357664D01*
X110257547Y-117242455D01*
X110257544Y-117242452D01*
X110142335Y-117156206D01*
X110142328Y-117156202D01*
X110007482Y-117105908D01*
X110007483Y-117105908D01*
X109947883Y-117099501D01*
X109947881Y-117099500D01*
X109947873Y-117099500D01*
X109947864Y-117099500D01*
X108052129Y-117099500D01*
X108052123Y-117099501D01*
X107992516Y-117105908D01*
X107857671Y-117156202D01*
X107857664Y-117156206D01*
X107742455Y-117242452D01*
X107742452Y-117242455D01*
X107656206Y-117357664D01*
X107656202Y-117357671D01*
X107605908Y-117492517D01*
X107599501Y-117552116D01*
X107599500Y-117552135D01*
X104113164Y-117552135D01*
X104108329Y-116994417D01*
X104104803Y-116587682D01*
X118700000Y-116587682D01*
X118700000Y-116792317D01*
X118732009Y-116994417D01*
X118795244Y-117189031D01*
X118888141Y-117371350D01*
X118888147Y-117371359D01*
X118920523Y-117415921D01*
X118920524Y-117415922D01*
X119600000Y-116736446D01*
X119600000Y-116742661D01*
X119627259Y-116844394D01*
X119679920Y-116935606D01*
X119754394Y-117010080D01*
X119845606Y-117062741D01*
X119947339Y-117090000D01*
X119953553Y-117090000D01*
X119274076Y-117769474D01*
X119318650Y-117801859D01*
X119500968Y-117894755D01*
X119695582Y-117957990D01*
X119897683Y-117990000D01*
X120102317Y-117990000D01*
X120304417Y-117957990D01*
X120499031Y-117894755D01*
X120681349Y-117801859D01*
X120725921Y-117769474D01*
X120046447Y-117090000D01*
X120052661Y-117090000D01*
X120154394Y-117062741D01*
X120245606Y-117010080D01*
X120320080Y-116935606D01*
X120372741Y-116844394D01*
X120400000Y-116742661D01*
X120400000Y-116736447D01*
X121079474Y-117415921D01*
X121111859Y-117371349D01*
X121204755Y-117189031D01*
X121267990Y-116994417D01*
X121300000Y-116792317D01*
X121300000Y-116587682D01*
X121267990Y-116385582D01*
X121204755Y-116190968D01*
X121111859Y-116008650D01*
X121079474Y-115964077D01*
X121079474Y-115964076D01*
X120400000Y-116643551D01*
X120400000Y-116637339D01*
X120372741Y-116535606D01*
X120320080Y-116444394D01*
X120245606Y-116369920D01*
X120154394Y-116317259D01*
X120052661Y-116290000D01*
X120046446Y-116290000D01*
X120725922Y-115610524D01*
X120725921Y-115610523D01*
X120681359Y-115578147D01*
X120681350Y-115578141D01*
X120499031Y-115485244D01*
X120304417Y-115422009D01*
X120102317Y-115390000D01*
X119897683Y-115390000D01*
X119695582Y-115422009D01*
X119500968Y-115485244D01*
X119318644Y-115578143D01*
X119274077Y-115610523D01*
X119274077Y-115610524D01*
X119953554Y-116290000D01*
X119947339Y-116290000D01*
X119845606Y-116317259D01*
X119754394Y-116369920D01*
X119679920Y-116444394D01*
X119627259Y-116535606D01*
X119600000Y-116637339D01*
X119600000Y-116643553D01*
X118920524Y-115964077D01*
X118920523Y-115964077D01*
X118888143Y-116008644D01*
X118795244Y-116190968D01*
X118732009Y-116385582D01*
X118700000Y-116587682D01*
X104104803Y-116587682D01*
X104104770Y-116583891D01*
X104096750Y-115658858D01*
X104000000Y-104500000D01*
X83118601Y-104002823D01*
X83052050Y-103981548D01*
X83007564Y-103927670D01*
X82997579Y-103881388D01*
X82796982Y-94052135D01*
X88099500Y-94052135D01*
X88099500Y-95947870D01*
X88099501Y-95947876D01*
X88105908Y-96007483D01*
X88156202Y-96142328D01*
X88156206Y-96142335D01*
X88242452Y-96257544D01*
X88242455Y-96257547D01*
X88357664Y-96343793D01*
X88357671Y-96343797D01*
X88492517Y-96394091D01*
X88492516Y-96394091D01*
X88499444Y-96394835D01*
X88552127Y-96400500D01*
X90447872Y-96400499D01*
X90507483Y-96394091D01*
X90642331Y-96343796D01*
X90757546Y-96257546D01*
X90843796Y-96142331D01*
X90871429Y-96068243D01*
X90873601Y-96062420D01*
X90915471Y-96006486D01*
X90980936Y-95982068D01*
X91049209Y-95996919D01*
X91077464Y-96018071D01*
X91127636Y-96068243D01*
X91127641Y-96068247D01*
X91229603Y-96142326D01*
X91305978Y-96197815D01*
X91434375Y-96263237D01*
X91502393Y-96297895D01*
X91502396Y-96297896D01*
X91552841Y-96314286D01*
X91712049Y-96366015D01*
X91929778Y-96400500D01*
X91929779Y-96400500D01*
X92150221Y-96400500D01*
X92150222Y-96400500D01*
X92367951Y-96366015D01*
X92577606Y-96297895D01*
X92774022Y-96197815D01*
X92952365Y-96068242D01*
X92968472Y-96052135D01*
X104599500Y-96052135D01*
X104599500Y-97947870D01*
X104599501Y-97947876D01*
X104605908Y-98007483D01*
X104656202Y-98142328D01*
X104656206Y-98142335D01*
X104742452Y-98257544D01*
X104742455Y-98257547D01*
X104857664Y-98343793D01*
X104857671Y-98343797D01*
X104992517Y-98394091D01*
X104992516Y-98394091D01*
X104999444Y-98394835D01*
X105052127Y-98400500D01*
X106947872Y-98400499D01*
X107007483Y-98394091D01*
X107142331Y-98343796D01*
X107257546Y-98257546D01*
X107343796Y-98142331D01*
X107371429Y-98068243D01*
X107373601Y-98062420D01*
X107415471Y-98006486D01*
X107480936Y-97982068D01*
X107549209Y-97996919D01*
X107577464Y-98018071D01*
X107627636Y-98068243D01*
X107627641Y-98068247D01*
X107729603Y-98142326D01*
X107805978Y-98197815D01*
X107934375Y-98263237D01*
X108002393Y-98297895D01*
X108002396Y-98297896D01*
X108107221Y-98331955D01*
X108212049Y-98366015D01*
X108429778Y-98400500D01*
X108429779Y-98400500D01*
X108650221Y-98400500D01*
X108650222Y-98400500D01*
X108867951Y-98366015D01*
X109077606Y-98297895D01*
X109274022Y-98197815D01*
X109452365Y-98068242D01*
X109608242Y-97912365D01*
X109737815Y-97734022D01*
X109837895Y-97537606D01*
X109906015Y-97327951D01*
X109940500Y-97110222D01*
X109940500Y-96889778D01*
X109906015Y-96672049D01*
X109849113Y-96496919D01*
X109837896Y-96462396D01*
X109837895Y-96462393D01*
X109777466Y-96343797D01*
X109737815Y-96265978D01*
X109647979Y-96142328D01*
X109608247Y-96087641D01*
X109608243Y-96087636D01*
X109452363Y-95931756D01*
X109452358Y-95931752D01*
X109274025Y-95802187D01*
X109274024Y-95802186D01*
X109274022Y-95802185D01*
X109156791Y-95742452D01*
X109077606Y-95702104D01*
X109077603Y-95702103D01*
X108867952Y-95633985D01*
X108759086Y-95616742D01*
X108650222Y-95599500D01*
X108429778Y-95599500D01*
X108362082Y-95610222D01*
X108212047Y-95633985D01*
X108002396Y-95702103D01*
X108002393Y-95702104D01*
X107805974Y-95802187D01*
X107627641Y-95931752D01*
X107627636Y-95931756D01*
X107577463Y-95981929D01*
X107516140Y-96015413D01*
X107446448Y-96010428D01*
X107390515Y-95968557D01*
X107373601Y-95937580D01*
X107343797Y-95857671D01*
X107343793Y-95857664D01*
X107257547Y-95742455D01*
X107257544Y-95742452D01*
X107142335Y-95656206D01*
X107142328Y-95656202D01*
X107007482Y-95605908D01*
X107007483Y-95605908D01*
X106947883Y-95599501D01*
X106947881Y-95599500D01*
X106947873Y-95599500D01*
X106947864Y-95599500D01*
X105052129Y-95599500D01*
X105052123Y-95599501D01*
X104992516Y-95605908D01*
X104857671Y-95656202D01*
X104857664Y-95656206D01*
X104742455Y-95742452D01*
X104742452Y-95742455D01*
X104656206Y-95857664D01*
X104656202Y-95857671D01*
X104605908Y-95992517D01*
X104599501Y-96052116D01*
X104599500Y-96052135D01*
X92968472Y-96052135D01*
X93108242Y-95912365D01*
X93237815Y-95734022D01*
X93337895Y-95537606D01*
X93406015Y-95327951D01*
X93440500Y-95110222D01*
X93440500Y-94889778D01*
X93406015Y-94672049D01*
X93367047Y-94552116D01*
X93337896Y-94462396D01*
X93337895Y-94462393D01*
X93284532Y-94357664D01*
X93237815Y-94265978D01*
X93191408Y-94202104D01*
X93108247Y-94087641D01*
X93108243Y-94087636D01*
X92952363Y-93931756D01*
X92952358Y-93931752D01*
X92774025Y-93802187D01*
X92774024Y-93802186D01*
X92774022Y-93802185D01*
X92656791Y-93742452D01*
X92577606Y-93702104D01*
X92577603Y-93702103D01*
X92367952Y-93633985D01*
X92259086Y-93616742D01*
X92150222Y-93599500D01*
X91929778Y-93599500D01*
X91857201Y-93610995D01*
X91712047Y-93633985D01*
X91502396Y-93702103D01*
X91502393Y-93702104D01*
X91305974Y-93802187D01*
X91127641Y-93931752D01*
X91127636Y-93931756D01*
X91077463Y-93981929D01*
X91016140Y-94015413D01*
X90946448Y-94010428D01*
X90890515Y-93968557D01*
X90873601Y-93937580D01*
X90843797Y-93857671D01*
X90843793Y-93857664D01*
X90757547Y-93742455D01*
X90757544Y-93742452D01*
X90642335Y-93656206D01*
X90642328Y-93656202D01*
X90507482Y-93605908D01*
X90507483Y-93605908D01*
X90447883Y-93599501D01*
X90447881Y-93599500D01*
X90447873Y-93599500D01*
X90447864Y-93599500D01*
X88552129Y-93599500D01*
X88552123Y-93599501D01*
X88492516Y-93605908D01*
X88357671Y-93656202D01*
X88357664Y-93656206D01*
X88242455Y-93742452D01*
X88242452Y-93742455D01*
X88156206Y-93857664D01*
X88156202Y-93857671D01*
X88105908Y-93992517D01*
X88099501Y-94052116D01*
X88099500Y-94052135D01*
X82796982Y-94052135D01*
X82717340Y-90149668D01*
X115732300Y-90149668D01*
X115732300Y-90330331D01*
X115760559Y-90508750D01*
X115816386Y-90680566D01*
X115898401Y-90841529D01*
X115909558Y-90856886D01*
X115909559Y-90856886D01*
X116486300Y-90280145D01*
X116486300Y-90291832D01*
X116513130Y-90391962D01*
X116564962Y-90481737D01*
X116638263Y-90555038D01*
X116728038Y-90606870D01*
X116828168Y-90633700D01*
X116839853Y-90633700D01*
X116263112Y-91210438D01*
X116263112Y-91210439D01*
X116278477Y-91221602D01*
X116439433Y-91303613D01*
X116611249Y-91359440D01*
X116789669Y-91387700D01*
X116970331Y-91387700D01*
X117148750Y-91359440D01*
X117320566Y-91303613D01*
X117481528Y-91221599D01*
X117481532Y-91221597D01*
X117496886Y-91210440D01*
X117496887Y-91210439D01*
X116920148Y-90633700D01*
X116931832Y-90633700D01*
X117031962Y-90606870D01*
X117121737Y-90555038D01*
X117195038Y-90481737D01*
X117246870Y-90391962D01*
X117273700Y-90291832D01*
X117273700Y-90280147D01*
X117850440Y-90856887D01*
X117850440Y-90856886D01*
X117861597Y-90841532D01*
X117861599Y-90841528D01*
X117943613Y-90680566D01*
X117999440Y-90508750D01*
X118027700Y-90330331D01*
X118027700Y-90149668D01*
X117999440Y-89971249D01*
X117943613Y-89799433D01*
X117861602Y-89638477D01*
X117850439Y-89623112D01*
X117273700Y-90199851D01*
X117273700Y-90188168D01*
X117246870Y-90088038D01*
X117195038Y-89998263D01*
X117121737Y-89924962D01*
X117031962Y-89873130D01*
X116931832Y-89846300D01*
X116920147Y-89846300D01*
X117496886Y-89269559D01*
X117496886Y-89269558D01*
X117481529Y-89258401D01*
X117320566Y-89176386D01*
X117148750Y-89120559D01*
X117148752Y-89120559D01*
X116987012Y-89094941D01*
X116607749Y-89121696D01*
X116439433Y-89176386D01*
X116278476Y-89258397D01*
X116278472Y-89258400D01*
X116263112Y-89269558D01*
X116263112Y-89269559D01*
X116839854Y-89846300D01*
X116828168Y-89846300D01*
X116728038Y-89873130D01*
X116638263Y-89924962D01*
X116564962Y-89998263D01*
X116513130Y-90088038D01*
X116486300Y-90188168D01*
X116486300Y-90199853D01*
X115909559Y-89623112D01*
X115909558Y-89623112D01*
X115898400Y-89638472D01*
X115898397Y-89638476D01*
X115816386Y-89799433D01*
X115760559Y-89971249D01*
X115732300Y-90149668D01*
X82717340Y-90149668D01*
X82665503Y-87609635D01*
X115731800Y-87609635D01*
X115731800Y-87790364D01*
X115760072Y-87968867D01*
X115815923Y-88140758D01*
X115897974Y-88301791D01*
X116004196Y-88447996D01*
X116132003Y-88575803D01*
X116268817Y-88675202D01*
X116278212Y-88682028D01*
X116439244Y-88764078D01*
X116611129Y-88819927D01*
X116789635Y-88848200D01*
X116970365Y-88848200D01*
X117148871Y-88819927D01*
X117320756Y-88764078D01*
X117481788Y-88682028D01*
X117599786Y-88596298D01*
X117627996Y-88575803D01*
X117627998Y-88575800D01*
X117628002Y-88575798D01*
X117755798Y-88448002D01*
X117755800Y-88447998D01*
X117755803Y-88447996D01*
X117802385Y-88383879D01*
X117862028Y-88301788D01*
X117944078Y-88140756D01*
X117999927Y-87968871D01*
X118028200Y-87790365D01*
X118028200Y-87609635D01*
X117999927Y-87431129D01*
X117944078Y-87259244D01*
X117862028Y-87098212D01*
X117825827Y-87048385D01*
X117755803Y-86952003D01*
X117627996Y-86824196D01*
X117481791Y-86717974D01*
X117481790Y-86717973D01*
X117481788Y-86717972D01*
X117320756Y-86635922D01*
X117148871Y-86580073D01*
X117148869Y-86580072D01*
X117148867Y-86580072D01*
X116988552Y-86554680D01*
X116988549Y-86554680D01*
X116970365Y-86551800D01*
X116789635Y-86551800D01*
X116611129Y-86580073D01*
X116607593Y-86581222D01*
X116439241Y-86635923D01*
X116278208Y-86717974D01*
X116132003Y-86824196D01*
X116004196Y-86952003D01*
X115897974Y-87098208D01*
X115815923Y-87259241D01*
X115760072Y-87431132D01*
X115731800Y-87609635D01*
X82665503Y-87609635D01*
X82613666Y-85069635D01*
X115731800Y-85069635D01*
X115731800Y-85250364D01*
X115760072Y-85428867D01*
X115815923Y-85600758D01*
X115897974Y-85761791D01*
X116004196Y-85907996D01*
X116132003Y-86035803D01*
X116253565Y-86124121D01*
X116278212Y-86142028D01*
X116439244Y-86224078D01*
X116611129Y-86279927D01*
X116789635Y-86308200D01*
X116970365Y-86308200D01*
X117148871Y-86279927D01*
X117320756Y-86224078D01*
X117481788Y-86142028D01*
X117579056Y-86071359D01*
X117627996Y-86035803D01*
X117627998Y-86035800D01*
X117628002Y-86035798D01*
X117755798Y-85908002D01*
X117755800Y-85907998D01*
X117755803Y-85907996D01*
X117802385Y-85843879D01*
X117862028Y-85761788D01*
X117944078Y-85600756D01*
X117999927Y-85428871D01*
X118028200Y-85250365D01*
X118028200Y-85069635D01*
X117999927Y-84891129D01*
X117944078Y-84719244D01*
X117862028Y-84558212D01*
X117829673Y-84513679D01*
X117755803Y-84412003D01*
X117627996Y-84284196D01*
X117481791Y-84177974D01*
X117481790Y-84177973D01*
X117481788Y-84177972D01*
X117320756Y-84095922D01*
X117148871Y-84040073D01*
X117148869Y-84040072D01*
X117148867Y-84040072D01*
X116988552Y-84014680D01*
X116988549Y-84014680D01*
X116970365Y-84011800D01*
X116789635Y-84011800D01*
X116611129Y-84040073D01*
X116607593Y-84041222D01*
X116439241Y-84095923D01*
X116278208Y-84177974D01*
X116132003Y-84284196D01*
X116004196Y-84412003D01*
X115897974Y-84558208D01*
X115815923Y-84719241D01*
X115760072Y-84891132D01*
X115731800Y-85069635D01*
X82613666Y-85069635D01*
X82509992Y-79989635D01*
X115731800Y-79989635D01*
X115731800Y-80170365D01*
X115736937Y-80202797D01*
X115760053Y-80348750D01*
X115760073Y-80348871D01*
X115815922Y-80520756D01*
X115862343Y-80611863D01*
X115897974Y-80681791D01*
X116004196Y-80827996D01*
X116132003Y-80955803D01*
X116262262Y-81050440D01*
X116278212Y-81062028D01*
X116439244Y-81144078D01*
X116611129Y-81199927D01*
X116774148Y-81225747D01*
X116785386Y-81227527D01*
X116848521Y-81257456D01*
X116885452Y-81316768D01*
X116884454Y-81386630D01*
X116845844Y-81444863D01*
X116785386Y-81472473D01*
X116611132Y-81500072D01*
X116439241Y-81555923D01*
X116278208Y-81637974D01*
X116132003Y-81744196D01*
X116004196Y-81872003D01*
X115897974Y-82018208D01*
X115815923Y-82179241D01*
X115760072Y-82351132D01*
X115731800Y-82529635D01*
X115731800Y-82710364D01*
X115760072Y-82888867D01*
X115815923Y-83060758D01*
X115897974Y-83221791D01*
X116004196Y-83367996D01*
X116132003Y-83495803D01*
X116268817Y-83595202D01*
X116278212Y-83602028D01*
X116439244Y-83684078D01*
X116611129Y-83739927D01*
X116789635Y-83768200D01*
X116970365Y-83768200D01*
X117148871Y-83739927D01*
X117320756Y-83684078D01*
X117481788Y-83602028D01*
X117599786Y-83516298D01*
X117627996Y-83495803D01*
X117627998Y-83495800D01*
X117628002Y-83495798D01*
X117755798Y-83368002D01*
X117755800Y-83367998D01*
X117755803Y-83367996D01*
X117802385Y-83303879D01*
X117862028Y-83221788D01*
X117944078Y-83060756D01*
X117999927Y-82888871D01*
X118028200Y-82710365D01*
X118028200Y-82529635D01*
X118002800Y-82369268D01*
X118011755Y-82299975D01*
X118056751Y-82246523D01*
X118123502Y-82225883D01*
X118190816Y-82244608D01*
X118212954Y-82262189D01*
X120973181Y-85022416D01*
X121006666Y-85083739D01*
X121009500Y-85110097D01*
X121009500Y-101088397D01*
X120989815Y-101155436D01*
X120937011Y-101201191D01*
X120867853Y-101211135D01*
X120847183Y-101206328D01*
X120776134Y-101183243D01*
X120776127Y-101183242D01*
X120566246Y-101150000D01*
X120353754Y-101150000D01*
X120143872Y-101183242D01*
X120143869Y-101183242D01*
X119941782Y-101248904D01*
X119752439Y-101345380D01*
X119698282Y-101384727D01*
X119698282Y-101384728D01*
X120330591Y-102017037D01*
X120267007Y-102034075D01*
X120152993Y-102099901D01*
X120059901Y-102192993D01*
X119994075Y-102307007D01*
X119977037Y-102370591D01*
X119344728Y-101738282D01*
X119344727Y-101738282D01*
X119305380Y-101792439D01*
X119208904Y-101981782D01*
X119143242Y-102183869D01*
X119143242Y-102183872D01*
X119110000Y-102393753D01*
X119110000Y-102606246D01*
X119143242Y-102816127D01*
X119143242Y-102816130D01*
X119208904Y-103018217D01*
X119305375Y-103207550D01*
X119344728Y-103261716D01*
X119977037Y-102629408D01*
X119994075Y-102692993D01*
X120059901Y-102807007D01*
X120152993Y-102900099D01*
X120267007Y-102965925D01*
X120330589Y-102982962D01*
X119698282Y-103615269D01*
X119698282Y-103615270D01*
X119752449Y-103654624D01*
X119941782Y-103751095D01*
X120143870Y-103816757D01*
X120353754Y-103850000D01*
X120566246Y-103850000D01*
X120776127Y-103816757D01*
X120776130Y-103816757D01*
X120978219Y-103751093D01*
X120979852Y-103750262D01*
X120980539Y-103750132D01*
X120982719Y-103749230D01*
X120982908Y-103749687D01*
X121048521Y-103737365D01*
X121113262Y-103763640D01*
X121123829Y-103773064D01*
X121129478Y-103778713D01*
X121129480Y-103778716D01*
X121241284Y-103890520D01*
X121241286Y-103890521D01*
X121248356Y-103897591D01*
X135215139Y-117864374D01*
X135215149Y-117864385D01*
X135219479Y-117868715D01*
X135219480Y-117868716D01*
X135331284Y-117980520D01*
X135418095Y-118030639D01*
X135418097Y-118030641D01*
X135456151Y-118052611D01*
X135468215Y-118059577D01*
X135620943Y-118100500D01*
X135779057Y-118100500D01*
X137158164Y-118100500D01*
X137225203Y-118120185D01*
X137268648Y-118168204D01*
X137302185Y-118234023D01*
X137431752Y-118412358D01*
X137431756Y-118412363D01*
X137481928Y-118462535D01*
X137515413Y-118523858D01*
X137510429Y-118593550D01*
X137468557Y-118649483D01*
X137437581Y-118666398D01*
X137357669Y-118696203D01*
X137357664Y-118696206D01*
X137242455Y-118782452D01*
X137242452Y-118782455D01*
X137156206Y-118897664D01*
X137156202Y-118897671D01*
X137105908Y-119032517D01*
X137099501Y-119092116D01*
X137099501Y-119092123D01*
X137099500Y-119092135D01*
X137099500Y-120987870D01*
X137099501Y-120987876D01*
X137105908Y-121047483D01*
X137156202Y-121182328D01*
X137156206Y-121182335D01*
X137242452Y-121297544D01*
X137242455Y-121297547D01*
X137357664Y-121383793D01*
X137357671Y-121383797D01*
X137492517Y-121434091D01*
X137492516Y-121434091D01*
X137499444Y-121434835D01*
X137552127Y-121440500D01*
X139447872Y-121440499D01*
X139507483Y-121434091D01*
X139642331Y-121383796D01*
X139757546Y-121297546D01*
X139843796Y-121182331D01*
X139894091Y-121047483D01*
X139900500Y-120987873D01*
X139900499Y-119092128D01*
X139894091Y-119032517D01*
X139843796Y-118897669D01*
X139843795Y-118897668D01*
X139843793Y-118897664D01*
X139757547Y-118782455D01*
X139757544Y-118782452D01*
X139642335Y-118696206D01*
X139642328Y-118696202D01*
X139562419Y-118666398D01*
X139506485Y-118624527D01*
X139482068Y-118559062D01*
X139496920Y-118490789D01*
X139518069Y-118462537D01*
X139568242Y-118412365D01*
X139697815Y-118234022D01*
X139797895Y-118037606D01*
X139866015Y-117827951D01*
X139900500Y-117610222D01*
X139900500Y-117389778D01*
X139866015Y-117172049D01*
X139797895Y-116962394D01*
X139797895Y-116962393D01*
X139731351Y-116831796D01*
X139697815Y-116765978D01*
X139642614Y-116690000D01*
X139568247Y-116587641D01*
X139568243Y-116587636D01*
X139412363Y-116431756D01*
X139412358Y-116431752D01*
X139234025Y-116302187D01*
X139234024Y-116302186D01*
X139234022Y-116302185D01*
X139171096Y-116270122D01*
X139037606Y-116202104D01*
X139037603Y-116202103D01*
X138827952Y-116133985D01*
X138719086Y-116116742D01*
X138610222Y-116099500D01*
X138389778Y-116099500D01*
X138317201Y-116110995D01*
X138172047Y-116133985D01*
X137962396Y-116202103D01*
X137962393Y-116202104D01*
X137765974Y-116302187D01*
X137587641Y-116431752D01*
X137587636Y-116431756D01*
X137431756Y-116587636D01*
X137431752Y-116587641D01*
X137302185Y-116765976D01*
X137268648Y-116831796D01*
X137220674Y-116882591D01*
X137158164Y-116899500D01*
X136000097Y-116899500D01*
X135933058Y-116879815D01*
X135912416Y-116863181D01*
X123111415Y-104062180D01*
X123077930Y-104000857D01*
X123082914Y-103931165D01*
X123124786Y-103875232D01*
X123190250Y-103850815D01*
X123199096Y-103850499D01*
X123897871Y-103850499D01*
X123897872Y-103850499D01*
X123957483Y-103844091D01*
X124092331Y-103793796D01*
X124207546Y-103707546D01*
X124293796Y-103592331D01*
X124344091Y-103457483D01*
X124350500Y-103397873D01*
X124350499Y-101602128D01*
X124344091Y-101542517D01*
X124293796Y-101407669D01*
X124293795Y-101407668D01*
X124293793Y-101407664D01*
X124207547Y-101292455D01*
X124207544Y-101292452D01*
X124092335Y-101206206D01*
X124092328Y-101206202D01*
X123957482Y-101155908D01*
X123957483Y-101155908D01*
X123897883Y-101149501D01*
X123897881Y-101149500D01*
X123897873Y-101149500D01*
X123897865Y-101149500D01*
X123724500Y-101149500D01*
X123657461Y-101129815D01*
X123611706Y-101077011D01*
X123600500Y-101025500D01*
X123600500Y-91249092D01*
X123620185Y-91182053D01*
X123672989Y-91136298D01*
X123742147Y-91126354D01*
X123797385Y-91148774D01*
X123882260Y-91210438D01*
X123898212Y-91222028D01*
X124059244Y-91304078D01*
X124231129Y-91359927D01*
X124409635Y-91388200D01*
X124409636Y-91388200D01*
X124590364Y-91388200D01*
X124590365Y-91388200D01*
X124768871Y-91359927D01*
X124940756Y-91304078D01*
X125101788Y-91222028D01*
X125219786Y-91136298D01*
X125247996Y-91115803D01*
X125247998Y-91115800D01*
X125248002Y-91115798D01*
X125375798Y-90988002D01*
X125445827Y-90891613D01*
X125501156Y-90848949D01*
X125546145Y-90840500D01*
X134209903Y-90840500D01*
X134276942Y-90860185D01*
X134297584Y-90876819D01*
X138808583Y-95387819D01*
X138842068Y-95449142D01*
X138837084Y-95518834D01*
X138795212Y-95574767D01*
X138729748Y-95599184D01*
X138720902Y-95599500D01*
X137782129Y-95599500D01*
X137782123Y-95599501D01*
X137722516Y-95605908D01*
X137587671Y-95656202D01*
X137587664Y-95656206D01*
X137472455Y-95742452D01*
X137472452Y-95742455D01*
X137386206Y-95857664D01*
X137386202Y-95857671D01*
X137335908Y-95992517D01*
X137329501Y-96052116D01*
X137329500Y-96052135D01*
X137329500Y-97947870D01*
X137329501Y-97947876D01*
X137335908Y-98007483D01*
X137386202Y-98142328D01*
X137386206Y-98142335D01*
X137472452Y-98257544D01*
X137472455Y-98257547D01*
X137587664Y-98343793D01*
X137587671Y-98343797D01*
X137722517Y-98394091D01*
X137722516Y-98394091D01*
X137729444Y-98394835D01*
X137782127Y-98400500D01*
X139677872Y-98400499D01*
X139737483Y-98394091D01*
X139872331Y-98343796D01*
X139987546Y-98257546D01*
X140073796Y-98142331D01*
X140101429Y-98068243D01*
X140103601Y-98062420D01*
X140145471Y-98006486D01*
X140210936Y-97982068D01*
X140279209Y-97996919D01*
X140307464Y-98018071D01*
X140357636Y-98068243D01*
X140357641Y-98068247D01*
X140459603Y-98142326D01*
X140535978Y-98197815D01*
X140664375Y-98263237D01*
X140732393Y-98297895D01*
X140732396Y-98297896D01*
X140837221Y-98331955D01*
X140942049Y-98366015D01*
X141159778Y-98400500D01*
X141159779Y-98400500D01*
X141380221Y-98400500D01*
X141380222Y-98400500D01*
X141597951Y-98366015D01*
X141807606Y-98297895D01*
X142004022Y-98197815D01*
X142182365Y-98068242D01*
X142338242Y-97912365D01*
X142467815Y-97734022D01*
X142567895Y-97537606D01*
X142636015Y-97327951D01*
X142670500Y-97110222D01*
X142670500Y-96889778D01*
X142636015Y-96672049D01*
X142579113Y-96496919D01*
X142567896Y-96462396D01*
X142567895Y-96462393D01*
X142507466Y-96343797D01*
X142467815Y-96265978D01*
X142377979Y-96142328D01*
X142338247Y-96087641D01*
X142338243Y-96087636D01*
X142182363Y-95931756D01*
X142182358Y-95931752D01*
X142004025Y-95802187D01*
X142004024Y-95802186D01*
X142004022Y-95802185D01*
X141886791Y-95742452D01*
X141807606Y-95702104D01*
X141807603Y-95702103D01*
X141597952Y-95633985D01*
X141489086Y-95616742D01*
X141380222Y-95599500D01*
X141159778Y-95599500D01*
X141092082Y-95610222D01*
X140942047Y-95633985D01*
X140871796Y-95656811D01*
X140801955Y-95658806D01*
X140745797Y-95626561D01*
X134997590Y-89878355D01*
X134997588Y-89878352D01*
X134878717Y-89759481D01*
X134878716Y-89759480D01*
X134791904Y-89709360D01*
X134791904Y-89709359D01*
X134791900Y-89709358D01*
X134741785Y-89680423D01*
X134589057Y-89639499D01*
X134430943Y-89639499D01*
X134423347Y-89639499D01*
X134423331Y-89639500D01*
X125546145Y-89639500D01*
X125479106Y-89619815D01*
X125445828Y-89588387D01*
X125375798Y-89491998D01*
X125248002Y-89364202D01*
X125247996Y-89364196D01*
X125101791Y-89257974D01*
X125101790Y-89257973D01*
X125101788Y-89257972D01*
X124940756Y-89175922D01*
X124768871Y-89120073D01*
X124768869Y-89120072D01*
X124768867Y-89120072D01*
X124608552Y-89094680D01*
X124608549Y-89094680D01*
X124590365Y-89091800D01*
X124409635Y-89091800D01*
X124231129Y-89120073D01*
X124227593Y-89121222D01*
X124059241Y-89175923D01*
X123898209Y-89257973D01*
X123797384Y-89331226D01*
X123731578Y-89354705D01*
X123663524Y-89338879D01*
X123614830Y-89288773D01*
X123600500Y-89230907D01*
X123600500Y-88709092D01*
X123620185Y-88642053D01*
X123672989Y-88596298D01*
X123742147Y-88586354D01*
X123797385Y-88608774D01*
X123885103Y-88672504D01*
X123898212Y-88682028D01*
X124059244Y-88764078D01*
X124231129Y-88819927D01*
X124409635Y-88848200D01*
X124590365Y-88848200D01*
X124768871Y-88819927D01*
X124940756Y-88764078D01*
X125101788Y-88682028D01*
X125219786Y-88596298D01*
X125247996Y-88575803D01*
X125247998Y-88575800D01*
X125248002Y-88575798D01*
X125375798Y-88448002D01*
X125445827Y-88351613D01*
X125501156Y-88308949D01*
X125546145Y-88300500D01*
X153399903Y-88300500D01*
X153466942Y-88320185D01*
X153487584Y-88336819D01*
X159038583Y-93887819D01*
X159072068Y-93949142D01*
X159067084Y-94018834D01*
X159025212Y-94074767D01*
X158959748Y-94099184D01*
X158950902Y-94099500D01*
X158012129Y-94099500D01*
X158012123Y-94099501D01*
X157952516Y-94105908D01*
X157817671Y-94156202D01*
X157817664Y-94156206D01*
X157702455Y-94242452D01*
X157702452Y-94242455D01*
X157616206Y-94357664D01*
X157616202Y-94357671D01*
X157565908Y-94492517D01*
X157559501Y-94552116D01*
X157559500Y-94552135D01*
X157559500Y-96447870D01*
X157559501Y-96447876D01*
X157565908Y-96507483D01*
X157616202Y-96642328D01*
X157616206Y-96642335D01*
X157702452Y-96757544D01*
X157702455Y-96757547D01*
X157817664Y-96843793D01*
X157817671Y-96843797D01*
X157952517Y-96894091D01*
X157952516Y-96894091D01*
X157959444Y-96894835D01*
X158012127Y-96900500D01*
X159907872Y-96900499D01*
X159967483Y-96894091D01*
X160102331Y-96843796D01*
X160217546Y-96757546D01*
X160303796Y-96642331D01*
X160331429Y-96568243D01*
X160333601Y-96562420D01*
X160375471Y-96506486D01*
X160440936Y-96482068D01*
X160509209Y-96496919D01*
X160537464Y-96518071D01*
X160587636Y-96568243D01*
X160587641Y-96568247D01*
X160689603Y-96642326D01*
X160765978Y-96697815D01*
X160894375Y-96763237D01*
X160962393Y-96797895D01*
X160962396Y-96797896D01*
X161067221Y-96831955D01*
X161172049Y-96866015D01*
X161389778Y-96900500D01*
X161389779Y-96900500D01*
X161610221Y-96900500D01*
X161610222Y-96900500D01*
X161827951Y-96866015D01*
X162037606Y-96797895D01*
X162234022Y-96697815D01*
X162412365Y-96568242D01*
X162568242Y-96412365D01*
X162697815Y-96234022D01*
X162797895Y-96037606D01*
X162866015Y-95827951D01*
X162900500Y-95610222D01*
X162900500Y-95389778D01*
X162866015Y-95172049D01*
X162797895Y-94962394D01*
X162797895Y-94962393D01*
X162760895Y-94889778D01*
X162697815Y-94765978D01*
X162629571Y-94672047D01*
X162568247Y-94587641D01*
X162568243Y-94587636D01*
X162412363Y-94431756D01*
X162412358Y-94431752D01*
X162234025Y-94302187D01*
X162234024Y-94302186D01*
X162234022Y-94302185D01*
X162116791Y-94242452D01*
X162037606Y-94202104D01*
X162037603Y-94202103D01*
X161827952Y-94133985D01*
X161719086Y-94116742D01*
X161610222Y-94099500D01*
X161389778Y-94099500D01*
X161317201Y-94110995D01*
X161172047Y-94133985D01*
X161101796Y-94156811D01*
X161031955Y-94158806D01*
X160975797Y-94126561D01*
X154187590Y-87338355D01*
X154187588Y-87338352D01*
X154068717Y-87219481D01*
X154068716Y-87219480D01*
X153981904Y-87169360D01*
X153981904Y-87169359D01*
X153981900Y-87169358D01*
X153931785Y-87140423D01*
X153779057Y-87099499D01*
X153620943Y-87099499D01*
X153613347Y-87099499D01*
X153613331Y-87099500D01*
X125546145Y-87099500D01*
X125479106Y-87079815D01*
X125445828Y-87048387D01*
X125375798Y-86951998D01*
X125248002Y-86824202D01*
X125247996Y-86824196D01*
X125101791Y-86717974D01*
X125101790Y-86717973D01*
X125101788Y-86717972D01*
X124940756Y-86635922D01*
X124768871Y-86580073D01*
X124768869Y-86580072D01*
X124768867Y-86580072D01*
X124608552Y-86554680D01*
X124608549Y-86554680D01*
X124590365Y-86551800D01*
X124409635Y-86551800D01*
X124231129Y-86580073D01*
X124227593Y-86581222D01*
X124059241Y-86635923D01*
X123898209Y-86717973D01*
X123797384Y-86791226D01*
X123731578Y-86814705D01*
X123663524Y-86798879D01*
X123614830Y-86748773D01*
X123600500Y-86690907D01*
X123600500Y-86169092D01*
X123604047Y-86157011D01*
X123602970Y-86144467D01*
X123613704Y-86124121D01*
X123620185Y-86102053D01*
X123629698Y-86093809D01*
X123635575Y-86082672D01*
X123655607Y-86071359D01*
X123672989Y-86056298D01*
X123685450Y-86054506D01*
X123696414Y-86048315D01*
X123719378Y-86049627D01*
X123742147Y-86046354D01*
X123755268Y-86051679D01*
X123766170Y-86052303D01*
X123796833Y-86068375D01*
X123797153Y-86068604D01*
X123898212Y-86142028D01*
X124059244Y-86224078D01*
X124231129Y-86279927D01*
X124409635Y-86308200D01*
X124590365Y-86308200D01*
X124768871Y-86279927D01*
X124940756Y-86224078D01*
X125101788Y-86142028D01*
X125199056Y-86071359D01*
X125247996Y-86035803D01*
X125247998Y-86035800D01*
X125248002Y-86035798D01*
X125375798Y-85908002D01*
X125375800Y-85907998D01*
X125375803Y-85907996D01*
X125422385Y-85843879D01*
X125482028Y-85761788D01*
X125564078Y-85600756D01*
X125619927Y-85428871D01*
X125648200Y-85250365D01*
X125648200Y-85069635D01*
X125619927Y-84891129D01*
X125564078Y-84719244D01*
X125482028Y-84558212D01*
X125449673Y-84513679D01*
X125375803Y-84412003D01*
X125247996Y-84284196D01*
X125101791Y-84177974D01*
X125101790Y-84177973D01*
X125101788Y-84177972D01*
X124940756Y-84095922D01*
X124768871Y-84040073D01*
X124768869Y-84040072D01*
X124768867Y-84040072D01*
X124608552Y-84014680D01*
X124608549Y-84014680D01*
X124590365Y-84011800D01*
X124409635Y-84011800D01*
X124231129Y-84040073D01*
X124227593Y-84041222D01*
X124059241Y-84095923D01*
X123898209Y-84177973D01*
X123797384Y-84251226D01*
X123731578Y-84274705D01*
X123663524Y-84258879D01*
X123614830Y-84208773D01*
X123600500Y-84150907D01*
X123600500Y-83629092D01*
X123620185Y-83562053D01*
X123672989Y-83516298D01*
X123742147Y-83506354D01*
X123797385Y-83528774D01*
X123885103Y-83592504D01*
X123898212Y-83602028D01*
X124059244Y-83684078D01*
X124231129Y-83739927D01*
X124409635Y-83768200D01*
X124590365Y-83768200D01*
X124768871Y-83739927D01*
X124940756Y-83684078D01*
X125101788Y-83602028D01*
X125219786Y-83516298D01*
X125247996Y-83495803D01*
X125247998Y-83495800D01*
X125248002Y-83495798D01*
X125375798Y-83368002D01*
X125375800Y-83367998D01*
X125375803Y-83367996D01*
X125422385Y-83303879D01*
X125482028Y-83221788D01*
X125564078Y-83060756D01*
X125619927Y-82888871D01*
X125648200Y-82710365D01*
X125648200Y-82529635D01*
X125619927Y-82351129D01*
X125564078Y-82179244D01*
X125482028Y-82018212D01*
X125475202Y-82008817D01*
X125375803Y-81872003D01*
X125247996Y-81744196D01*
X125101791Y-81637974D01*
X125101790Y-81637973D01*
X125101788Y-81637972D01*
X124940756Y-81555922D01*
X124768871Y-81500073D01*
X124768869Y-81500072D01*
X124768867Y-81500072D01*
X124607011Y-81474436D01*
X124607008Y-81474436D01*
X124590365Y-81471800D01*
X124409635Y-81471800D01*
X124231129Y-81500073D01*
X124227639Y-81501206D01*
X124227637Y-81501207D01*
X124059241Y-81555923D01*
X123898209Y-81637973D01*
X123797384Y-81711226D01*
X123731578Y-81734705D01*
X123663524Y-81718879D01*
X123614830Y-81668773D01*
X123600500Y-81610907D01*
X123600500Y-81088473D01*
X123604047Y-81076391D01*
X123602970Y-81063847D01*
X123613705Y-81043501D01*
X123620185Y-81021434D01*
X123629699Y-81013190D01*
X123635576Y-81002052D01*
X123655608Y-80990739D01*
X123672989Y-80975679D01*
X123685449Y-80973887D01*
X123696415Y-80967695D01*
X123719380Y-80969008D01*
X123742147Y-80965735D01*
X123755270Y-80971061D01*
X123766171Y-80971685D01*
X123796835Y-80987758D01*
X123902519Y-81063662D01*
X124059433Y-81143613D01*
X124231249Y-81199440D01*
X124397340Y-81225747D01*
X124602659Y-81225747D01*
X124768750Y-81199440D01*
X124940566Y-81143613D01*
X125101528Y-81061599D01*
X125101532Y-81061597D01*
X125116886Y-81050440D01*
X125116887Y-81050440D01*
X124540147Y-80473700D01*
X124551832Y-80473700D01*
X124651962Y-80446870D01*
X124741737Y-80395038D01*
X124815038Y-80321737D01*
X124866870Y-80231962D01*
X124893700Y-80131832D01*
X124893700Y-80120147D01*
X125470439Y-80696887D01*
X125470440Y-80696886D01*
X125481597Y-80681532D01*
X125481599Y-80681528D01*
X125563613Y-80520566D01*
X125619440Y-80348750D01*
X125647700Y-80170331D01*
X125647700Y-79989668D01*
X125619440Y-79811249D01*
X125563613Y-79639433D01*
X125481602Y-79478477D01*
X125472320Y-79465701D01*
X125470439Y-79463112D01*
X124893700Y-80039851D01*
X124893700Y-80028168D01*
X124866870Y-79928038D01*
X124815038Y-79838263D01*
X124741737Y-79764962D01*
X124651962Y-79713130D01*
X124551832Y-79686300D01*
X124540146Y-79686300D01*
X125116886Y-79109559D01*
X125116886Y-79109558D01*
X125101529Y-79098401D01*
X124940566Y-79016386D01*
X124768750Y-78960559D01*
X124768752Y-78960559D01*
X124607012Y-78934941D01*
X124227749Y-78961696D01*
X124059433Y-79016386D01*
X123898473Y-79098399D01*
X123797386Y-79171844D01*
X123731579Y-79195324D01*
X123663525Y-79179499D01*
X123614830Y-79129393D01*
X123600500Y-79071526D01*
X123600500Y-78549092D01*
X123620185Y-78482053D01*
X123672989Y-78436298D01*
X123742147Y-78426354D01*
X123797385Y-78448774D01*
X123885103Y-78512504D01*
X123898212Y-78522028D01*
X124059244Y-78604078D01*
X124231129Y-78659927D01*
X124409635Y-78688200D01*
X124590365Y-78688200D01*
X124768871Y-78659927D01*
X124940756Y-78604078D01*
X125101788Y-78522028D01*
X125219786Y-78436298D01*
X125247996Y-78415803D01*
X125247998Y-78415800D01*
X125248002Y-78415798D01*
X125375798Y-78288002D01*
X125445827Y-78191613D01*
X125501156Y-78148949D01*
X125546145Y-78140500D01*
X127743288Y-78140500D01*
X127810327Y-78160185D01*
X127856082Y-78212989D01*
X127866026Y-78282147D01*
X127837001Y-78345703D01*
X127799583Y-78374984D01*
X127773766Y-78388138D01*
X127773758Y-78388143D01*
X127729190Y-78420523D01*
X127729190Y-78420524D01*
X128408666Y-79100000D01*
X128402452Y-79100000D01*
X128300719Y-79127259D01*
X128209507Y-79179920D01*
X128135033Y-79254394D01*
X128082372Y-79345606D01*
X128055113Y-79447339D01*
X128055113Y-79453553D01*
X127375637Y-78774077D01*
X127375636Y-78774077D01*
X127343256Y-78818644D01*
X127250357Y-79000968D01*
X127187122Y-79195582D01*
X127155113Y-79397682D01*
X127155113Y-79602317D01*
X127187122Y-79804417D01*
X127250357Y-79999031D01*
X127343254Y-80181350D01*
X127343260Y-80181359D01*
X127375636Y-80225921D01*
X127375637Y-80225922D01*
X128055113Y-79546446D01*
X128055113Y-79552661D01*
X128082372Y-79654394D01*
X128135033Y-79745606D01*
X128209507Y-79820080D01*
X128300719Y-79872741D01*
X128402452Y-79900000D01*
X128408665Y-79900000D01*
X127729189Y-80579474D01*
X127773763Y-80611859D01*
X127956081Y-80704755D01*
X128150695Y-80767990D01*
X128352796Y-80800000D01*
X128557430Y-80800000D01*
X128759530Y-80767990D01*
X128954144Y-80704755D01*
X129136454Y-80611863D01*
X129136462Y-80611858D01*
X129206665Y-80560852D01*
X129272471Y-80537371D01*
X129340525Y-80553196D01*
X129367233Y-80573488D01*
X129436457Y-80642712D01*
X129585779Y-80734814D01*
X129752316Y-80789999D01*
X129855104Y-80800500D01*
X131055121Y-80800499D01*
X131157910Y-80789999D01*
X131324447Y-80734814D01*
X131473769Y-80642712D01*
X131597825Y-80518656D01*
X131689927Y-80369334D01*
X131745112Y-80202797D01*
X131755613Y-80100009D01*
X131755612Y-79602135D01*
X135149500Y-79602135D01*
X135149500Y-81397870D01*
X135149501Y-81397876D01*
X135155908Y-81457483D01*
X135206202Y-81592328D01*
X135206206Y-81592335D01*
X135292452Y-81707544D01*
X135292455Y-81707547D01*
X135407664Y-81793793D01*
X135407671Y-81793797D01*
X135542517Y-81844091D01*
X135542516Y-81844091D01*
X135549444Y-81844835D01*
X135602127Y-81850500D01*
X137397872Y-81850499D01*
X137457483Y-81844091D01*
X137592331Y-81793796D01*
X137707546Y-81707546D01*
X137793796Y-81592331D01*
X137844091Y-81457483D01*
X137850500Y-81397873D01*
X137850499Y-79602128D01*
X137844091Y-79542517D01*
X137828233Y-79500000D01*
X137793797Y-79407671D01*
X137793793Y-79407664D01*
X137707547Y-79292455D01*
X137707544Y-79292452D01*
X137592335Y-79206206D01*
X137592328Y-79206202D01*
X137457482Y-79155908D01*
X137457483Y-79155908D01*
X137397883Y-79149501D01*
X137397881Y-79149500D01*
X137397873Y-79149500D01*
X137397864Y-79149500D01*
X135602129Y-79149500D01*
X135602123Y-79149501D01*
X135542516Y-79155908D01*
X135407671Y-79206202D01*
X135407664Y-79206206D01*
X135292455Y-79292452D01*
X135292452Y-79292455D01*
X135206206Y-79407664D01*
X135206202Y-79407671D01*
X135155908Y-79542517D01*
X135154818Y-79552661D01*
X135149501Y-79602123D01*
X135149500Y-79602135D01*
X131755612Y-79602135D01*
X131755612Y-79500000D01*
X131755612Y-78899998D01*
X131755611Y-78899981D01*
X131745112Y-78797203D01*
X131745111Y-78797200D01*
X131737449Y-78774077D01*
X131689927Y-78630666D01*
X131597825Y-78481344D01*
X131473769Y-78357288D01*
X131468662Y-78352181D01*
X131435177Y-78290858D01*
X131440161Y-78221166D01*
X131482033Y-78165233D01*
X131547497Y-78140816D01*
X131556343Y-78140500D01*
X135138331Y-78140500D01*
X135138347Y-78140501D01*
X135145943Y-78140501D01*
X135304054Y-78140501D01*
X135304057Y-78140501D01*
X135456785Y-78099577D01*
X135506904Y-78070639D01*
X135593716Y-78020520D01*
X135705520Y-77908716D01*
X135705520Y-77908714D01*
X135715728Y-77898507D01*
X135715730Y-77898504D01*
X139015158Y-74599075D01*
X139076479Y-74565592D01*
X139141151Y-74568825D01*
X139155466Y-74573477D01*
X139357648Y-74605500D01*
X139357649Y-74605500D01*
X139562351Y-74605500D01*
X139562352Y-74605500D01*
X139764534Y-74573477D01*
X139959219Y-74510220D01*
X140141610Y-74417287D01*
X140234590Y-74349732D01*
X140307213Y-74296971D01*
X140307215Y-74296968D01*
X140307219Y-74296966D01*
X140451966Y-74152219D01*
X140451968Y-74152215D01*
X140451971Y-74152213D01*
X140572284Y-73986614D01*
X140572285Y-73986613D01*
X140572287Y-73986610D01*
X140619516Y-73893917D01*
X140667489Y-73843123D01*
X140735310Y-73826328D01*
X140801445Y-73848865D01*
X140840483Y-73893917D01*
X140861886Y-73935922D01*
X140887715Y-73986614D01*
X141008028Y-74152213D01*
X141152786Y-74296971D01*
X141307749Y-74409556D01*
X141318390Y-74417287D01*
X141434607Y-74476503D01*
X141500776Y-74510218D01*
X141500778Y-74510218D01*
X141500781Y-74510220D01*
X141590459Y-74539358D01*
X141695465Y-74573477D01*
X141796557Y-74589488D01*
X141897648Y-74605500D01*
X141897649Y-74605500D01*
X142102351Y-74605500D01*
X142102352Y-74605500D01*
X142304534Y-74573477D01*
X142499219Y-74510220D01*
X142681610Y-74417287D01*
X142774590Y-74349732D01*
X142847213Y-74296971D01*
X142847215Y-74296968D01*
X142847219Y-74296966D01*
X142991966Y-74152219D01*
X142991968Y-74152215D01*
X142991971Y-74152213D01*
X143060383Y-74058050D01*
X143112287Y-73986610D01*
X143205220Y-73804219D01*
X143268477Y-73609534D01*
X143300500Y-73407352D01*
X143300500Y-73202648D01*
X143278190Y-73061788D01*
X143268477Y-73000465D01*
X143205218Y-72805776D01*
X143160028Y-72717087D01*
X143112287Y-72623390D01*
X143072035Y-72567987D01*
X142991971Y-72457786D01*
X142847213Y-72313028D01*
X142681613Y-72192715D01*
X142681612Y-72192714D01*
X142681610Y-72192713D01*
X142622675Y-72162684D01*
X142499223Y-72099781D01*
X142304534Y-72036522D01*
X142129995Y-72008878D01*
X142102352Y-72004500D01*
X141897648Y-72004500D01*
X141873329Y-72008351D01*
X141695465Y-72036522D01*
X141500776Y-72099781D01*
X141318386Y-72192715D01*
X141152786Y-72313028D01*
X141008028Y-72457786D01*
X140887715Y-72623386D01*
X140840485Y-72716080D01*
X140792510Y-72766876D01*
X140724689Y-72783671D01*
X140658554Y-72761134D01*
X140619515Y-72716080D01*
X140595037Y-72668040D01*
X140572287Y-72623390D01*
X140532035Y-72567987D01*
X140451971Y-72457786D01*
X140307213Y-72313028D01*
X140141613Y-72192715D01*
X140141612Y-72192714D01*
X140141610Y-72192713D01*
X140082675Y-72162684D01*
X139959223Y-72099781D01*
X139764534Y-72036522D01*
X139589995Y-72008878D01*
X139562352Y-72004500D01*
X139357648Y-72004500D01*
X139333329Y-72008351D01*
X139155465Y-72036522D01*
X138960776Y-72099781D01*
X138778386Y-72192715D01*
X138612786Y-72313028D01*
X138468028Y-72457786D01*
X138347715Y-72623386D01*
X138300485Y-72716080D01*
X138252510Y-72766876D01*
X138184689Y-72783671D01*
X138118554Y-72761134D01*
X138079515Y-72716080D01*
X138055037Y-72668040D01*
X138032287Y-72623390D01*
X137992035Y-72567987D01*
X137911971Y-72457786D01*
X137767213Y-72313028D01*
X137601613Y-72192715D01*
X137601612Y-72192714D01*
X137601610Y-72192713D01*
X137542675Y-72162684D01*
X137419223Y-72099781D01*
X137224534Y-72036522D01*
X137049995Y-72008878D01*
X137022352Y-72004500D01*
X136817648Y-72004500D01*
X136793329Y-72008351D01*
X136615465Y-72036522D01*
X136420776Y-72099781D01*
X136238386Y-72192715D01*
X136072786Y-72313028D01*
X135928032Y-72457782D01*
X135859616Y-72551949D01*
X135804286Y-72594614D01*
X135734672Y-72600593D01*
X135672877Y-72567987D01*
X135641592Y-72518067D01*
X135614358Y-72435880D01*
X135614356Y-72435875D01*
X135522315Y-72286654D01*
X135398345Y-72162684D01*
X135249124Y-72070643D01*
X135249119Y-72070641D01*
X135082697Y-72015494D01*
X135082690Y-72015493D01*
X134979986Y-72005000D01*
X134630000Y-72005000D01*
X134630000Y-72989314D01*
X134625606Y-72984920D01*
X134534394Y-72932259D01*
X134432661Y-72905000D01*
X134327339Y-72905000D01*
X134225606Y-72932259D01*
X134134394Y-72984920D01*
X134130000Y-72989314D01*
X134130000Y-72005000D01*
X133780028Y-72005000D01*
X133780012Y-72005001D01*
X133677302Y-72015494D01*
X133510880Y-72070641D01*
X133510875Y-72070643D01*
X133361654Y-72162684D01*
X133237684Y-72286654D01*
X133145643Y-72435875D01*
X133145641Y-72435880D01*
X133090494Y-72602302D01*
X133090493Y-72602309D01*
X133080000Y-72705013D01*
X133080000Y-73055000D01*
X134064314Y-73055000D01*
X134059920Y-73059394D01*
X134007259Y-73150606D01*
X133980000Y-73252339D01*
X133980000Y-73357661D01*
X134007259Y-73459394D01*
X134059920Y-73550606D01*
X134064314Y-73555000D01*
X133080001Y-73555000D01*
X133080001Y-73904986D01*
X133090494Y-74007697D01*
X133145641Y-74174119D01*
X133145643Y-74174124D01*
X133237684Y-74323345D01*
X133361654Y-74447315D01*
X133510875Y-74539356D01*
X133510880Y-74539358D01*
X133677302Y-74594505D01*
X133677309Y-74594506D01*
X133780019Y-74604999D01*
X134129999Y-74604999D01*
X134130000Y-74604998D01*
X134130000Y-73620686D01*
X134134394Y-73625080D01*
X134225606Y-73677741D01*
X134327339Y-73705000D01*
X134432661Y-73705000D01*
X134534394Y-73677741D01*
X134625606Y-73625080D01*
X134630000Y-73620686D01*
X134630000Y-74604999D01*
X134979972Y-74604999D01*
X134979986Y-74604998D01*
X135082697Y-74594505D01*
X135249119Y-74539358D01*
X135249124Y-74539356D01*
X135398345Y-74447315D01*
X135522315Y-74323345D01*
X135614356Y-74174124D01*
X135614359Y-74174117D01*
X135641592Y-74091932D01*
X135681364Y-74034487D01*
X135745879Y-74007663D01*
X135814655Y-74019977D01*
X135859616Y-74058049D01*
X135907674Y-74124196D01*
X135928034Y-74152219D01*
X136072786Y-74296971D01*
X136227749Y-74409556D01*
X136238390Y-74417287D01*
X136354607Y-74476503D01*
X136420776Y-74510218D01*
X136420778Y-74510218D01*
X136420781Y-74510220D01*
X136510459Y-74539358D01*
X136615465Y-74573477D01*
X136716557Y-74589488D01*
X136817648Y-74605500D01*
X136817649Y-74605500D01*
X137010902Y-74605500D01*
X137077941Y-74625185D01*
X137123696Y-74677989D01*
X137133640Y-74747147D01*
X137104615Y-74810703D01*
X137098583Y-74817181D01*
X135012584Y-76903181D01*
X134951261Y-76936666D01*
X134924903Y-76939500D01*
X125546145Y-76939500D01*
X125479106Y-76919815D01*
X125445828Y-76888387D01*
X125375798Y-76791998D01*
X125248002Y-76664202D01*
X125247996Y-76664196D01*
X125101791Y-76557974D01*
X125101790Y-76557973D01*
X125101788Y-76557972D01*
X124940756Y-76475922D01*
X124768871Y-76420073D01*
X124768869Y-76420072D01*
X124768867Y-76420072D01*
X124607011Y-76394436D01*
X124607008Y-76394436D01*
X124590365Y-76391800D01*
X124409635Y-76391800D01*
X124231129Y-76420073D01*
X124227639Y-76421206D01*
X124227637Y-76421207D01*
X124059241Y-76475923D01*
X123898209Y-76557973D01*
X123797384Y-76631226D01*
X123731578Y-76654705D01*
X123663524Y-76638879D01*
X123614830Y-76588773D01*
X123600500Y-76530907D01*
X123600500Y-76008473D01*
X123604047Y-75996391D01*
X123602970Y-75983847D01*
X123613705Y-75963501D01*
X123620185Y-75941434D01*
X123629699Y-75933190D01*
X123635576Y-75922052D01*
X123655608Y-75910739D01*
X123672989Y-75895679D01*
X123685449Y-75893887D01*
X123696415Y-75887695D01*
X123719380Y-75889008D01*
X123742147Y-75885735D01*
X123755270Y-75891061D01*
X123766171Y-75891685D01*
X123796835Y-75907758D01*
X123902519Y-75983662D01*
X124059433Y-76063613D01*
X124231249Y-76119440D01*
X124397340Y-76145747D01*
X124602659Y-76145747D01*
X124768750Y-76119440D01*
X124940566Y-76063613D01*
X125101528Y-75981599D01*
X125101532Y-75981597D01*
X125116886Y-75970440D01*
X125116887Y-75970440D01*
X124540147Y-75393700D01*
X124551832Y-75393700D01*
X124651962Y-75366870D01*
X124741737Y-75315038D01*
X124815038Y-75241737D01*
X124866870Y-75151962D01*
X124893700Y-75051832D01*
X124893700Y-75040147D01*
X125470439Y-75616887D01*
X125470440Y-75616886D01*
X125481597Y-75601532D01*
X125481599Y-75601528D01*
X125563613Y-75440566D01*
X125619440Y-75268750D01*
X125637299Y-75156001D01*
X125647700Y-75090331D01*
X125647700Y-74909668D01*
X125619440Y-74731249D01*
X125563613Y-74559433D01*
X125481602Y-74398477D01*
X125470439Y-74383112D01*
X125470438Y-74383112D01*
X124893700Y-74959851D01*
X124893700Y-74948168D01*
X124866870Y-74848038D01*
X124815038Y-74758263D01*
X124741737Y-74684962D01*
X124651962Y-74633130D01*
X124551832Y-74606300D01*
X124540146Y-74606300D01*
X125116886Y-74029559D01*
X125116886Y-74029558D01*
X125101529Y-74018401D01*
X125041000Y-73987560D01*
X124940566Y-73936386D01*
X124773022Y-73881947D01*
X128000000Y-73881947D01*
X128000000Y-74118052D01*
X128036934Y-74351247D01*
X128109897Y-74575802D01*
X128217087Y-74786174D01*
X128277338Y-74869104D01*
X128277340Y-74869105D01*
X129017037Y-74129408D01*
X129034075Y-74192993D01*
X129099901Y-74307007D01*
X129192993Y-74400099D01*
X129307007Y-74465925D01*
X129370590Y-74482962D01*
X128630893Y-75222658D01*
X128713828Y-75282914D01*
X128924197Y-75390102D01*
X129148752Y-75463065D01*
X129148751Y-75463065D01*
X129381948Y-75500000D01*
X129618052Y-75500000D01*
X129851247Y-75463065D01*
X130075802Y-75390102D01*
X130286163Y-75282918D01*
X130286169Y-75282914D01*
X130369104Y-75222658D01*
X130369105Y-75222658D01*
X129629408Y-74482962D01*
X129692993Y-74465925D01*
X129807007Y-74400099D01*
X129900099Y-74307007D01*
X129965925Y-74192993D01*
X129982962Y-74129409D01*
X130722658Y-74869105D01*
X130722658Y-74869104D01*
X130782914Y-74786169D01*
X130782918Y-74786163D01*
X130890102Y-74575802D01*
X130963065Y-74351247D01*
X131000000Y-74118052D01*
X131000000Y-73881947D01*
X130963065Y-73648754D01*
X130928365Y-73541957D01*
X130928364Y-73541955D01*
X130890102Y-73424197D01*
X130782914Y-73213828D01*
X130722658Y-73130894D01*
X130722658Y-73130893D01*
X129982962Y-73870590D01*
X129965925Y-73807007D01*
X129900099Y-73692993D01*
X129807007Y-73599901D01*
X129692993Y-73534075D01*
X129629409Y-73517037D01*
X130369105Y-72777340D01*
X130369104Y-72777338D01*
X130286175Y-72717087D01*
X130075802Y-72609897D01*
X129851247Y-72536934D01*
X129851248Y-72536934D01*
X129618052Y-72500000D01*
X129381948Y-72500000D01*
X129148752Y-72536934D01*
X128924197Y-72609897D01*
X128713830Y-72717084D01*
X128630894Y-72777340D01*
X129370591Y-73517037D01*
X129307007Y-73534075D01*
X129192993Y-73599901D01*
X129099901Y-73692993D01*
X129034075Y-73807007D01*
X129017037Y-73870591D01*
X128277340Y-73130894D01*
X128217084Y-73213830D01*
X128109897Y-73424197D01*
X128036934Y-73648752D01*
X128000000Y-73881947D01*
X124773022Y-73881947D01*
X124768750Y-73880559D01*
X124768752Y-73880559D01*
X124593017Y-73852725D01*
X124529883Y-73822795D01*
X124492952Y-73763484D01*
X124493950Y-73693621D01*
X124532560Y-73635389D01*
X124593015Y-73607780D01*
X124768871Y-73579927D01*
X124940756Y-73524078D01*
X125101788Y-73442028D01*
X125217910Y-73357661D01*
X125247996Y-73335803D01*
X125247998Y-73335800D01*
X125248002Y-73335798D01*
X125375798Y-73208002D01*
X125375800Y-73207998D01*
X125375803Y-73207996D01*
X125431820Y-73130894D01*
X125482028Y-73061788D01*
X125564078Y-72900756D01*
X125619927Y-72728871D01*
X125648200Y-72550365D01*
X125648200Y-72369635D01*
X125619927Y-72191129D01*
X125564078Y-72019244D01*
X125482028Y-71858212D01*
X125475202Y-71848817D01*
X125375803Y-71712003D01*
X125247996Y-71584196D01*
X125101791Y-71477974D01*
X125101790Y-71477973D01*
X125101788Y-71477972D01*
X124940756Y-71395922D01*
X124768871Y-71340073D01*
X124768869Y-71340072D01*
X124768867Y-71340072D01*
X124630823Y-71318208D01*
X124590365Y-71311800D01*
X124409635Y-71311800D01*
X124369177Y-71318208D01*
X124231132Y-71340072D01*
X124059241Y-71395923D01*
X123898208Y-71477974D01*
X123752003Y-71584196D01*
X123624196Y-71712003D01*
X123517974Y-71858208D01*
X123435923Y-72019241D01*
X123380072Y-72191132D01*
X123351800Y-72369635D01*
X123351800Y-72550365D01*
X123351799Y-72550365D01*
X123370437Y-72668040D01*
X123361482Y-72737333D01*
X123335645Y-72775118D01*
X122631286Y-73479478D01*
X122519481Y-73591282D01*
X122519477Y-73591287D01*
X122471888Y-73673716D01*
X122440423Y-73728215D01*
X122399499Y-73880943D01*
X122399499Y-73880945D01*
X122399499Y-74049046D01*
X122399500Y-74049059D01*
X122399500Y-84513679D01*
X122379815Y-84580718D01*
X122327011Y-84626473D01*
X122257853Y-84636417D01*
X122194297Y-84607392D01*
X122168114Y-84575681D01*
X122140639Y-84528095D01*
X122140637Y-84528092D01*
X122132316Y-84513679D01*
X122090520Y-84441284D01*
X121978716Y-84329480D01*
X121978715Y-84329479D01*
X121974385Y-84325149D01*
X121974374Y-84325139D01*
X118044353Y-80395118D01*
X118010868Y-80333795D01*
X118009561Y-80288044D01*
X118028200Y-80170365D01*
X118028200Y-79989635D01*
X117999927Y-79811129D01*
X117944078Y-79639244D01*
X117862028Y-79478212D01*
X117839598Y-79447339D01*
X117755803Y-79332003D01*
X117627996Y-79204196D01*
X117481791Y-79097974D01*
X117481790Y-79097973D01*
X117481788Y-79097972D01*
X117320756Y-79015922D01*
X117148871Y-78960073D01*
X117148869Y-78960072D01*
X117148867Y-78960072D01*
X116988552Y-78934680D01*
X116988549Y-78934680D01*
X116970365Y-78931800D01*
X116789635Y-78931800D01*
X116611129Y-78960073D01*
X116607593Y-78961222D01*
X116439241Y-79015923D01*
X116278208Y-79097974D01*
X116132003Y-79204196D01*
X116004196Y-79332003D01*
X115897974Y-79478208D01*
X115815923Y-79639241D01*
X115760072Y-79811132D01*
X115759374Y-79815542D01*
X115731800Y-79989635D01*
X82509992Y-79989635D01*
X82500045Y-79502253D01*
X82500035Y-79497774D01*
X82502100Y-79366557D01*
X82532260Y-77449635D01*
X115731800Y-77449635D01*
X115731800Y-77630365D01*
X115760073Y-77808871D01*
X115815922Y-77980756D01*
X115897316Y-78140501D01*
X115897974Y-78141791D01*
X116004196Y-78287996D01*
X116132003Y-78415803D01*
X116268817Y-78515202D01*
X116278212Y-78522028D01*
X116439244Y-78604078D01*
X116611129Y-78659927D01*
X116789635Y-78688200D01*
X116970365Y-78688200D01*
X117148871Y-78659927D01*
X117320756Y-78604078D01*
X117481788Y-78522028D01*
X117599786Y-78436298D01*
X117627996Y-78415803D01*
X117627998Y-78415800D01*
X117628002Y-78415798D01*
X117755798Y-78288002D01*
X117755800Y-78287998D01*
X117755803Y-78287996D01*
X117820098Y-78199500D01*
X117862028Y-78141788D01*
X117944078Y-77980756D01*
X117999927Y-77808871D01*
X118028200Y-77630365D01*
X118028200Y-77449635D01*
X117999927Y-77271129D01*
X117944078Y-77099244D01*
X117862028Y-76938212D01*
X117825827Y-76888385D01*
X117755803Y-76792003D01*
X117627996Y-76664196D01*
X117481791Y-76557974D01*
X117481790Y-76557973D01*
X117481788Y-76557972D01*
X117320756Y-76475922D01*
X117148871Y-76420073D01*
X117148869Y-76420072D01*
X117148867Y-76420072D01*
X116988552Y-76394680D01*
X116988549Y-76394680D01*
X116970365Y-76391800D01*
X116789635Y-76391800D01*
X116611129Y-76420073D01*
X116607593Y-76421222D01*
X116439241Y-76475923D01*
X116278208Y-76557974D01*
X116132003Y-76664196D01*
X116004196Y-76792003D01*
X115897974Y-76938208D01*
X115815923Y-77099241D01*
X115760072Y-77271132D01*
X115731800Y-77449635D01*
X82532260Y-77449635D01*
X82545136Y-76631226D01*
X82621707Y-71764435D01*
X115731800Y-71764435D01*
X115731800Y-73155570D01*
X115731801Y-73155576D01*
X115738208Y-73215183D01*
X115788502Y-73350028D01*
X115788506Y-73350035D01*
X115874752Y-73465244D01*
X115874755Y-73465247D01*
X115989964Y-73551493D01*
X115989971Y-73551497D01*
X116124817Y-73601791D01*
X116124816Y-73601791D01*
X116131744Y-73602535D01*
X116184427Y-73608200D01*
X116752103Y-73608199D01*
X116819140Y-73627883D01*
X116864895Y-73680687D01*
X116874839Y-73749846D01*
X116845814Y-73813402D01*
X116787036Y-73851176D01*
X116771499Y-73854672D01*
X116611132Y-73880072D01*
X116439241Y-73935923D01*
X116278208Y-74017974D01*
X116132003Y-74124196D01*
X116004196Y-74252003D01*
X115897974Y-74398208D01*
X115815923Y-74559241D01*
X115760072Y-74731132D01*
X115731800Y-74909635D01*
X115731800Y-75090364D01*
X115760053Y-75268750D01*
X115760073Y-75268871D01*
X115815922Y-75440756D01*
X115846108Y-75500000D01*
X115897974Y-75601791D01*
X116004196Y-75747996D01*
X116132003Y-75875803D01*
X116262262Y-75970440D01*
X116278212Y-75982028D01*
X116439244Y-76064078D01*
X116611129Y-76119927D01*
X116789635Y-76148200D01*
X116970365Y-76148200D01*
X117148871Y-76119927D01*
X117320756Y-76064078D01*
X117481788Y-75982028D01*
X117600638Y-75895679D01*
X117627996Y-75875803D01*
X117627998Y-75875800D01*
X117628002Y-75875798D01*
X117755798Y-75748002D01*
X117755800Y-75747998D01*
X117755803Y-75747996D01*
X117802385Y-75683879D01*
X117862028Y-75601788D01*
X117944078Y-75440756D01*
X117999927Y-75268871D01*
X118028200Y-75090365D01*
X118028200Y-74909635D01*
X117999927Y-74731129D01*
X117944078Y-74559244D01*
X117862028Y-74398212D01*
X117851057Y-74383112D01*
X117755803Y-74252003D01*
X117627996Y-74124196D01*
X117481791Y-74017974D01*
X117481790Y-74017973D01*
X117481788Y-74017972D01*
X117320756Y-73935922D01*
X117148871Y-73880073D01*
X117148869Y-73880072D01*
X117148867Y-73880072D01*
X116988499Y-73854672D01*
X116925364Y-73824743D01*
X116888433Y-73765431D01*
X116889431Y-73695568D01*
X116928041Y-73637336D01*
X116992005Y-73609222D01*
X117007890Y-73608199D01*
X117575572Y-73608199D01*
X117635183Y-73601791D01*
X117770031Y-73551496D01*
X117885246Y-73465246D01*
X117971496Y-73350031D01*
X118021791Y-73215183D01*
X118028200Y-73155573D01*
X118028199Y-71764428D01*
X118022999Y-71716057D01*
X118021791Y-71704816D01*
X117971497Y-71569971D01*
X117971493Y-71569964D01*
X117885247Y-71454755D01*
X117885244Y-71454752D01*
X117770035Y-71368506D01*
X117770028Y-71368502D01*
X117635182Y-71318208D01*
X117635183Y-71318208D01*
X117575583Y-71311801D01*
X117575581Y-71311800D01*
X117575573Y-71311800D01*
X117575564Y-71311800D01*
X116184429Y-71311800D01*
X116184423Y-71311801D01*
X116124816Y-71318208D01*
X115989971Y-71368502D01*
X115989964Y-71368506D01*
X115874755Y-71454752D01*
X115874752Y-71454755D01*
X115788506Y-71569964D01*
X115788502Y-71569971D01*
X115738208Y-71704817D01*
X115732367Y-71759155D01*
X115731801Y-71764423D01*
X115731800Y-71764435D01*
X82621707Y-71764435D01*
X82621790Y-71759155D01*
X82666935Y-68889778D01*
X88059500Y-68889778D01*
X88059500Y-69110222D01*
X88060747Y-69118097D01*
X88093985Y-69327952D01*
X88162103Y-69537603D01*
X88162104Y-69537606D01*
X88262187Y-69734025D01*
X88391752Y-69912358D01*
X88391756Y-69912363D01*
X88547636Y-70068243D01*
X88547641Y-70068247D01*
X88649606Y-70142328D01*
X88725978Y-70197815D01*
X88854375Y-70263237D01*
X88922393Y-70297895D01*
X88922396Y-70297896D01*
X89027221Y-70331955D01*
X89132049Y-70366015D01*
X89349778Y-70400500D01*
X89349779Y-70400500D01*
X89570221Y-70400500D01*
X89570222Y-70400500D01*
X89787951Y-70366015D01*
X89997606Y-70297895D01*
X90194022Y-70197815D01*
X90372365Y-70068242D01*
X90422536Y-70018070D01*
X90483857Y-69984586D01*
X90553548Y-69989570D01*
X90609482Y-70031441D01*
X90626398Y-70062419D01*
X90656202Y-70142328D01*
X90656206Y-70142335D01*
X90742452Y-70257544D01*
X90742455Y-70257547D01*
X90857664Y-70343793D01*
X90857671Y-70343797D01*
X90992517Y-70394091D01*
X90992516Y-70394091D01*
X90999444Y-70394835D01*
X91052127Y-70400500D01*
X92947872Y-70400499D01*
X93007483Y-70394091D01*
X93142331Y-70343796D01*
X93257546Y-70257546D01*
X93343796Y-70142331D01*
X93394091Y-70007483D01*
X93400500Y-69947873D01*
X93400499Y-68881902D01*
X127999500Y-68881902D01*
X127999500Y-69118097D01*
X128036446Y-69351368D01*
X128109433Y-69575996D01*
X128189952Y-69734022D01*
X128216657Y-69786433D01*
X128355483Y-69977510D01*
X128522490Y-70144517D01*
X128713567Y-70283343D01*
X128812991Y-70334002D01*
X128924003Y-70390566D01*
X128924005Y-70390566D01*
X128924008Y-70390568D01*
X129044412Y-70429689D01*
X129148631Y-70463553D01*
X129381903Y-70500500D01*
X129381908Y-70500500D01*
X129618097Y-70500500D01*
X129851368Y-70463553D01*
X129899595Y-70447883D01*
X130075992Y-70390568D01*
X130286433Y-70283343D01*
X130477510Y-70144517D01*
X130644517Y-69977510D01*
X130783343Y-69786433D01*
X130843583Y-69668204D01*
X130891558Y-69617409D01*
X130954068Y-69600500D01*
X138598331Y-69600500D01*
X138598347Y-69600501D01*
X138605943Y-69600501D01*
X138764054Y-69600501D01*
X138764057Y-69600501D01*
X138916785Y-69559577D01*
X138966904Y-69530639D01*
X139053716Y-69480520D01*
X139165520Y-69368716D01*
X139165520Y-69368714D01*
X139175728Y-69358507D01*
X139175730Y-69358504D01*
X141555158Y-66979075D01*
X141616479Y-66945592D01*
X141681151Y-66948825D01*
X141695466Y-66953477D01*
X141897648Y-66985500D01*
X141897649Y-66985500D01*
X142102351Y-66985500D01*
X142102352Y-66985500D01*
X142304534Y-66953477D01*
X142499219Y-66890220D01*
X142578591Y-66849778D01*
X158599500Y-66849778D01*
X158599500Y-67070221D01*
X158633985Y-67287952D01*
X158702103Y-67497603D01*
X158702104Y-67497606D01*
X158802187Y-67694025D01*
X158931752Y-67872358D01*
X158931756Y-67872363D01*
X158981928Y-67922535D01*
X159015413Y-67983858D01*
X159010429Y-68053550D01*
X158968557Y-68109483D01*
X158937581Y-68126398D01*
X158857669Y-68156203D01*
X158857664Y-68156206D01*
X158742455Y-68242452D01*
X158742452Y-68242455D01*
X158656206Y-68357664D01*
X158656202Y-68357671D01*
X158605908Y-68492517D01*
X158599501Y-68552116D01*
X158599501Y-68552123D01*
X158599500Y-68552135D01*
X158599500Y-70447870D01*
X158599501Y-70447876D01*
X158605908Y-70507483D01*
X158656202Y-70642328D01*
X158656206Y-70642335D01*
X158742452Y-70757544D01*
X158742455Y-70757547D01*
X158857664Y-70843793D01*
X158857671Y-70843797D01*
X158992517Y-70894091D01*
X158992516Y-70894091D01*
X158999444Y-70894835D01*
X159052127Y-70900500D01*
X160947872Y-70900499D01*
X161007483Y-70894091D01*
X161142331Y-70843796D01*
X161257546Y-70757546D01*
X161343796Y-70642331D01*
X161394091Y-70507483D01*
X161400500Y-70447873D01*
X161400499Y-68552128D01*
X161394091Y-68492517D01*
X161382855Y-68462393D01*
X161343797Y-68357671D01*
X161343793Y-68357664D01*
X161257547Y-68242455D01*
X161257544Y-68242452D01*
X161142335Y-68156206D01*
X161142328Y-68156202D01*
X161062419Y-68126398D01*
X161006485Y-68084527D01*
X160982068Y-68019062D01*
X160996920Y-67950789D01*
X161018069Y-67922537D01*
X161068242Y-67872365D01*
X161197815Y-67694022D01*
X161297895Y-67497606D01*
X161366015Y-67287951D01*
X161400500Y-67070222D01*
X161400500Y-66849778D01*
X161366015Y-66632049D01*
X161297895Y-66422394D01*
X161297895Y-66422393D01*
X161222242Y-66273919D01*
X161197815Y-66225978D01*
X161167478Y-66184223D01*
X161068247Y-66047641D01*
X161068243Y-66047636D01*
X160912363Y-65891756D01*
X160912358Y-65891752D01*
X160734025Y-65762187D01*
X160734024Y-65762186D01*
X160734022Y-65762185D01*
X160671096Y-65730122D01*
X160537606Y-65662104D01*
X160537603Y-65662103D01*
X160327952Y-65593985D01*
X160219086Y-65576742D01*
X160110222Y-65559500D01*
X159889778Y-65559500D01*
X159817201Y-65570995D01*
X159672047Y-65593985D01*
X159462396Y-65662103D01*
X159462393Y-65662104D01*
X159265974Y-65762187D01*
X159087641Y-65891752D01*
X159087636Y-65891756D01*
X158931756Y-66047636D01*
X158931752Y-66047641D01*
X158802187Y-66225974D01*
X158702104Y-66422393D01*
X158702103Y-66422396D01*
X158633985Y-66632047D01*
X158599500Y-66849778D01*
X142578591Y-66849778D01*
X142681610Y-66797287D01*
X142754146Y-66744587D01*
X142754148Y-66744586D01*
X142847212Y-66676971D01*
X142847210Y-66676971D01*
X142847219Y-66676966D01*
X142991966Y-66532219D01*
X142991968Y-66532215D01*
X142991971Y-66532213D01*
X143071758Y-66422394D01*
X143112287Y-66366610D01*
X143205220Y-66184219D01*
X143268477Y-65989534D01*
X143300500Y-65787352D01*
X143300500Y-65582648D01*
X143268477Y-65380466D01*
X143205220Y-65185781D01*
X143205218Y-65185778D01*
X143205218Y-65185776D01*
X143159515Y-65096080D01*
X143112287Y-65003390D01*
X143104556Y-64992749D01*
X142991971Y-64837786D01*
X142847213Y-64693028D01*
X142681613Y-64572715D01*
X142681612Y-64572714D01*
X142681610Y-64572713D01*
X142624653Y-64543691D01*
X142499223Y-64479781D01*
X142304534Y-64416522D01*
X142129995Y-64388878D01*
X142102352Y-64384500D01*
X141897648Y-64384500D01*
X141873329Y-64388351D01*
X141695465Y-64416522D01*
X141500776Y-64479781D01*
X141318386Y-64572715D01*
X141152786Y-64693028D01*
X141008028Y-64837786D01*
X140887715Y-65003386D01*
X140840485Y-65096080D01*
X140792510Y-65146876D01*
X140724689Y-65163671D01*
X140658554Y-65141134D01*
X140619515Y-65096080D01*
X140618883Y-65094840D01*
X140572287Y-65003390D01*
X140564556Y-64992749D01*
X140451971Y-64837786D01*
X140307213Y-64693028D01*
X140141613Y-64572715D01*
X140141612Y-64572714D01*
X140141610Y-64572713D01*
X140084653Y-64543691D01*
X139959223Y-64479781D01*
X139764534Y-64416522D01*
X139589995Y-64388878D01*
X139562352Y-64384500D01*
X139357648Y-64384500D01*
X139333329Y-64388351D01*
X139155465Y-64416522D01*
X138960776Y-64479781D01*
X138778386Y-64572715D01*
X138612786Y-64693028D01*
X138468028Y-64837786D01*
X138347715Y-65003386D01*
X138300485Y-65096080D01*
X138252510Y-65146876D01*
X138184689Y-65163671D01*
X138118554Y-65141134D01*
X138079515Y-65096080D01*
X138078883Y-65094840D01*
X138032287Y-65003390D01*
X138024556Y-64992749D01*
X137911971Y-64837786D01*
X137767213Y-64693028D01*
X137601613Y-64572715D01*
X137601612Y-64572714D01*
X137601610Y-64572713D01*
X137544653Y-64543691D01*
X137419223Y-64479781D01*
X137224534Y-64416522D01*
X137049995Y-64388878D01*
X137022352Y-64384500D01*
X136817648Y-64384500D01*
X136793329Y-64388351D01*
X136615465Y-64416522D01*
X136420776Y-64479781D01*
X136238386Y-64572715D01*
X136072786Y-64693028D01*
X135928028Y-64837786D01*
X135807715Y-65003386D01*
X135760485Y-65096080D01*
X135712510Y-65146876D01*
X135644689Y-65163671D01*
X135578554Y-65141134D01*
X135539515Y-65096080D01*
X135538883Y-65094840D01*
X135492287Y-65003390D01*
X135484556Y-64992749D01*
X135371971Y-64837786D01*
X135227213Y-64693028D01*
X135061613Y-64572715D01*
X135061612Y-64572714D01*
X135061610Y-64572713D01*
X135004653Y-64543691D01*
X134879223Y-64479781D01*
X134684534Y-64416522D01*
X134509995Y-64388878D01*
X134482352Y-64384500D01*
X134277648Y-64384500D01*
X134253329Y-64388351D01*
X134075465Y-64416522D01*
X133880776Y-64479781D01*
X133698386Y-64572715D01*
X133532786Y-64693028D01*
X133388028Y-64837786D01*
X133267715Y-65003386D01*
X133174781Y-65185776D01*
X133111522Y-65380465D01*
X133079500Y-65582648D01*
X133079500Y-65787351D01*
X133111522Y-65989534D01*
X133174781Y-66184223D01*
X133267715Y-66366613D01*
X133388028Y-66532213D01*
X133532786Y-66676971D01*
X133687749Y-66789556D01*
X133698390Y-66797287D01*
X133801409Y-66849778D01*
X133880776Y-66890218D01*
X133880778Y-66890218D01*
X133880781Y-66890220D01*
X133985137Y-66924127D01*
X134075465Y-66953477D01*
X134176557Y-66969488D01*
X134277648Y-66985500D01*
X134277649Y-66985500D01*
X134482351Y-66985500D01*
X134482352Y-66985500D01*
X134684534Y-66953477D01*
X134879219Y-66890220D01*
X135061610Y-66797287D01*
X135154590Y-66729732D01*
X135227213Y-66676971D01*
X135227215Y-66676968D01*
X135227219Y-66676966D01*
X135371966Y-66532219D01*
X135371968Y-66532215D01*
X135371971Y-66532213D01*
X135492284Y-66366614D01*
X135492285Y-66366613D01*
X135492287Y-66366610D01*
X135539516Y-66273917D01*
X135587489Y-66223123D01*
X135655310Y-66206328D01*
X135721445Y-66228865D01*
X135760485Y-66273919D01*
X135807715Y-66366614D01*
X135928028Y-66532213D01*
X136072786Y-66676971D01*
X136227749Y-66789556D01*
X136238390Y-66797287D01*
X136341409Y-66849778D01*
X136420776Y-66890218D01*
X136420778Y-66890218D01*
X136420781Y-66890220D01*
X136525137Y-66924127D01*
X136615465Y-66953477D01*
X136716557Y-66969488D01*
X136817648Y-66985500D01*
X136817649Y-66985500D01*
X137022351Y-66985500D01*
X137022352Y-66985500D01*
X137224534Y-66953477D01*
X137419219Y-66890220D01*
X137601610Y-66797287D01*
X137694590Y-66729732D01*
X137767213Y-66676971D01*
X137767215Y-66676968D01*
X137767219Y-66676966D01*
X137911966Y-66532219D01*
X137911968Y-66532215D01*
X137911971Y-66532213D01*
X138032284Y-66366614D01*
X138032285Y-66366613D01*
X138032287Y-66366610D01*
X138079516Y-66273917D01*
X138127489Y-66223123D01*
X138195310Y-66206328D01*
X138261445Y-66228865D01*
X138300485Y-66273919D01*
X138347715Y-66366614D01*
X138468028Y-66532213D01*
X138612786Y-66676971D01*
X138767749Y-66789556D01*
X138778390Y-66797287D01*
X138881409Y-66849778D01*
X138960776Y-66890218D01*
X138960778Y-66890218D01*
X138960781Y-66890220D01*
X139065137Y-66924127D01*
X139155465Y-66953477D01*
X139256557Y-66969488D01*
X139357648Y-66985500D01*
X139357649Y-66985500D01*
X139550902Y-66985500D01*
X139617941Y-67005185D01*
X139663696Y-67057989D01*
X139673640Y-67127147D01*
X139644615Y-67190703D01*
X139638583Y-67197181D01*
X138472584Y-68363181D01*
X138411261Y-68396666D01*
X138384903Y-68399500D01*
X130954068Y-68399500D01*
X130887029Y-68379815D01*
X130843583Y-68331795D01*
X130783343Y-68213567D01*
X130644517Y-68022490D01*
X130477510Y-67855483D01*
X130286433Y-67716657D01*
X130257869Y-67702103D01*
X130075996Y-67609433D01*
X129851368Y-67536446D01*
X129618097Y-67499500D01*
X129618092Y-67499500D01*
X129381908Y-67499500D01*
X129381903Y-67499500D01*
X129148631Y-67536446D01*
X128924003Y-67609433D01*
X128713566Y-67716657D01*
X128678059Y-67742455D01*
X128522490Y-67855483D01*
X128522488Y-67855485D01*
X128522487Y-67855485D01*
X128355485Y-68022487D01*
X128355485Y-68022488D01*
X128355483Y-68022490D01*
X128333950Y-68052128D01*
X128216657Y-68213566D01*
X128109433Y-68424003D01*
X128036446Y-68648631D01*
X127999500Y-68881902D01*
X93400499Y-68881902D01*
X93400499Y-68052128D01*
X93394091Y-67992517D01*
X93390861Y-67983858D01*
X93343797Y-67857671D01*
X93343793Y-67857664D01*
X93257547Y-67742455D01*
X93257544Y-67742452D01*
X93142335Y-67656206D01*
X93142328Y-67656202D01*
X93007482Y-67605908D01*
X93007483Y-67605908D01*
X92947883Y-67599501D01*
X92947881Y-67599500D01*
X92947873Y-67599500D01*
X92947864Y-67599500D01*
X91052129Y-67599500D01*
X91052123Y-67599501D01*
X90992516Y-67605908D01*
X90857671Y-67656202D01*
X90857664Y-67656206D01*
X90742455Y-67742452D01*
X90742452Y-67742455D01*
X90656206Y-67857664D01*
X90656203Y-67857669D01*
X90626398Y-67937581D01*
X90584526Y-67993514D01*
X90519062Y-68017931D01*
X90450789Y-68003079D01*
X90422535Y-67981928D01*
X90372363Y-67931756D01*
X90372358Y-67931752D01*
X90194025Y-67802187D01*
X90194024Y-67802186D01*
X90194022Y-67802185D01*
X90076791Y-67742452D01*
X89997606Y-67702104D01*
X89997603Y-67702103D01*
X89787952Y-67633985D01*
X89632930Y-67609432D01*
X89570222Y-67599500D01*
X89349778Y-67599500D01*
X89287070Y-67609432D01*
X89132047Y-67633985D01*
X88922396Y-67702103D01*
X88922393Y-67702104D01*
X88725974Y-67802187D01*
X88547641Y-67931752D01*
X88547636Y-67931756D01*
X88391756Y-68087636D01*
X88391752Y-68087641D01*
X88262187Y-68265974D01*
X88162104Y-68462393D01*
X88162103Y-68462396D01*
X88093985Y-68672047D01*
X88093985Y-68672049D01*
X88059500Y-68889778D01*
X82666935Y-68889778D01*
X82667042Y-68882955D01*
X82686343Y-67656202D01*
X82776161Y-61947424D01*
X82796898Y-61880705D01*
X82850415Y-61835786D01*
X82902093Y-61825392D01*
X94000000Y-62000000D01*
X94000033Y-61999999D01*
X94000040Y-62000000D01*
X104306678Y-61968370D01*
X104564345Y-61967580D01*
X104564283Y-61947426D01*
X104562597Y-61397648D01*
X125579500Y-61397648D01*
X125579500Y-61602351D01*
X125611522Y-61804534D01*
X125674781Y-61999223D01*
X125767715Y-62181613D01*
X125888028Y-62347213D01*
X126032786Y-62491971D01*
X126144098Y-62572842D01*
X126198390Y-62612287D01*
X126314607Y-62671503D01*
X126380776Y-62705218D01*
X126380778Y-62705218D01*
X126380781Y-62705220D01*
X126485137Y-62739127D01*
X126575465Y-62768477D01*
X126676557Y-62784488D01*
X126777648Y-62800500D01*
X126777649Y-62800500D01*
X126982351Y-62800500D01*
X126982352Y-62800500D01*
X127184534Y-62768477D01*
X127379219Y-62705220D01*
X127561610Y-62612287D01*
X127654590Y-62544732D01*
X127727213Y-62491971D01*
X127727215Y-62491968D01*
X127727219Y-62491966D01*
X127871966Y-62347219D01*
X127871968Y-62347215D01*
X127871971Y-62347213D01*
X127924732Y-62274590D01*
X127992287Y-62181610D01*
X128085220Y-61999219D01*
X128148477Y-61804534D01*
X128180500Y-61602352D01*
X128180500Y-61397648D01*
X133199500Y-61397648D01*
X133199500Y-61602351D01*
X133231522Y-61804534D01*
X133294781Y-61999223D01*
X133387715Y-62181613D01*
X133508028Y-62347213D01*
X133652786Y-62491971D01*
X133764098Y-62572842D01*
X133818390Y-62612287D01*
X133934607Y-62671503D01*
X134000776Y-62705218D01*
X134000778Y-62705218D01*
X134000781Y-62705220D01*
X134105137Y-62739127D01*
X134195465Y-62768477D01*
X134296557Y-62784488D01*
X134397648Y-62800500D01*
X134397649Y-62800500D01*
X134602351Y-62800500D01*
X134602352Y-62800500D01*
X134804534Y-62768477D01*
X134999219Y-62705220D01*
X135181610Y-62612287D01*
X135274590Y-62544732D01*
X135347213Y-62491971D01*
X135347215Y-62491968D01*
X135347219Y-62491966D01*
X135491966Y-62347219D01*
X135491968Y-62347215D01*
X135491971Y-62347213D01*
X135544732Y-62274590D01*
X135612287Y-62181610D01*
X135705220Y-61999219D01*
X135768477Y-61804534D01*
X135800500Y-61602352D01*
X135800500Y-61397648D01*
X135768477Y-61195466D01*
X135705220Y-61000781D01*
X135705218Y-61000778D01*
X135705218Y-61000776D01*
X135671503Y-60934607D01*
X135612287Y-60818390D01*
X135604556Y-60807749D01*
X135491971Y-60652786D01*
X135347213Y-60508028D01*
X135181613Y-60387715D01*
X135181612Y-60387714D01*
X135181610Y-60387713D01*
X135124653Y-60358691D01*
X134999223Y-60294781D01*
X134804534Y-60231522D01*
X134629995Y-60203878D01*
X134602352Y-60199500D01*
X134397648Y-60199500D01*
X134373329Y-60203351D01*
X134195465Y-60231522D01*
X134000776Y-60294781D01*
X133818386Y-60387715D01*
X133652786Y-60508028D01*
X133508028Y-60652786D01*
X133387715Y-60818386D01*
X133294781Y-61000776D01*
X133231522Y-61195465D01*
X133199500Y-61397648D01*
X128180500Y-61397648D01*
X128148477Y-61195466D01*
X128085220Y-61000781D01*
X128085218Y-61000778D01*
X128085218Y-61000776D01*
X128051503Y-60934607D01*
X127992287Y-60818390D01*
X127984556Y-60807749D01*
X127871971Y-60652786D01*
X127727213Y-60508028D01*
X127561613Y-60387715D01*
X127561612Y-60387714D01*
X127561610Y-60387713D01*
X127504653Y-60358691D01*
X127379223Y-60294781D01*
X127184534Y-60231522D01*
X127009995Y-60203878D01*
X126982352Y-60199500D01*
X126777648Y-60199500D01*
X126753329Y-60203351D01*
X126575465Y-60231522D01*
X126380776Y-60294781D01*
X126198386Y-60387715D01*
X126032786Y-60508028D01*
X125888028Y-60652786D01*
X125767715Y-60818386D01*
X125674781Y-61000776D01*
X125611522Y-61195465D01*
X125579500Y-61397648D01*
X104562597Y-61397648D01*
X104562583Y-61393156D01*
X104517039Y-46552135D01*
X108059500Y-46552135D01*
X108059500Y-48447870D01*
X108059501Y-48447876D01*
X108065908Y-48507483D01*
X108116202Y-48642328D01*
X108116206Y-48642335D01*
X108202452Y-48757544D01*
X108202455Y-48757547D01*
X108317664Y-48843793D01*
X108317671Y-48843797D01*
X108452517Y-48894091D01*
X108452516Y-48894091D01*
X108459444Y-48894835D01*
X108512127Y-48900500D01*
X110407872Y-48900499D01*
X110467483Y-48894091D01*
X110602331Y-48843796D01*
X110717546Y-48757546D01*
X110803796Y-48642331D01*
X110803798Y-48642326D01*
X110833601Y-48562420D01*
X110875471Y-48506486D01*
X110940936Y-48482068D01*
X111009209Y-48496919D01*
X111037464Y-48518071D01*
X111087636Y-48568243D01*
X111087641Y-48568247D01*
X111123718Y-48594458D01*
X111265978Y-48697815D01*
X111394375Y-48763237D01*
X111462393Y-48797895D01*
X111462396Y-48797896D01*
X111567221Y-48831955D01*
X111672049Y-48866015D01*
X111889778Y-48900500D01*
X111889779Y-48900500D01*
X112110221Y-48900500D01*
X112110222Y-48900500D01*
X112327951Y-48866015D01*
X112537606Y-48797895D01*
X112734022Y-48697815D01*
X112912365Y-48568242D01*
X113068242Y-48412365D01*
X113197815Y-48234022D01*
X113297895Y-48037606D01*
X113366015Y-47827951D01*
X113400500Y-47610222D01*
X113400500Y-47389778D01*
X113366015Y-47172049D01*
X113331955Y-47067221D01*
X113297896Y-46962396D01*
X113297895Y-46962393D01*
X113237208Y-46843291D01*
X113197815Y-46765978D01*
X113139501Y-46685715D01*
X113092986Y-46621691D01*
X113068247Y-46587641D01*
X113068243Y-46587636D01*
X113032742Y-46552135D01*
X133059500Y-46552135D01*
X133059500Y-48447870D01*
X133059501Y-48447876D01*
X133065908Y-48507483D01*
X133116202Y-48642328D01*
X133116206Y-48642335D01*
X133202452Y-48757544D01*
X133202455Y-48757547D01*
X133317664Y-48843793D01*
X133317671Y-48843797D01*
X133452517Y-48894091D01*
X133452516Y-48894091D01*
X133459444Y-48894835D01*
X133512127Y-48900500D01*
X135407872Y-48900499D01*
X135467483Y-48894091D01*
X135602331Y-48843796D01*
X135717546Y-48757546D01*
X135803796Y-48642331D01*
X135803798Y-48642326D01*
X135833601Y-48562420D01*
X135875471Y-48506486D01*
X135940936Y-48482068D01*
X136009209Y-48496919D01*
X136037464Y-48518071D01*
X136087636Y-48568243D01*
X136087641Y-48568247D01*
X136123718Y-48594458D01*
X136265978Y-48697815D01*
X136394375Y-48763237D01*
X136462393Y-48797895D01*
X136462396Y-48797896D01*
X136567221Y-48831955D01*
X136672049Y-48866015D01*
X136889778Y-48900500D01*
X136889779Y-48900500D01*
X137110221Y-48900500D01*
X137110222Y-48900500D01*
X137327951Y-48866015D01*
X137537606Y-48797895D01*
X137734022Y-48697815D01*
X137912365Y-48568242D01*
X138068242Y-48412365D01*
X138197815Y-48234022D01*
X138297895Y-48037606D01*
X138366015Y-47827951D01*
X138400500Y-47610222D01*
X138400500Y-47389778D01*
X138366015Y-47172049D01*
X138331955Y-47067221D01*
X138297896Y-46962396D01*
X138297895Y-46962393D01*
X138237208Y-46843291D01*
X138197815Y-46765978D01*
X138092985Y-46621691D01*
X138068247Y-46587641D01*
X138068243Y-46587636D01*
X137912363Y-46431756D01*
X137912358Y-46431752D01*
X137734025Y-46302187D01*
X137734024Y-46302186D01*
X137734022Y-46302185D01*
X137616791Y-46242452D01*
X137537606Y-46202104D01*
X137537603Y-46202103D01*
X137327952Y-46133985D01*
X137219086Y-46116742D01*
X137110222Y-46099500D01*
X136889778Y-46099500D01*
X136817201Y-46110995D01*
X136672047Y-46133985D01*
X136462396Y-46202103D01*
X136462393Y-46202104D01*
X136265974Y-46302187D01*
X136087641Y-46431752D01*
X136087636Y-46431756D01*
X136037463Y-46481929D01*
X135976140Y-46515413D01*
X135906448Y-46510428D01*
X135850515Y-46468557D01*
X135833601Y-46437580D01*
X135803797Y-46357671D01*
X135803793Y-46357664D01*
X135717547Y-46242455D01*
X135717544Y-46242452D01*
X135602335Y-46156206D01*
X135602328Y-46156202D01*
X135467482Y-46105908D01*
X135467483Y-46105908D01*
X135407883Y-46099501D01*
X135407881Y-46099500D01*
X135407873Y-46099500D01*
X135407864Y-46099500D01*
X133512129Y-46099500D01*
X133512123Y-46099501D01*
X133452516Y-46105908D01*
X133317671Y-46156202D01*
X133317664Y-46156206D01*
X133202455Y-46242452D01*
X133202452Y-46242455D01*
X133116206Y-46357664D01*
X133116202Y-46357671D01*
X133065908Y-46492517D01*
X133059501Y-46552116D01*
X133059500Y-46552135D01*
X113032742Y-46552135D01*
X112912363Y-46431756D01*
X112912358Y-46431752D01*
X112734025Y-46302187D01*
X112734024Y-46302186D01*
X112734022Y-46302185D01*
X112616791Y-46242452D01*
X112537606Y-46202104D01*
X112537603Y-46202103D01*
X112327952Y-46133985D01*
X112219086Y-46116742D01*
X112110222Y-46099500D01*
X111889778Y-46099500D01*
X111817201Y-46110995D01*
X111672047Y-46133985D01*
X111462396Y-46202103D01*
X111462393Y-46202104D01*
X111265974Y-46302187D01*
X111087641Y-46431752D01*
X111087636Y-46431756D01*
X111037463Y-46481929D01*
X110976140Y-46515413D01*
X110906448Y-46510428D01*
X110850515Y-46468557D01*
X110833601Y-46437580D01*
X110803797Y-46357671D01*
X110803793Y-46357664D01*
X110717547Y-46242455D01*
X110717544Y-46242452D01*
X110602335Y-46156206D01*
X110602328Y-46156202D01*
X110467482Y-46105908D01*
X110467483Y-46105908D01*
X110407883Y-46099501D01*
X110407881Y-46099500D01*
X110407873Y-46099500D01*
X110407864Y-46099500D01*
X108512129Y-46099500D01*
X108512123Y-46099501D01*
X108452516Y-46105908D01*
X108317671Y-46156202D01*
X108317664Y-46156206D01*
X108202455Y-46242452D01*
X108202452Y-46242455D01*
X108116206Y-46357664D01*
X108116202Y-46357671D01*
X108065908Y-46492517D01*
X108059501Y-46552116D01*
X108059500Y-46552135D01*
X104517039Y-46552135D01*
X104517030Y-46549187D01*
X104500382Y-41124381D01*
X104519860Y-41057281D01*
X104572524Y-41011364D01*
X104624381Y-41000000D01*
X143878786Y-41000000D01*
X143945825Y-41019685D01*
G37*
%TD.AperFunction*%
%TD*%
M02*
